{"glyphs":{"0":{"ha":347,"x_min":34,"x_max":313,"o":"m 140 253 q 123 256 129 255 q 112 260 118 258 q 41 342 58 282 q 36 372 37 358 q 34 408 34 386 q 36 447 34 431 q 41 486 37 464 q 80 614 54 553 q 136 705 106 675 q 151 717 144 713 q 165 720 157 720 q 174 719 171 720 q 180 716 177 718 q 186 712 183 715 q 191 706 189 709 l 196 700 l 210 697 q 221 694 215 696 q 232 691 228 692 q 311 586 294 665 q 313 559 313 574 q 313 540 313 545 q 311 511 313 524 q 253 334 299 414 q 182 260 220 279 q 162 255 172 256 q 144 253 151 253 l 140 253 m 165 302 q 214 357 189 315 q 241 413 229 380 q 260 477 254 445 q 268 529 267 510 q 268 553 268 548 q 263 593 268 577 q 253 616 260 605 q 238 635 246 628 q 219 648 229 644 q 193 654 210 652 q 181 657 184 656 q 177 657 178 657 q 174 656 176 657 q 170 655 173 656 q 161 653 167 653 q 151 654 155 653 l 150 654 q 148 653 149 654 q 142 643 146 650 q 96 523 113 591 q 79 404 79 454 l 79 396 q 113 311 81 332 q 146 298 130 298 q 165 302 157 298 z "},"1":{"ha":314,"x_min":39,"x_max":279,"o":"m 76 201 q 63 215 64 208 q 62 222 62 221 q 71 239 62 232 q 93 247 76 242 q 131 255 111 251 l 148 258 l 147 371 q 149 510 147 481 q 160 659 153 591 q 161 667 161 663 q 162 684 162 680 l 162 686 q 161 687 161 687 q 155 682 159 687 q 151 680 153 681 q 102 644 126 656 q 64 633 79 633 q 51 636 56 633 q 39 655 39 644 q 41 665 39 660 q 61 679 47 679 q 71 677 65 679 q 74 677 73 677 q 78 677 76 677 q 83 680 80 678 q 124 712 101 690 q 162 755 147 734 q 173 769 168 766 q 184 774 178 773 l 186 774 q 195 772 191 774 q 204 765 201 770 q 211 748 210 758 q 211 735 211 738 q 207 677 211 716 q 195 525 197 584 q 192 391 192 465 l 192 352 q 193 322 193 335 q 193 299 193 309 q 193 283 193 290 q 193 273 193 277 q 194 267 193 269 q 195 264 194 265 l 195 264 q 210 266 198 265 q 235 268 222 267 q 254 269 248 269 q 263 267 260 268 q 269 264 266 267 q 277 254 275 260 q 279 245 279 249 q 277 237 279 241 q 274 232 276 235 q 269 227 271 229 q 264 224 267 225 l 255 224 q 245 224 250 224 q 210 222 228 224 q 184 220 191 221 q 176 218 181 219 q 165 217 171 218 q 115 210 143 216 q 106 208 109 209 q 103 205 104 207 q 95 199 100 200 q 87 199 90 199 q 76 201 81 199 z "},"2":{"ha":398,"x_min":48,"x_max":363,"o":"m 120 218 q 110 225 115 220 q 105 236 106 231 l 105 239 q 106 246 105 243 q 111 258 107 251 q 142 309 127 283 q 167 350 158 336 q 195 404 179 371 q 219 453 212 436 q 259 589 249 524 q 262 631 262 608 q 259 667 262 653 q 238 709 251 701 q 229 711 235 711 l 224 711 q 206 706 215 710 q 149 664 178 693 q 104 602 120 635 q 92 568 94 581 q 90 549 90 555 q 92 538 90 543 q 94 536 92 538 q 98 534 96 535 q 110 517 110 526 q 109 513 110 515 q 91 497 106 500 l 89 497 q 58 515 73 497 q 48 552 48 530 q 69 627 48 583 q 130 708 92 673 q 207 753 168 743 q 228 756 216 755 q 246 754 239 756 q 302 680 288 742 q 307 631 307 658 q 291 524 307 585 q 191 303 267 429 q 186 296 189 299 q 181 286 183 290 q 178 281 179 282 l 178 279 l 181 279 q 212 284 198 283 q 253 287 227 286 q 288 288 276 287 q 313 291 300 289 q 336 294 328 294 q 348 295 344 295 q 353 292 351 294 q 363 276 363 287 l 363 275 q 347 252 363 259 q 337 249 345 251 q 318 246 329 248 q 291 243 303 244 q 254 241 278 242 q 200 237 220 241 q 158 226 180 234 q 139 219 144 221 q 130 217 133 217 l 127 217 q 120 218 124 217 z "},"3":{"ha":361,"x_min":38,"x_max":326,"o":"m 161 208 q 134 222 146 212 q 119 237 127 228 q 102 256 110 247 q 93 271 95 266 q 91 281 91 276 q 92 288 91 284 q 100 301 94 296 q 112 305 106 305 q 134 290 123 305 q 144 276 138 283 q 158 262 151 268 q 168 254 164 256 q 178 251 172 251 q 214 269 193 251 q 280 372 266 312 q 282 393 281 382 q 280 412 282 405 q 216 461 269 452 q 190 463 208 463 q 156 461 172 463 q 125 459 137 459 q 107 461 113 459 q 96 473 98 466 q 94 483 94 479 q 96 496 94 489 q 103 506 97 498 q 116 524 109 513 q 212 698 203 640 q 213 707 213 703 q 208 718 213 715 q 188 722 202 722 q 159 718 174 722 q 124 701 142 712 q 92 676 105 689 q 86 671 88 673 q 84 667 85 669 q 84 663 84 665 q 65 642 84 646 l 62 642 q 39 660 43 642 q 38 665 38 663 q 60 702 38 680 q 145 758 99 742 q 191 766 170 766 q 216 763 205 766 q 255 726 246 754 q 257 707 257 717 q 176 529 257 645 q 165 514 169 520 q 161 507 161 508 l 191 507 q 213 507 205 507 q 224 506 220 507 q 236 503 229 505 q 323 425 306 484 q 326 402 326 414 q 326 387 326 391 q 324 363 326 373 q 260 250 309 298 q 177 206 216 206 q 161 208 170 206 z "},"4":{"ha":407,"x_min":35,"x_max":372,"o":"m 263 211 q 255 218 258 214 q 250 228 251 222 l 250 244 q 252 288 250 258 q 255 331 254 311 q 257 359 256 351 l 258 378 l 227 374 q 171 369 195 370 q 119 366 146 367 q 91 364 104 365 q 71 363 77 363 q 60 362 64 362 q 55 362 57 362 q 50 365 53 363 q 36 380 39 369 q 35 386 35 382 q 36 393 35 389 q 45 414 38 400 q 121 649 91 513 q 132 726 131 693 q 134 745 133 738 q 136 754 134 751 q 142 760 138 758 q 152 763 145 763 q 162 762 158 764 q 171 753 168 759 q 174 736 174 747 q 146 567 174 679 q 102 433 130 502 q 95 417 98 423 q 93 410 93 410 l 102 410 q 124 411 111 410 q 149 412 136 412 q 168 413 161 413 q 196 416 176 414 q 233 420 215 418 q 254 422 250 422 l 258 423 l 259 463 q 260 506 260 480 q 262 555 261 532 q 264 613 263 591 q 264 646 264 634 q 264 665 264 658 q 264 680 264 672 q 262 700 262 693 q 263 709 262 706 q 264 714 263 712 q 274 723 269 722 q 282 725 279 725 q 291 722 287 725 q 298 715 296 719 q 302 703 300 711 q 306 664 305 688 q 306 624 306 641 q 305 536 306 591 q 304 468 304 491 q 304 437 304 446 l 304 429 l 305 429 q 311 429 307 429 q 327 431 317 430 q 347 434 340 433 q 358 433 354 434 q 365 429 361 432 q 371 421 370 425 q 372 413 372 418 l 372 410 q 361 393 371 397 q 350 390 358 391 q 330 387 341 388 l 303 382 l 302 362 q 299 311 301 342 q 295 255 297 280 q 292 225 293 229 q 281 212 290 216 q 271 209 275 209 q 263 211 267 209 z "},"5":{"ha":336,"x_min":34,"x_max":288,"o":"m 146 235 q 121 244 134 238 q 83 267 108 251 q 57 284 66 278 q 45 293 49 290 q 41 299 42 296 q 38 311 38 305 q 39 317 38 314 q 49 330 41 326 q 60 333 54 333 l 63 333 q 75 327 70 332 q 91 315 77 324 q 120 297 105 306 q 142 284 135 288 q 151 280 147 281 q 162 279 155 279 l 169 279 q 180 280 175 279 q 196 286 188 281 q 240 334 229 302 q 243 356 243 343 q 239 380 243 369 q 219 418 234 404 q 174 438 200 438 q 165 437 170 438 q 86 399 133 433 q 67 388 73 390 q 58 386 62 386 q 52 387 55 386 q 39 396 44 389 q 34 411 34 403 q 35 421 34 413 q 38 438 36 429 q 42 466 39 448 q 47 500 45 484 q 54 555 51 532 q 63 607 58 578 q 70 643 66 624 q 73 660 71 652 l 77 684 l 75 689 q 72 699 72 694 q 75 713 72 704 q 83 729 79 724 q 91 736 86 734 q 100 739 96 739 q 115 731 108 739 l 119 727 l 128 728 q 140 729 132 728 q 155 730 147 730 q 201 732 170 732 q 253 731 231 732 q 268 728 263 730 q 277 722 273 726 q 281 709 281 716 l 281 707 q 275 694 281 700 q 268 689 272 690 q 254 688 264 688 q 223 689 243 688 q 194 690 203 690 q 180 690 185 690 q 171 690 175 690 q 146 687 155 688 q 135 686 138 686 q 130 684 132 685 q 126 682 129 682 q 122 680 124 681 q 117 677 118 680 q 114 655 117 674 q 108 614 111 637 q 102 578 104 592 q 99 554 102 573 q 94 513 96 536 q 89 474 91 490 q 86 456 86 458 l 86 454 l 88 455 q 93 457 90 455 q 103 462 97 459 q 174 483 142 483 q 193 481 184 483 q 283 393 261 467 q 288 355 288 373 q 251 270 288 307 q 195 237 226 246 q 175 235 184 235 q 160 235 165 235 q 146 235 152 235 z "},"6":{"ha":345,"x_min":52,"x_max":302,"o":"m 161 230 q 157 231 159 231 q 151 232 155 232 q 78 301 110 242 q 52 411 52 349 q 65 505 52 454 q 128 658 87 590 q 203 736 165 715 q 216 742 212 741 q 226 743 221 743 l 231 743 q 261 730 250 742 q 275 707 271 719 q 278 688 278 694 q 275 675 278 681 q 267 666 272 668 q 258 664 261 664 q 250 666 254 664 q 238 686 239 671 q 229 701 236 701 q 209 689 223 701 q 182 659 195 676 q 149 603 165 637 q 120 534 132 569 q 114 512 117 525 q 107 487 110 498 q 104 474 104 476 q 106 475 104 474 q 112 480 109 477 q 148 504 128 496 q 174 512 166 511 q 186 513 182 513 q 213 509 197 513 q 237 503 228 507 q 257 492 247 499 q 301 422 294 468 q 302 403 302 413 q 256 286 302 349 q 173 230 217 233 l 161 230 m 184 279 q 215 306 199 286 q 244 351 231 326 q 254 377 252 367 q 257 401 257 388 q 235 452 257 439 q 222 460 229 458 q 205 466 215 463 q 185 468 193 468 q 168 463 177 467 q 146 451 155 458 q 123 425 137 444 q 113 411 117 416 q 107 404 109 406 q 103 400 104 401 q 100 399 102 399 q 98 397 99 399 q 98 393 98 396 q 100 374 98 387 q 106 351 102 361 q 124 312 113 330 q 146 284 135 293 q 169 275 157 275 q 184 279 176 275 z "},"7":{"ha":431,"x_min":35,"x_max":397,"o":"m 100 212 q 92 217 97 213 q 86 225 87 222 q 85 230 85 227 q 85 236 85 233 q 90 250 86 239 q 100 275 94 261 q 175 430 125 336 q 186 450 182 441 q 190 458 190 458 q 187 458 189 458 q 181 458 184 458 q 155 454 175 456 q 112 450 134 452 q 79 446 90 447 q 68 446 71 446 q 64 446 66 446 l 62 446 q 57 447 60 446 q 46 455 50 450 q 43 467 43 461 l 43 470 q 67 486 48 486 q 94 489 71 486 q 145 496 117 492 q 194 503 174 500 q 217 507 215 506 q 222 515 218 507 q 231 528 226 521 q 247 555 236 538 q 269 590 258 573 q 303 643 287 617 q 329 687 319 669 q 339 706 339 705 q 331 704 338 706 q 313 699 323 702 q 199 675 246 680 q 156 674 181 674 q 113 675 131 674 q 81 680 97 677 q 57 684 64 682 q 35 705 36 690 l 35 708 q 47 725 35 719 q 58 728 52 728 q 74 724 66 728 q 82 721 77 722 q 91 719 86 720 q 117 718 99 718 q 154 717 135 717 q 182 718 172 717 q 338 753 242 723 q 354 759 347 756 q 365 761 362 761 l 369 761 q 394 747 386 761 q 397 742 396 745 q 397 733 397 739 q 396 723 397 727 q 392 711 395 719 q 309 569 372 665 q 288 537 296 549 q 278 521 281 526 q 275 515 275 516 q 283 516 276 515 q 300 519 290 517 q 319 522 314 522 q 326 522 324 522 q 333 521 330 522 q 340 515 337 519 q 347 500 347 509 q 347 496 347 498 q 335 481 345 486 q 313 475 332 479 q 266 469 294 472 q 253 466 257 467 q 247 465 248 465 q 244 463 245 464 q 229 435 241 458 q 202 384 216 412 q 176 334 187 355 q 140 255 151 285 q 130 232 134 241 q 124 220 125 222 q 105 212 117 212 l 100 212 z "},"8":{"ha":358,"x_min":41,"x_max":316,"o":"m 113 226 q 70 245 89 230 q 43 282 50 261 q 41 300 41 290 q 60 353 41 324 q 85 383 69 366 q 136 431 102 399 q 147 441 142 437 q 153 447 152 446 q 150 455 153 448 q 142 475 146 463 q 127 513 132 499 q 120 538 122 528 q 116 580 116 559 q 128 650 116 615 q 159 708 140 680 q 193 745 178 736 q 204 747 199 747 q 213 745 209 747 q 225 731 222 742 l 226 727 l 225 722 q 222 715 224 718 q 220 713 220 714 q 222 712 220 713 q 225 712 223 712 q 229 711 227 711 q 248 709 236 711 q 267 703 259 706 q 307 662 293 690 q 316 621 316 643 q 309 581 316 602 q 220 450 288 521 q 210 439 214 444 q 206 434 206 435 q 207 429 206 433 q 210 419 208 425 q 217 389 215 402 q 220 359 219 375 l 220 348 q 219 330 220 338 q 214 303 218 317 q 205 279 212 292 q 193 258 199 267 q 149 228 176 235 q 134 226 142 226 q 121 226 126 226 l 113 226 m 208 503 q 259 577 244 545 q 271 620 271 600 l 271 622 q 271 630 271 627 q 270 636 271 633 q 267 642 269 638 q 257 655 263 650 q 244 663 251 661 q 226 667 237 666 q 208 667 216 667 l 199 667 q 183 665 188 667 q 179 662 181 665 q 175 653 178 659 q 163 618 167 634 q 160 583 160 603 q 164 547 160 563 q 178 504 168 531 q 184 489 182 495 q 187 482 186 483 l 187 481 q 208 503 190 481 m 144 274 q 172 315 163 283 q 175 347 174 328 q 173 382 175 366 q 171 393 172 389 q 170 399 170 398 q 161 393 168 399 q 142 376 153 387 q 122 356 132 366 q 106 338 112 345 q 86 299 86 314 q 88 291 86 295 q 100 279 93 284 q 116 271 108 273 q 125 271 120 271 l 130 271 q 144 274 138 271 z "},"9":{"ha":340,"x_min":36,"x_max":306,"o":"m 250 217 q 236 243 238 223 q 235 312 235 256 q 236 424 235 367 q 238 500 237 481 q 239 503 239 502 q 238 503 239 503 q 235 499 237 503 q 227 483 233 494 q 202 439 212 456 q 178 408 191 422 q 127 372 155 380 q 115 371 121 371 q 107 371 110 371 q 96 372 101 371 q 50 411 67 380 q 36 486 36 439 l 36 498 q 39 533 37 517 q 46 568 41 549 q 130 719 68 658 q 180 754 157 747 q 191 758 186 757 q 205 758 196 758 l 210 758 q 256 728 256 758 q 256 720 256 723 q 253 714 255 717 q 242 705 248 705 q 237 705 237 705 q 221 713 227 705 q 219 716 220 715 q 215 717 218 717 q 208 718 213 718 q 201 717 205 718 q 195 716 197 717 q 162 691 181 711 q 127 648 142 671 q 104 600 115 627 q 87 549 93 573 q 81 505 81 522 q 81 486 81 488 q 85 444 81 460 q 111 416 94 416 q 136 429 121 416 q 153 447 143 435 q 170 473 162 459 q 192 515 178 488 q 214 562 205 543 q 250 684 235 614 q 257 712 255 703 q 261 726 260 722 q 265 732 263 730 q 274 739 269 736 q 283 741 279 741 q 292 739 287 741 q 300 734 296 736 q 305 724 304 729 q 306 711 306 718 l 306 703 q 301 667 304 690 q 285 536 290 594 q 280 387 281 477 q 279 313 279 344 q 282 244 279 252 q 283 235 283 239 q 281 227 283 232 q 262 214 276 216 q 255 215 258 214 q 250 217 252 215 z "}," ":{"ha":203,"x_min":0,"x_max":0,"o":""}," ":{"ha":203,"x_min":0,"x_max":0,"o":""},"!":{"ha":206,"x_min":73,"x_max":138,"o":"m 87 201 q 84 203 86 201 q 80 205 82 204 q 73 221 73 212 q 79 240 73 229 q 101 260 88 260 q 108 259 104 260 q 121 238 121 253 q 121 229 121 234 q 99 201 115 206 q 95 200 96 200 q 93 200 94 200 l 92 200 q 87 201 90 200 m 104 326 q 88 340 93 330 q 87 344 87 341 q 86 352 86 347 q 85 366 85 357 q 85 392 85 376 q 84 432 84 412 q 85 492 84 462 q 93 626 87 543 q 95 665 94 646 q 97 694 96 684 l 98 715 l 93 719 q 85 734 85 726 q 86 740 85 737 q 114 772 94 772 l 117 772 q 136 748 132 769 q 138 724 137 741 q 138 694 138 707 q 138 667 138 682 q 136 618 138 640 q 132 526 133 557 q 130 475 130 495 q 130 425 130 456 q 130 385 130 399 q 131 366 130 371 q 132 357 131 360 q 133 352 133 353 q 133 349 133 351 q 132 345 133 347 q 116 327 128 331 q 111 325 113 326 q 109 325 109 325 l 107 325 q 104 326 106 326 z "},"\"":{"ha":237,"x_min":35,"x_max":201,"o":"m 189 920 q 199 911 196 916 q 201 901 201 905 q 201 895 201 898 q 192 876 199 891 q 175 843 184 861 q 157 809 165 824 q 146 792 149 795 q 143 789 145 791 q 139 787 141 788 q 130 785 135 785 q 121 787 126 785 q 111 802 113 791 q 111 806 111 804 q 117 821 111 813 q 128 843 119 826 q 146 879 137 861 q 157 902 155 897 q 163 912 159 907 q 172 920 168 918 q 180 922 176 922 q 189 920 185 922 m 134 972 q 144 962 142 968 q 146 954 146 956 q 143 942 146 947 q 131 921 142 939 q 92 859 119 903 q 74 830 80 839 q 63 819 67 821 q 54 817 60 817 q 40 823 45 817 q 35 836 35 829 l 35 838 q 54 874 35 842 q 70 901 61 886 q 85 928 79 916 q 87 931 87 930 q 99 952 94 943 q 106 963 104 961 q 117 972 111 970 q 126 974 123 974 q 134 972 130 974 z "},"#":{"ha":513,"x_min":68,"x_max":445,"o":"m 234 243 q 228 248 230 245 q 223 256 225 251 q 221 262 221 259 q 222 267 221 264 q 228 283 222 272 q 239 309 231 290 q 256 350 247 328 q 271 389 264 372 q 279 408 277 406 q 280 413 280 411 q 281 415 281 414 q 269 414 280 415 q 243 412 258 414 q 216 410 229 411 q 201 408 203 409 q 199 408 199 408 q 197 406 198 408 q 194 400 195 404 q 189 389 192 396 q 182 372 186 382 q 172 348 178 362 q 149 294 157 312 q 137 269 141 275 q 131 259 134 262 q 120 254 125 254 q 115 254 116 254 q 104 258 109 254 q 95 275 95 264 q 100 292 95 282 q 110 316 102 299 q 126 354 117 334 q 140 388 134 374 q 146 404 146 403 q 144 404 146 404 q 138 404 142 404 q 121 402 131 404 q 102 401 111 401 q 90 400 93 400 q 74 406 80 400 q 68 420 68 412 l 68 422 q 94 441 71 439 q 142 446 121 444 q 165 449 163 448 q 170 460 165 450 q 180 483 174 470 q 189 506 185 496 q 193 516 193 515 q 191 517 193 517 q 186 516 189 517 q 170 515 179 516 q 150 514 160 515 q 134 513 140 513 q 115 511 122 512 q 105 511 109 511 q 100 511 102 511 q 97 512 98 511 q 87 530 87 516 q 96 547 87 543 q 119 552 100 550 q 182 558 139 555 q 203 559 195 559 q 213 561 212 560 q 223 583 214 562 q 244 630 232 603 q 265 679 256 657 q 275 705 274 701 q 297 724 281 724 q 313 715 306 724 q 315 711 315 713 q 315 703 315 708 q 315 695 315 699 q 311 684 314 692 q 301 659 308 675 q 287 625 295 643 q 275 593 279 606 q 266 573 269 582 q 263 564 263 565 q 276 565 264 564 q 305 567 288 566 q 334 569 321 568 l 343 570 l 363 617 q 381 660 372 638 q 396 693 391 681 q 405 714 401 705 q 410 724 409 723 q 425 730 417 730 q 431 730 428 730 q 445 714 441 726 q 445 710 445 712 q 444 704 445 708 q 439 691 442 700 q 430 669 436 683 q 416 634 425 655 q 399 590 406 608 q 391 571 392 572 q 394 571 392 571 q 399 570 396 570 q 421 547 421 564 q 420 540 421 544 q 409 526 417 530 q 395 522 401 522 q 387 524 391 522 q 382 525 385 524 q 378 526 380 526 l 373 526 l 363 500 q 358 488 361 494 q 351 472 353 475 l 350 468 l 370 469 q 385 469 380 469 q 392 469 389 469 q 397 467 394 468 q 410 448 409 461 l 410 446 q 401 429 410 435 q 397 426 399 427 q 391 425 395 425 q 378 424 387 425 q 358 422 368 423 q 340 421 347 422 q 332 420 332 420 q 325 403 331 419 q 309 363 319 387 q 283 298 293 321 q 268 263 273 274 q 258 248 262 252 q 249 243 254 243 q 243 242 245 242 l 241 242 q 234 243 238 242 m 259 458 q 286 461 275 460 q 298 463 297 463 q 303 472 299 463 q 312 492 307 481 q 320 512 317 504 q 323 522 323 521 l 323 523 q 311 522 322 523 q 283 521 299 522 q 256 519 268 520 q 243 518 244 518 q 239 508 243 517 q 230 486 235 498 q 220 464 224 473 l 216 454 q 217 453 216 453 q 219 454 218 453 q 232 455 220 454 q 259 458 243 456 z "},"$":{"ha":492,"x_min":34,"x_max":458,"o":"m 226 98 q 216 108 219 102 q 214 119 214 115 q 214 125 214 123 q 220 195 216 135 l 220 201 l 214 201 q 179 205 202 201 q 134 215 155 209 q 34 286 34 245 q 43 308 34 302 q 58 314 52 314 q 71 309 65 314 q 77 302 75 307 q 79 292 79 297 q 80 289 79 290 q 84 285 81 287 q 141 260 104 272 q 210 246 178 249 l 222 245 l 223 261 q 224 264 224 262 q 225 295 224 275 q 227 338 227 315 q 232 437 231 401 q 233 482 233 473 l 233 486 q 225 490 233 486 q 207 500 218 494 q 168 525 181 515 q 146 542 155 534 q 120 581 126 560 q 117 593 117 588 q 116 608 116 597 q 120 637 116 623 q 132 668 123 650 q 229 772 164 729 l 243 781 l 243 808 q 243 821 243 816 q 243 831 243 827 q 241 843 242 838 q 239 854 239 849 q 258 877 239 874 l 260 877 q 281 860 275 877 q 283 840 281 855 q 285 810 284 825 q 286 803 285 806 l 286 800 l 290 800 q 298 802 293 801 q 324 804 309 804 q 351 802 339 804 q 437 745 407 790 q 458 682 457 716 q 458 671 458 675 q 458 665 458 667 q 456 661 457 663 q 444 649 450 650 q 438 649 439 649 q 422 658 429 649 q 419 664 420 660 q 418 676 418 667 q 417 688 418 682 q 415 698 416 694 q 349 758 399 744 q 328 760 338 760 q 298 755 313 760 l 286 752 l 286 732 q 284 691 285 722 q 283 621 283 660 q 281 555 281 583 q 280 521 280 526 l 279 509 l 286 506 q 314 485 298 498 q 342 460 330 471 q 394 376 382 420 q 396 366 395 370 q 397 357 397 362 q 397 342 397 352 q 396 317 397 326 q 389 296 395 309 q 334 233 374 259 q 302 217 321 225 q 272 208 283 210 q 268 207 270 208 q 266 205 267 206 q 265 197 266 205 q 264 178 264 189 q 261 137 262 151 q 259 118 260 123 q 256 109 258 112 q 237 96 251 96 l 234 96 q 226 98 229 96 m 237 589 q 239 669 238 634 q 241 716 241 704 l 242 727 l 236 722 q 172 647 195 690 q 163 626 165 635 q 161 608 161 618 q 162 596 161 600 q 165 589 162 593 q 192 562 172 575 q 202 555 195 559 q 217 547 210 551 q 230 539 224 543 q 235 536 235 536 l 235 552 q 237 589 236 567 m 286 258 q 349 316 336 279 q 353 333 353 325 q 353 345 353 342 q 351 361 353 355 q 311 427 345 395 q 290 447 299 439 q 279 454 281 454 q 277 443 278 454 q 276 414 277 431 q 274 369 275 397 q 271 315 273 340 q 269 273 270 290 l 268 255 q 270 254 268 254 q 286 258 274 254 z "},"%":{"ha":427,"x_min":35,"x_max":393,"o":"m 79 486 q 37 536 47 498 q 35 559 35 545 q 35 573 35 562 q 37 597 35 585 q 81 690 51 655 q 127 712 102 709 l 130 712 q 150 703 143 712 q 153 698 153 700 l 154 695 l 153 691 l 153 684 l 164 675 q 203 608 203 644 q 178 537 203 574 q 120 487 153 500 q 100 484 112 484 l 94 484 q 79 486 85 484 m 77 189 q 64 210 64 196 q 64 217 64 213 q 80 253 65 220 q 117 334 95 286 q 175 462 153 413 q 218 556 197 511 q 279 687 238 600 q 297 725 291 711 q 307 746 304 739 q 311 757 310 753 q 313 764 313 761 q 332 785 315 785 q 345 781 339 785 q 353 768 351 776 q 354 762 354 766 q 353 754 354 759 q 346 734 352 749 q 329 694 340 720 q 310 652 322 680 q 285 595 298 624 q 206 421 248 512 q 135 265 165 330 q 101 195 104 200 q 84 187 93 187 q 77 189 81 187 m 295 261 q 249 313 260 271 q 247 347 247 324 q 250 386 247 370 q 275 455 258 430 q 279 461 277 458 q 282 468 281 465 q 289 477 285 474 q 293 480 292 479 q 297 481 295 481 q 304 482 300 481 l 307 482 q 338 467 331 482 q 343 461 340 465 q 349 454 346 457 q 372 430 364 439 q 385 410 380 420 q 391 391 389 400 q 393 368 393 382 q 392 346 393 355 q 386 325 391 338 q 327 261 368 272 q 311 260 319 260 q 295 261 302 260 m 326 309 q 344 340 336 317 q 349 368 349 355 q 342 396 349 384 q 335 404 340 398 q 325 415 330 409 q 314 426 319 421 q 308 430 309 430 q 303 422 307 430 q 297 403 300 414 q 292 380 294 392 q 290 350 290 366 q 292 323 290 334 q 300 309 295 313 q 311 304 304 304 l 313 304 q 319 306 317 305 q 326 309 322 307 m 111 532 q 144 566 129 543 q 159 607 159 589 q 151 627 159 618 q 138 638 147 631 q 120 652 129 646 q 110 659 111 659 q 105 654 109 659 q 99 643 102 650 q 93 631 96 637 q 77 572 79 600 l 77 566 q 88 532 77 543 q 98 528 92 528 q 111 532 104 528 z "},"&":{"ha":559,"x_min":87,"x_max":491,"o":"m 203 90 q 157 118 174 98 q 144 138 150 126 q 136 163 139 151 q 135 186 135 173 l 135 195 q 140 228 136 214 q 237 363 164 307 q 245 411 241 387 q 186 446 208 431 q 149 477 165 460 q 87 627 87 541 q 94 684 87 654 q 166 809 109 753 q 300 884 231 873 q 317 885 308 885 l 324 885 q 349 882 338 884 q 357 922 357 915 l 357 923 q 357 926 357 925 q 359 937 357 931 q 369 949 363 945 q 379 952 374 952 l 382 951 q 395 945 390 951 q 399 936 399 940 q 399 930 399 932 q 397 911 399 923 q 393 891 396 904 q 387 867 391 879 q 400 858 395 863 q 446 739 446 817 l 446 736 q 444 712 446 726 q 440 689 442 699 q 436 675 438 678 q 420 667 431 667 q 402 680 408 667 l 399 686 l 402 704 q 404 737 404 722 q 377 819 404 791 q 337 634 359 739 q 296 433 315 530 q 314 423 309 427 q 342 388 342 406 q 338 374 342 381 q 333 367 336 370 q 324 361 330 364 q 307 352 318 357 q 279 337 291 345 q 271 285 273 307 q 254 136 261 219 q 342 187 286 146 q 387 220 368 205 q 433 261 405 235 q 452 277 444 270 q 462 284 460 283 q 470 286 466 286 q 486 279 478 286 q 491 270 490 275 q 491 264 491 265 q 488 252 491 258 q 469 233 485 248 q 434 201 454 218 q 399 173 414 184 q 250 90 302 98 q 247 57 248 73 q 245 42 246 49 q 244 34 244 36 q 236 24 241 28 q 224 20 230 20 q 202 40 205 22 q 201 47 201 42 q 204 90 201 60 l 203 90 m 338 839 q 323 840 331 840 l 315 840 q 292 837 303 840 q 213 792 252 825 q 154 720 174 760 q 132 629 132 675 q 136 589 132 610 q 237 467 151 516 q 253 457 241 464 q 280 592 267 528 q 293 648 283 604 q 316 747 304 693 q 338 839 329 800 m 227 292 q 182 212 193 253 q 180 195 180 203 q 180 182 180 186 q 180 170 180 174 q 203 138 186 147 q 208 135 206 136 q 215 200 211 165 q 227 292 220 243 z "},"'":{"ha":161,"x_min":35,"x_max":125,"o":"m 47 838 q 38 847 41 841 q 35 859 35 853 q 35 863 35 861 q 44 881 37 866 q 61 915 52 896 q 79 948 71 933 q 90 966 87 962 q 93 968 92 966 q 97 970 95 969 q 105 972 101 972 q 115 970 111 972 q 125 956 123 966 q 125 951 125 954 q 120 937 125 944 q 108 914 117 932 q 91 879 99 897 q 80 856 82 861 q 73 845 77 850 q 64 838 69 840 q 56 836 60 836 q 47 838 51 836 z "},"(":{"ha":362,"x_min":87,"x_max":294,"o":"m 260 96 q 250 103 255 98 q 238 121 245 109 q 224 142 231 133 q 209 164 218 151 q 183 199 199 177 q 158 233 170 216 q 141 257 146 250 q 120 294 131 273 q 105 329 110 315 q 87 446 87 381 q 109 602 87 516 q 191 794 136 706 q 252 867 224 846 q 266 876 261 875 q 273 877 271 877 q 282 875 278 877 q 293 864 293 869 q 294 858 294 859 q 285 841 294 848 q 262 822 272 833 q 241 793 253 812 q 158 610 189 713 q 133 446 133 519 q 146 347 133 391 q 179 281 157 315 q 195 259 184 275 q 220 225 207 243 q 245 190 233 208 q 263 164 257 173 q 274 148 269 156 q 283 135 279 139 q 290 122 288 127 q 291 115 291 118 l 291 112 q 286 103 290 108 q 278 97 282 99 q 269 96 274 96 l 266 96 q 260 96 262 96 z "},")":{"ha":382,"x_min":69,"x_max":304,"o":"m 85 58 q 71 71 76 61 q 69 80 69 75 q 70 86 69 83 q 83 110 73 95 q 97 131 86 115 q 121 168 108 147 q 173 248 155 216 q 205 312 191 279 q 259 568 257 428 l 259 585 q 251 703 259 644 q 226 817 242 772 q 208 854 218 838 q 189 876 197 871 q 178 890 179 882 l 178 894 q 184 908 178 902 q 199 916 190 916 q 233 890 214 916 q 292 728 274 838 q 304 586 304 656 q 295 463 304 524 q 226 252 279 355 q 209 220 217 234 q 184 181 201 206 q 134 105 168 156 q 118 81 124 92 q 112 71 112 71 q 108 64 112 68 q 100 58 104 60 q 92 56 96 56 q 85 58 90 56 z "},"*":{"ha":304,"x_min":68,"x_max":235,"o":"m 138 730 q 129 737 133 732 q 123 747 125 742 q 122 756 122 751 q 122 766 122 761 l 122 778 l 123 802 l 117 797 q 100 791 109 791 l 97 791 q 83 803 87 793 q 80 812 80 808 q 81 818 80 815 q 97 838 85 825 l 111 851 l 106 853 q 101 857 105 854 q 92 863 97 860 q 76 875 81 869 q 69 886 71 880 q 68 890 68 888 l 68 892 q 70 898 68 895 q 87 910 77 910 q 102 905 94 910 q 109 900 104 903 q 118 894 113 897 q 126 890 122 891 l 130 888 q 131 897 130 888 q 133 917 132 905 q 135 939 134 929 q 137 953 136 948 q 139 961 138 958 q 143 966 140 964 q 157 972 149 972 l 161 972 q 175 960 170 970 q 176 949 176 957 q 174 924 176 940 l 174 918 l 186 929 q 197 938 192 934 q 205 943 202 941 q 216 945 211 945 q 224 943 220 945 q 235 928 233 939 q 235 924 235 926 q 233 918 235 920 q 223 907 231 913 q 207 891 218 903 q 182 865 195 880 l 179 862 l 190 854 q 220 819 220 836 q 218 810 220 814 q 199 799 210 799 q 190 801 194 799 q 182 807 186 802 q 176 812 179 810 q 172 816 174 815 l 168 819 l 168 811 q 166 796 167 807 q 166 773 166 785 q 166 756 166 762 q 166 747 166 750 q 165 742 165 743 q 163 739 164 741 q 145 730 155 730 q 138 730 142 730 z "},"+":{"ha":401,"x_min":70,"x_max":331,"o":"m 189 344 q 182 349 184 346 q 178 356 180 351 q 175 368 175 362 q 177 377 175 372 q 180 395 179 380 q 183 441 182 410 l 184 461 l 176 460 q 167 459 172 460 q 144 457 153 458 q 127 455 134 456 q 116 453 121 454 q 110 453 112 453 q 106 452 107 452 q 105 451 105 452 q 104 450 104 451 l 104 450 q 102 448 104 449 q 98 446 100 447 q 88 444 94 444 q 83 444 85 444 q 72 454 75 446 q 70 463 70 458 q 71 471 70 467 q 82 486 74 481 q 94 490 85 488 q 122 495 102 492 q 178 503 141 498 l 183 503 l 184 553 q 184 590 184 574 q 184 610 184 607 q 205 630 187 630 q 217 627 212 630 q 226 613 221 623 q 231 601 231 604 q 231 597 231 598 q 227 589 231 593 q 225 585 226 587 q 225 578 225 583 q 225 564 225 573 q 225 544 225 555 q 226 526 226 533 l 227 508 l 267 508 q 300 507 290 507 q 313 506 311 507 q 323 499 318 504 q 330 490 328 495 q 331 482 331 486 q 323 466 331 473 q 309 459 317 459 q 299 461 304 459 q 293 463 297 463 q 282 464 290 463 q 260 464 275 464 l 227 465 l 227 446 q 226 406 227 429 q 224 370 225 383 q 201 342 221 342 l 197 342 q 189 344 192 342 z "},",":{"ha":238,"x_min":70,"x_max":170,"o":"m 83 231 q 74 238 78 234 q 70 248 71 243 l 70 251 q 79 269 70 260 q 102 300 90 281 q 123 334 115 319 q 127 343 125 340 q 129 349 128 346 q 129 355 129 351 q 129 362 129 359 q 126 368 128 365 q 122 378 125 372 q 117 390 118 387 q 115 399 115 394 q 123 416 116 412 q 136 421 130 421 q 146 418 140 421 q 155 406 154 414 q 157 400 156 404 q 161 391 159 395 q 170 355 170 374 q 157 310 170 332 q 135 272 149 292 q 111 240 121 252 q 99 231 105 233 q 90 229 94 229 q 83 231 87 229 z "},"-":{"ha":418,"x_min":69,"x_max":348,"o":"m 82 465 q 71 475 72 469 q 69 483 69 480 q 74 496 69 489 q 97 505 79 503 q 166 508 117 506 q 253 510 216 509 q 304 511 289 511 q 326 510 319 511 q 343 501 338 509 q 348 487 348 494 q 347 481 348 484 q 334 467 345 472 q 330 466 333 467 q 319 466 326 466 q 298 465 311 465 q 262 465 284 465 l 186 466 q 94 463 105 466 q 93 463 94 463 l 86 463 q 83 464 85 463 q 82 465 82 464 z "},"­":{"ha":418,"x_min":69,"x_max":348,"o":"m 82 465 q 71 475 72 469 q 69 483 69 480 q 74 496 69 489 q 97 505 79 503 q 166 508 117 506 q 253 510 216 509 q 304 511 289 511 q 326 510 319 511 q 343 501 338 509 q 348 487 348 494 q 347 481 348 484 q 334 467 345 472 q 330 466 333 467 q 319 466 326 466 q 298 465 311 465 q 262 465 284 465 l 186 466 q 94 463 105 466 q 93 463 94 463 l 86 463 q 83 464 85 463 q 82 465 82 464 z "},".":{"ha":204,"x_min":68,"x_max":130,"o":"m 87 327 q 71 345 77 332 q 69 353 69 349 q 68 361 68 358 l 68 368 q 71 378 69 374 q 88 389 76 389 q 97 388 92 389 q 104 386 100 387 q 109 385 107 385 q 119 379 114 383 q 127 370 124 375 q 130 355 130 362 q 120 333 130 344 q 100 323 111 323 q 87 327 94 323 z "},"/":{"ha":499,"x_min":69,"x_max":431,"o":"m 84 134 q 69 156 69 139 l 69 159 q 86 207 71 166 q 127 309 102 248 q 207 486 161 390 q 300 666 254 583 q 319 700 307 677 q 345 744 332 722 q 363 776 357 765 q 387 817 387 813 q 392 830 387 823 q 406 839 398 837 q 411 840 408 840 q 419 838 415 840 q 429 828 426 835 q 431 820 431 824 q 430 815 431 817 q 422 795 429 808 q 411 775 418 787 q 397 751 404 763 q 204 374 283 547 q 159 271 183 328 q 117 162 136 213 q 111 149 114 155 q 108 141 109 142 q 99 134 104 136 q 90 133 94 133 q 84 134 87 133 z "},":":{"ha":203,"x_min":68,"x_max":130,"o":"m 87 327 q 71 345 77 332 q 69 353 69 349 q 68 361 68 358 l 68 368 q 71 378 69 374 q 88 389 76 389 q 97 388 92 389 q 104 386 100 387 q 109 385 107 385 q 119 379 114 383 q 127 370 124 375 q 130 356 130 363 q 119 333 130 344 q 100 323 110 323 q 87 327 94 323 m 87 543 q 71 562 77 549 q 69 570 69 565 q 68 578 68 575 l 68 585 q 71 594 69 591 q 88 606 76 606 q 97 604 92 606 q 104 603 100 604 q 109 602 107 602 q 119 596 114 600 q 127 586 124 591 q 130 572 130 579 q 119 549 130 560 q 100 540 110 540 q 87 543 94 540 z "},";":{"ha":237,"x_min":70,"x_max":170,"o":"m 83 231 q 74 238 78 234 q 70 248 71 243 l 70 251 q 79 269 70 260 q 102 300 90 281 q 123 334 115 319 q 127 343 125 340 q 129 349 128 346 q 129 355 129 351 q 129 362 129 359 q 126 368 128 365 q 122 378 125 372 q 116 390 117 387 q 115 399 115 394 q 122 416 115 412 q 135 421 130 421 q 145 418 140 421 q 155 406 153 414 q 157 400 155 404 q 161 391 159 395 q 170 355 170 374 q 157 310 170 332 q 135 272 148 292 q 111 240 121 252 q 99 231 105 233 q 90 229 94 229 q 83 231 86 229 m 119 543 q 103 561 109 548 q 102 569 102 564 q 102 577 102 574 l 102 584 q 104 594 102 591 q 121 605 109 605 q 130 604 125 605 q 137 602 133 603 q 142 601 140 602 q 152 595 146 600 q 159 586 157 591 q 163 572 163 578 q 153 549 163 560 q 132 540 143 540 q 119 543 126 540 z "},"<":{"ha":350,"x_min":68,"x_max":281,"o":"m 251 321 q 244 325 249 322 q 233 332 239 328 q 153 376 207 349 q 82 420 102 401 q 71 433 75 428 q 68 446 68 439 q 71 457 68 452 q 82 471 74 462 q 92 481 86 475 q 103 494 98 488 q 118 512 108 500 q 140 539 128 525 q 144 543 142 541 q 169 573 159 561 q 185 593 179 585 q 195 605 191 600 q 199 611 198 609 q 200 613 200 612 q 203 623 200 618 q 216 637 207 628 q 227 647 223 644 q 234 651 231 650 q 241 652 237 652 q 257 644 251 652 q 260 639 259 642 q 260 633 260 637 q 259 624 260 628 q 252 611 257 619 q 234 588 246 603 q 210 556 227 578 q 173 510 193 534 q 139 468 153 486 q 123 449 125 450 q 122 448 123 449 q 122 447 122 448 q 178 414 122 442 q 224 390 206 399 q 258 369 242 380 q 274 357 270 361 q 280 348 279 353 q 281 342 281 345 q 278 333 281 338 q 267 322 275 326 q 260 320 262 320 q 257 320 258 320 q 251 321 254 320 z "},"=":{"ha":380,"x_min":69,"x_max":313,"o":"m 88 401 q 77 418 77 408 q 78 426 77 422 q 89 437 81 435 q 137 442 96 439 q 234 448 178 445 q 277 449 263 449 q 296 447 291 448 q 312 425 313 440 q 295 404 312 410 q 290 403 293 403 q 281 404 286 403 q 244 404 274 404 q 176 402 214 404 q 104 399 138 401 l 94 399 q 88 401 91 399 m 81 523 q 69 540 69 529 l 69 542 q 84 559 70 554 q 94 561 87 560 q 111 562 102 562 q 137 565 119 563 q 172 568 154 566 q 259 574 237 574 q 268 573 265 574 q 293 549 292 569 q 285 532 292 537 q 271 526 278 526 q 264 528 268 526 q 247 529 261 529 q 174 526 224 529 q 94 522 115 522 q 81 523 83 522 z "},">":{"ha":302,"x_min":73,"x_max":233,"o":"m 125 335 q 112 357 112 342 l 112 359 q 164 463 112 374 q 180 491 175 481 q 187 504 186 500 q 189 509 189 508 l 189 510 q 149 548 184 519 q 130 565 140 556 q 114 579 120 574 q 103 589 106 587 q 98 592 99 592 q 81 602 89 592 q 73 618 73 610 q 77 630 73 624 q 87 637 81 636 q 96 639 93 639 q 107 637 101 639 q 144 607 115 634 q 160 594 151 602 q 178 579 170 586 q 233 512 233 538 l 233 507 q 229 488 233 498 q 208 449 223 474 q 172 385 186 413 q 157 354 157 357 q 153 343 157 349 q 144 335 149 338 q 137 334 141 334 l 134 334 q 125 335 128 334 z "},"?":{"ha":464,"x_min":68,"x_max":388,"o":"m 202 193 q 191 214 191 200 l 191 218 q 200 240 192 233 q 216 248 208 248 q 222 247 220 248 q 237 235 233 243 q 241 221 241 227 q 239 211 241 216 q 232 201 237 206 q 222 193 227 195 q 212 191 218 191 q 202 193 206 191 m 219 300 q 208 323 208 307 q 210 337 208 329 q 222 387 215 361 q 236 430 229 413 q 257 473 245 452 q 287 519 269 494 q 323 576 312 554 q 340 624 334 599 q 342 660 342 638 q 340 693 342 682 q 301 735 332 728 q 286 736 295 736 l 280 736 q 257 734 267 736 q 146 663 201 720 q 109 595 109 621 q 111 585 109 590 q 113 581 112 582 q 117 580 114 580 q 126 577 121 580 q 134 570 132 574 q 137 562 137 567 l 137 559 q 134 549 137 553 q 124 541 131 544 q 111 538 118 538 q 81 556 94 538 q 68 597 68 574 q 134 711 68 645 q 281 782 207 782 q 378 723 353 781 q 388 662 388 695 q 381 605 388 635 q 362 554 375 579 q 323 493 349 529 q 303 464 311 475 q 289 439 296 452 q 269 388 276 412 q 264 369 267 382 q 257 341 260 355 q 252 319 254 327 q 241 302 249 307 q 231 298 237 298 q 219 300 224 298 z "},"@":{"ha":500,"x_min":68,"x_max":426,"o":"m 178 252 q 84 351 115 271 q 76 376 80 361 q 71 406 73 392 q 68 454 68 426 q 71 503 68 484 q 115 629 82 576 q 197 707 149 682 q 257 722 227 722 q 363 673 312 722 q 426 528 426 612 q 425 511 426 519 q 404 419 420 458 q 366 372 389 384 q 356 369 359 370 q 345 368 353 368 q 335 368 338 368 q 328 371 332 369 q 286 426 302 382 q 278 451 282 436 q 273 474 275 465 l 273 480 l 257 450 q 222 390 237 410 q 193 363 208 370 q 178 359 185 359 q 155 370 166 359 q 137 403 143 380 q 136 412 136 408 q 135 422 135 416 q 134 439 134 429 q 135 463 134 456 q 138 479 136 471 q 181 569 149 531 q 208 592 192 582 q 239 607 224 603 q 256 609 248 609 q 293 594 278 609 q 297 589 294 591 q 302 583 300 586 l 303 582 q 308 576 306 579 q 310 571 310 574 q 312 559 311 569 q 313 536 313 549 q 315 501 313 514 q 319 473 316 488 q 341 416 328 433 q 344 413 343 414 q 346 412 345 412 q 349 414 347 412 q 365 440 357 420 q 378 490 373 461 q 380 517 380 505 q 380 533 380 529 q 379 555 380 546 q 350 621 372 590 q 295 668 327 652 q 276 675 284 673 q 258 677 268 677 q 238 675 247 677 q 218 667 229 673 q 126 546 156 637 q 113 454 113 505 l 113 445 q 157 315 115 357 q 201 294 177 294 q 277 334 237 294 q 288 344 282 339 q 296 353 293 349 q 318 363 308 363 q 333 356 326 363 q 340 341 340 349 q 339 336 340 338 q 334 328 338 332 q 319 312 330 323 q 282 280 297 291 q 251 261 268 269 q 228 253 239 256 q 203 250 217 250 q 188 250 193 250 q 178 252 183 250 m 199 437 q 227 488 212 458 q 250 540 241 518 q 259 567 259 562 l 259 568 q 256 568 258 568 q 243 564 251 568 q 222 551 232 559 q 182 475 193 523 q 180 461 180 469 q 180 441 180 454 q 180 424 180 431 q 180 414 180 416 l 182 410 l 186 417 q 192 426 189 420 q 199 437 196 432 z "},"A":{"ha":671,"x_min":34,"x_max":637,"o":"m 550 24 q 534 45 537 29 q 529 97 532 50 q 520 208 525 144 q 511 322 515 271 q 497 591 503 437 q 496 618 496 607 q 495 630 495 629 q 476 633 493 631 q 440 635 460 634 l 424 635 q 393 634 408 635 q 340 629 370 633 q 313 624 328 627 q 285 620 297 622 q 270 617 273 618 q 259 590 268 616 q 198 233 198 404 q 199 205 198 219 q 208 122 201 129 q 212 116 210 119 q 213 109 213 113 q 205 91 213 96 q 191 85 197 85 q 179 88 185 85 q 171 99 174 92 q 165 123 168 106 q 155 252 155 178 l 155 271 q 159 345 156 311 q 171 422 163 379 q 190 513 178 466 q 214 595 202 561 q 216 604 216 600 q 217 608 217 607 l 214 608 q 205 606 210 607 q 171 601 185 602 q 138 600 156 600 q 106 601 118 600 q 83 608 94 603 q 39 646 52 621 q 35 655 35 652 q 34 666 34 659 q 35 677 34 673 q 38 685 35 680 q 58 703 46 703 q 66 701 62 703 q 78 683 78 695 q 77 674 78 679 q 75 669 75 671 q 75 667 75 668 l 75 665 q 75 663 75 664 q 104 644 82 652 q 132 642 113 642 q 171 645 151 642 q 198 650 183 647 q 223 654 212 652 q 235 657 234 656 q 238 664 236 658 q 244 678 241 670 q 379 905 309 829 q 444 947 414 941 q 453 948 450 948 q 457 948 456 948 q 463 947 460 948 q 519 880 505 941 q 530 820 526 857 q 536 722 534 783 q 538 690 537 704 q 539 673 539 676 l 541 667 l 556 663 q 597 650 577 658 q 626 637 618 642 q 634 628 631 633 q 637 616 637 622 l 637 614 q 625 598 635 604 q 615 595 621 595 q 604 598 610 595 q 583 608 597 602 q 555 617 568 613 l 541 621 l 541 606 q 543 585 542 600 q 543 555 543 570 q 551 399 546 477 q 566 186 555 321 q 574 87 571 125 q 576 64 576 70 q 576 49 576 55 l 576 43 q 572 32 576 37 q 564 25 569 27 q 556 24 559 24 q 550 24 553 24 m 325 671 q 378 678 358 677 q 428 680 398 680 q 479 678 464 680 q 488 677 484 677 q 493 677 492 677 q 494 682 494 677 q 493 694 494 686 q 491 734 492 711 q 488 779 490 757 q 485 816 486 802 q 454 903 475 903 q 441 898 450 903 q 424 886 432 893 q 343 777 387 854 q 317 728 333 760 q 293 678 301 696 l 288 666 l 294 667 q 305 669 296 667 q 323 671 313 670 l 325 671 z "},"B":{"ha":594,"x_min":39,"x_max":526,"o":"m 287 66 q 238 90 259 71 q 210 137 218 109 q 208 159 208 148 q 216 206 208 181 q 256 278 228 245 q 309 320 278 305 q 395 345 340 336 q 418 350 407 347 q 444 359 429 353 q 476 368 473 368 l 481 367 l 481 380 q 481 395 481 387 q 481 412 481 404 q 472 458 479 440 q 453 490 466 476 q 403 511 433 511 q 350 498 380 511 q 323 489 330 490 q 314 488 317 488 q 304 490 309 488 q 300 492 301 492 q 299 490 299 492 q 295 475 299 488 q 287 447 292 462 q 279 422 282 432 q 182 286 238 316 q 147 277 164 277 q 91 304 117 277 q 49 388 59 339 q 39 477 39 437 q 43 543 39 509 q 174 834 67 724 q 248 889 210 871 q 282 903 267 899 q 317 907 298 907 q 333 906 327 907 q 345 904 338 905 q 365 897 354 901 q 384 886 376 892 q 409 865 397 878 q 428 837 420 851 q 441 773 441 809 q 433 712 441 745 q 372 569 416 645 q 365 557 368 562 l 362 551 l 364 551 q 369 553 366 552 q 402 557 386 557 q 479 527 446 557 q 526 393 526 488 q 429 137 526 250 q 307 65 368 68 q 296 65 301 65 q 287 66 290 65 m 161 326 q 198 362 178 334 q 233 429 218 391 q 275 654 275 541 q 274 684 275 669 q 273 700 273 694 q 272 708 273 705 q 270 714 271 711 q 267 725 267 720 q 269 733 267 729 q 279 743 273 742 q 287 744 285 744 q 301 738 295 744 q 308 728 306 734 q 313 712 311 722 q 316 665 316 688 q 317 635 317 643 q 315 584 317 607 q 314 578 314 581 q 313 564 313 569 l 312 557 l 319 568 q 384 701 360 633 q 397 772 397 741 q 392 806 397 791 q 376 833 387 821 q 351 854 366 846 q 317 863 335 863 q 285 857 301 863 q 201 799 244 844 q 100 608 132 726 q 85 517 86 550 q 84 479 84 485 q 95 390 84 429 q 136 325 111 339 q 148 323 141 323 q 161 326 155 323 m 315 111 q 339 120 326 114 q 362 135 353 127 q 389 160 374 144 q 414 189 404 176 q 463 280 446 231 q 468 298 465 289 q 472 312 471 307 q 473 319 473 317 l 473 320 q 468 319 472 320 q 458 316 465 318 q 431 307 442 310 q 401 300 419 304 q 319 275 346 290 q 299 258 311 270 q 280 237 288 247 q 267 214 273 227 q 257 189 260 201 q 254 177 255 182 q 254 161 254 172 q 254 150 254 154 q 255 144 254 146 q 257 138 256 142 q 261 132 258 136 q 267 125 264 128 q 301 110 280 110 q 315 111 308 110 z "},"C":{"ha":509,"x_min":43,"x_max":532,"o":"m 199 70 q 189 72 195 71 q 178 75 183 74 q 56 231 85 109 q 43 356 43 289 q 48 448 43 399 q 127 707 66 583 q 244 866 180 810 q 336 904 290 904 q 388 891 361 904 q 446 834 427 871 q 455 807 452 820 q 459 775 458 793 l 459 766 q 458 743 459 753 q 450 710 456 728 q 412 623 438 668 q 365 560 386 578 q 353 552 357 554 q 340 551 348 551 q 332 551 335 551 q 325 554 329 552 q 311 574 311 563 q 313 581 311 577 q 321 590 315 587 q 332 593 326 593 q 336 593 334 593 q 338 592 338 592 q 341 593 340 592 q 345 597 342 594 q 368 631 355 608 q 392 677 381 654 q 409 723 404 703 q 414 764 414 743 l 414 776 q 413 793 414 786 q 406 814 411 803 q 357 855 391 844 q 347 858 351 857 q 336 859 342 859 l 332 859 q 256 815 298 859 q 162 677 203 761 q 102 498 122 594 q 91 430 94 461 q 88 359 88 399 l 88 347 q 106 216 88 267 q 154 140 123 168 q 222 113 185 113 q 307 153 263 113 q 358 203 327 170 q 412 266 389 237 q 482 369 448 311 q 491 382 488 378 q 496 389 494 387 q 510 393 503 393 q 517 392 513 393 q 531 377 527 389 q 532 374 532 376 q 530 366 532 370 q 521 347 528 360 q 499 311 514 334 q 454 245 477 276 q 394 176 430 215 q 245 70 306 78 q 222 68 235 68 q 199 70 210 68 z "},"D":{"ha":808,"x_min":68,"x_max":836,"o":"m 189 50 q 90 174 127 64 q 68 326 68 247 q 119 576 68 444 q 245 781 166 690 q 408 906 324 871 q 498 923 454 923 q 587 904 545 923 q 642 857 619 888 q 689 747 671 818 q 711 556 711 650 q 703 437 711 496 q 692 387 699 413 q 682 349 686 360 l 682 347 q 684 347 682 347 q 702 352 688 347 q 730 363 715 357 q 754 376 745 370 q 764 384 757 378 q 780 397 772 389 q 801 413 794 409 q 814 418 808 418 q 829 411 823 418 q 836 395 836 405 q 831 383 836 389 q 813 366 826 377 q 779 338 792 347 q 742 319 765 329 q 708 306 724 311 q 675 300 693 302 l 664 298 l 661 290 q 514 88 602 145 q 452 61 482 66 q 435 60 445 60 l 429 60 q 408 63 416 60 q 355 97 378 73 q 330 156 332 122 l 330 170 l 325 159 q 273 80 304 110 q 205 49 239 49 q 189 50 197 49 m 359 252 q 441 321 389 294 q 512 342 469 336 q 533 343 518 342 q 578 343 549 343 l 633 342 l 638 360 q 663 480 656 419 q 666 557 666 518 q 659 665 666 610 q 618 812 646 758 q 528 876 587 867 q 498 878 513 878 q 397 852 445 878 l 389 848 l 391 841 q 398 775 397 814 q 398 727 398 736 q 394 591 398 665 q 356 257 381 359 l 356 256 q 354 249 355 252 q 354 245 354 247 l 354 245 l 356 248 q 359 252 357 250 m 452 107 q 573 215 517 130 q 589 242 580 226 q 605 273 597 258 q 614 294 612 288 q 614 296 614 295 q 613 297 614 296 q 610 297 612 297 q 605 297 608 297 q 595 298 601 298 q 580 298 589 298 l 561 298 q 498 294 521 298 q 412 245 451 284 q 393 222 400 233 q 381 196 386 211 q 377 185 378 189 q 376 177 376 181 q 376 164 376 172 q 376 152 376 156 q 377 145 376 148 q 380 139 378 142 q 397 120 385 129 q 420 106 408 111 q 431 105 425 105 l 436 105 q 452 107 445 105 m 218 96 q 231 103 225 99 q 245 115 237 108 q 331 374 306 178 q 352 638 342 461 q 354 690 353 665 q 355 750 355 714 l 355 812 l 352 815 q 350 817 351 816 q 348 817 349 817 q 339 811 347 817 q 321 794 332 804 q 301 774 311 785 q 182 608 229 701 q 124 443 136 515 q 113 325 113 370 q 121 234 113 277 q 148 150 131 186 q 185 100 165 113 q 205 94 195 94 q 218 96 212 94 z "},"E":{"ha":465,"x_min":52,"x_max":465,"o":"m 180 87 q 134 114 152 94 q 121 134 127 122 q 112 158 115 146 q 110 183 110 169 l 110 191 q 114 224 111 210 q 240 383 143 324 l 253 390 l 219 407 q 157 442 179 427 q 117 473 135 456 q 52 629 52 538 q 56 679 52 653 q 126 806 70 749 q 259 884 190 871 q 280 886 269 886 l 288 886 q 316 882 304 885 q 339 873 326 880 q 359 861 351 867 q 395 810 382 842 q 408 741 408 778 q 406 716 408 730 q 403 692 405 703 q 400 679 401 682 q 383 671 394 671 q 366 682 371 671 l 362 688 l 365 707 q 366 735 366 722 q 355 796 366 770 q 303 839 338 831 q 283 841 294 841 l 278 841 q 252 837 264 840 q 174 790 212 824 q 116 716 136 757 q 97 630 97 674 q 102 585 97 608 q 205 465 119 512 q 221 457 210 463 q 245 444 232 451 q 268 432 257 438 q 283 424 279 427 q 313 388 313 407 q 309 375 313 382 q 304 368 307 371 q 295 361 301 365 q 277 352 289 357 q 211 304 237 332 q 157 209 168 258 q 155 187 155 200 q 156 166 155 174 q 180 135 162 144 q 188 132 184 133 q 199 131 192 131 l 203 131 q 248 142 224 131 q 318 188 276 156 q 361 222 343 207 q 407 264 379 237 q 425 280 417 273 q 435 288 433 287 q 443 290 439 290 q 458 283 451 290 q 464 274 464 279 q 465 269 465 270 q 462 256 465 262 q 444 237 459 252 q 409 204 429 222 q 375 175 390 187 q 224 87 277 96 q 202 85 214 85 q 180 87 190 85 z "},"F":{"ha":489,"x_min":39,"x_max":625,"o":"m 189 75 q 161 100 172 82 q 123 298 134 142 q 121 326 122 306 q 121 368 121 346 l 120 421 l 116 422 q 112 422 115 422 l 102 424 q 47 462 47 433 q 56 476 50 473 q 66 479 62 479 q 78 475 72 479 q 82 472 80 474 q 86 470 85 471 q 97 466 89 468 q 115 463 105 465 l 122 463 l 123 485 q 131 559 126 519 q 140 633 135 600 l 142 648 l 128 669 q 106 700 121 679 q 79 741 92 722 q 64 764 66 760 q 61 766 63 765 q 56 769 59 768 q 48 774 51 770 q 41 787 45 779 q 39 797 39 793 q 52 814 39 808 q 66 820 60 820 q 72 819 69 820 q 78 818 75 818 q 90 819 82 818 q 112 821 98 819 q 141 823 126 822 q 164 825 156 825 l 182 827 l 189 848 q 202 884 196 873 q 216 897 208 895 q 224 898 220 898 q 236 894 231 898 q 245 875 245 888 q 237 858 245 864 q 233 853 235 856 q 230 844 231 850 q 229 842 229 842 q 227 834 227 836 q 227 832 227 833 q 228 830 227 831 l 234 830 q 436 838 275 834 q 505 840 471 839 q 559 842 540 841 q 592 843 581 842 q 608 842 603 843 q 616 838 612 840 q 622 829 619 835 q 625 820 625 824 q 623 812 625 817 q 618 804 621 807 q 610 799 616 800 q 591 798 604 798 q 570 797 583 798 q 544 796 557 797 q 506 795 530 795 q 458 793 482 794 q 313 789 380 791 q 223 785 246 787 l 214 785 l 210 767 q 201 723 206 747 q 193 680 197 699 l 190 660 l 201 644 q 262 538 240 590 q 274 505 267 525 q 285 471 281 485 l 287 465 l 339 464 q 372 463 359 463 q 390 463 384 463 q 400 460 397 462 q 407 456 404 459 q 414 446 413 452 q 416 437 416 440 q 414 428 416 432 q 407 420 412 424 q 399 415 403 416 q 392 414 395 414 l 389 414 q 380 417 383 415 q 375 418 379 418 q 363 419 372 418 q 337 419 354 419 l 296 419 l 297 412 q 302 337 302 374 q 300 300 302 319 q 267 137 292 197 q 203 74 241 77 l 199 74 q 189 75 193 74 m 163 751 q 168 773 166 764 q 170 782 170 781 q 160 782 169 782 q 139 781 151 781 q 119 779 127 780 q 109 778 110 779 q 115 768 109 777 q 131 744 121 758 l 153 710 l 156 721 q 163 751 159 732 m 239 463 l 239 464 q 237 473 239 466 q 230 496 234 484 q 221 518 225 509 q 206 551 215 532 q 189 583 197 570 q 183 590 185 588 q 181 593 182 593 q 180 593 181 593 l 180 592 q 177 567 179 589 q 172 520 174 546 q 168 477 170 494 l 168 461 l 203 462 q 229 462 218 462 q 239 463 239 463 m 209 125 q 222 147 214 132 q 234 177 229 162 q 254 286 247 219 q 256 315 256 298 q 256 344 256 332 l 256 366 q 254 399 255 388 q 252 411 253 406 q 250 416 251 416 q 237 417 250 417 q 208 418 225 418 l 165 419 l 165 368 q 167 310 166 331 q 171 260 168 288 q 184 169 176 207 q 200 122 192 132 q 201 120 201 121 q 203 119 202 119 q 205 121 203 119 q 209 125 207 123 z "},"G":{"ha":562,"x_min":55,"x_max":579,"o":"m 203 69 q 163 108 173 77 q 160 116 161 113 q 159 124 159 119 q 159 140 159 130 l 159 159 q 161 172 160 166 q 242 282 180 251 q 356 307 288 302 l 370 308 l 371 313 q 380 354 374 324 q 390 412 386 384 q 398 478 395 446 q 400 526 400 510 q 399 539 400 534 l 399 549 l 389 526 q 322 405 359 456 q 233 327 284 352 q 212 319 220 321 q 191 317 203 317 q 168 319 177 317 q 149 327 159 321 q 119 349 134 335 q 94 378 104 363 q 55 524 55 441 q 66 619 55 569 q 180 833 99 747 q 298 902 233 887 q 327 904 309 904 q 357 902 345 905 q 471 821 437 884 q 484 786 481 801 q 486 764 486 770 q 484 749 486 755 q 467 736 478 736 q 446 760 446 739 q 435 800 446 776 q 428 812 431 808 q 416 825 425 817 q 360 857 395 848 q 349 859 355 858 q 330 859 343 859 q 314 859 319 859 q 306 858 309 859 q 297 856 302 857 q 211 800 251 842 q 115 626 145 732 q 100 528 100 575 q 101 505 100 516 q 155 377 108 416 q 191 361 172 361 q 220 371 205 361 q 273 414 250 388 q 351 551 313 462 q 370 593 363 578 q 383 614 377 608 q 395 623 389 621 q 406 626 401 626 q 420 622 414 626 q 437 600 431 616 q 445 530 445 576 q 444 492 445 513 q 422 334 439 419 q 419 320 420 326 q 418 314 418 315 l 418 313 q 425 315 419 313 q 438 319 431 317 q 450 324 446 322 q 472 339 459 329 q 496 359 485 349 q 508 372 500 363 q 524 389 516 380 q 544 408 537 404 q 556 413 550 413 l 557 413 q 574 405 570 412 q 579 391 579 397 q 578 382 579 387 q 575 378 577 380 q 570 372 572 375 q 561 362 567 369 q 548 349 555 356 q 482 291 517 314 q 413 267 454 273 l 404 264 l 400 253 q 273 79 352 121 q 251 71 262 73 q 227 68 241 68 l 213 68 q 203 69 208 68 m 246 116 q 336 217 295 137 q 346 236 341 227 q 352 253 350 246 q 355 261 355 260 l 355 262 l 353 262 q 341 261 349 262 q 313 256 328 259 q 286 250 298 254 q 217 195 236 238 q 204 144 204 170 l 204 136 q 208 116 204 120 q 220 113 212 113 l 227 113 q 246 116 239 113 z "},"H":{"ha":668,"x_min":39,"x_max":694,"o":"m 473 72 q 465 80 467 75 l 462 86 l 460 251 q 459 367 460 320 q 458 416 459 414 l 456 415 q 448 412 452 414 q 380 395 416 399 q 356 393 368 393 q 319 391 344 392 q 273 389 294 390 q 248 387 253 387 q 246 385 247 387 q 245 380 245 384 q 243 368 244 376 q 216 259 233 308 q 201 228 210 245 q 185 199 193 211 q 137 153 159 161 q 104 144 115 144 q 71 156 86 144 q 50 182 57 165 q 39 239 39 208 q 41 267 39 252 q 74 357 47 315 q 192 425 107 412 q 200 426 197 425 q 204 427 203 427 q 205 429 205 428 q 207 442 206 431 q 209 468 208 453 q 211 495 210 482 q 216 612 214 536 q 218 748 218 688 q 217 785 218 772 q 217 803 217 798 q 216 810 216 808 q 214 818 214 814 q 216 827 214 823 q 235 840 223 840 l 237 840 q 256 823 250 839 q 260 665 260 803 q 252 446 260 517 q 252 437 252 440 q 252 433 252 433 q 257 433 252 433 q 269 433 262 433 q 290 435 275 434 q 319 436 304 435 q 365 438 349 437 q 395 443 380 440 q 422 450 408 446 q 448 460 437 455 q 459 467 459 465 q 460 489 459 472 q 461 525 460 507 q 463 553 463 544 q 522 823 474 734 q 573 887 548 872 q 616 903 597 903 q 642 897 629 903 q 687 838 675 881 q 694 783 694 812 q 683 700 694 745 q 646 603 672 654 q 568 490 613 535 q 543 468 555 477 q 517 448 532 458 l 504 439 l 505 298 q 506 186 505 237 q 506 121 506 136 l 506 87 l 503 81 q 484 69 497 69 q 473 72 477 69 m 517 504 q 629 677 590 568 q 648 775 646 726 q 648 792 648 785 q 648 806 648 800 q 643 829 646 819 q 616 857 633 857 q 605 854 611 857 q 554 788 578 839 q 514 619 526 724 q 509 568 511 596 q 507 523 507 539 q 506 501 506 507 l 506 496 q 510 498 507 496 q 517 504 513 500 m 118 194 q 125 199 121 195 q 133 206 130 202 q 191 334 170 243 q 196 364 195 353 q 198 378 198 375 l 198 379 l 197 379 q 191 378 195 379 q 176 375 184 377 q 161 370 168 373 q 126 350 140 363 q 92 291 104 328 q 84 253 84 266 q 84 237 84 239 q 90 201 84 215 q 104 189 95 189 q 118 194 111 189 z "},"I":{"ha":311,"x_min":37,"x_max":337,"o":"m 58 123 q 48 125 51 123 q 42 131 45 127 q 37 144 37 138 q 37 151 37 148 q 54 165 41 161 q 113 178 67 171 l 140 182 l 140 191 q 140 232 140 201 q 141 294 140 262 q 172 657 151 509 q 186 737 178 693 q 199 802 194 781 l 201 806 l 193 806 q 183 805 189 805 q 172 804 178 804 q 161 803 165 804 q 154 800 157 802 q 142 797 149 797 q 136 798 139 797 q 120 807 126 800 q 117 814 117 811 q 117 819 117 818 q 118 827 117 824 q 127 837 121 833 q 144 842 133 840 q 207 848 168 846 q 280 851 246 850 q 321 848 313 851 q 337 827 337 840 q 334 814 337 821 q 320 802 328 804 q 308 800 312 800 q 296 804 301 800 q 290 806 294 806 q 282 807 287 807 q 271 808 277 808 q 260 807 267 808 l 245 807 l 242 800 q 236 779 239 794 q 228 731 233 764 q 188 327 199 558 q 185 255 186 286 q 184 210 184 223 l 184 199 l 185 186 l 192 186 q 220 189 207 188 q 238 189 233 189 q 247 189 244 189 q 262 178 258 185 q 265 166 265 171 q 262 155 265 161 q 256 149 260 151 q 245 145 253 146 q 222 144 237 144 q 177 142 198 143 q 130 138 156 140 q 106 135 115 136 q 93 133 98 134 q 86 131 89 132 q 82 127 84 130 q 74 122 77 123 q 68 121 70 121 q 58 123 64 121 z "},"J":{"ha":458,"x_min":36,"x_max":609,"o":"m 127 62 q 123 62 125 62 q 117 64 120 63 q 62 103 84 71 q 42 158 47 126 q 36 214 36 189 q 37 239 36 227 q 56 306 41 275 q 141 387 83 359 q 300 425 205 417 q 306 426 303 426 q 315 427 312 426 q 318 430 317 427 q 319 437 319 432 q 320 441 320 439 q 345 657 332 514 q 347 674 347 665 q 350 702 349 689 q 352 724 351 715 q 357 787 355 755 q 361 836 360 819 q 361 859 361 854 l 361 862 q 355 863 361 863 q 340 862 351 863 q 296 860 321 861 q 250 858 270 859 q 199 854 224 857 q 161 850 174 852 q 155 849 157 849 q 152 849 153 849 q 146 851 150 850 q 135 869 135 857 q 145 886 135 881 q 184 894 153 890 q 259 901 216 898 q 509 911 369 911 q 557 911 540 911 q 583 910 574 911 q 595 908 591 909 q 601 903 598 906 q 609 886 609 896 q 608 882 609 884 q 592 864 606 869 q 588 863 589 863 q 585 863 587 863 l 583 863 q 578 865 582 863 q 572 866 576 865 q 560 866 568 866 q 535 866 551 866 q 492 866 519 866 q 434 865 458 865 q 408 864 411 865 l 404 863 l 403 838 q 389 644 399 756 q 368 452 379 532 q 366 438 366 444 l 365 432 l 370 432 q 379 433 373 433 q 401 439 388 435 q 438 452 415 443 q 455 455 448 455 q 465 453 460 455 q 477 441 475 448 q 479 431 479 434 q 475 418 479 424 q 456 408 469 409 q 433 402 450 408 q 404 393 416 396 q 375 387 392 390 l 356 385 l 352 365 q 235 109 316 185 q 223 98 229 104 q 212 88 216 92 q 188 74 201 81 q 163 64 174 67 q 151 62 158 63 q 138 62 143 62 q 131 62 133 62 l 127 62 m 149 107 q 168 115 157 109 q 187 126 178 120 q 244 192 218 151 q 293 310 273 238 q 299 335 296 320 q 306 364 303 351 q 309 379 309 377 q 308 381 309 380 q 305 381 307 381 q 295 380 302 380 q 283 378 290 379 q 161 347 212 370 q 81 214 81 310 l 81 205 q 98 130 84 156 q 138 106 113 106 q 149 107 143 106 z "},"K":{"ha":471,"x_min":35,"x_max":496,"o":"m 49 121 q 41 127 45 123 q 35 137 37 132 l 35 146 q 39 258 35 172 q 40 290 39 265 q 41 348 40 315 q 46 543 42 461 q 62 749 51 624 q 63 781 62 766 q 64 802 64 796 q 67 824 64 818 q 79 833 71 831 q 85 835 82 835 q 94 833 90 835 q 104 819 101 829 q 106 804 106 816 q 104 773 106 793 q 102 722 104 758 q 97 647 100 687 q 94 577 95 607 q 92 544 92 548 l 92 536 l 102 536 q 111 535 107 536 q 119 532 115 534 q 127 527 123 530 q 134 522 132 524 l 141 516 l 150 520 q 222 571 178 534 q 311 660 252 597 q 408 768 370 722 q 452 831 446 812 q 467 851 458 847 q 476 852 472 852 q 485 850 481 852 q 495 840 493 846 q 496 832 496 835 q 492 821 496 826 q 490 816 491 819 q 488 810 488 813 q 382 672 473 774 q 173 481 247 519 l 162 476 l 171 451 q 191 398 182 418 q 210 361 199 378 q 267 304 238 315 q 290 301 276 301 q 317 304 304 301 q 377 339 351 313 q 413 380 390 352 q 449 426 436 408 q 458 435 454 432 q 468 439 463 439 l 470 439 q 487 432 480 439 q 492 417 492 425 q 492 412 492 415 q 461 368 490 404 q 396 296 421 317 q 340 265 370 274 q 290 256 313 256 q 251 262 269 256 q 155 370 197 282 q 143 396 148 384 q 130 432 138 409 q 123 451 126 444 q 120 460 120 459 q 116 460 119 460 q 109 460 113 460 q 100 459 104 459 q 94 459 96 459 l 89 460 l 87 444 q 87 409 87 435 q 85 350 86 382 q 80 157 84 258 q 79 144 79 149 q 78 136 79 139 q 76 131 77 134 q 66 121 72 123 q 56 119 60 119 q 49 121 53 119 z "},"L":{"ha":448,"x_min":34,"x_max":583,"o":"m 51 137 q 40 147 45 140 q 34 162 35 154 q 47 183 35 175 q 125 212 70 198 q 135 215 131 214 q 140 216 138 216 q 142 218 142 217 l 143 218 l 142 219 q 141 231 141 224 q 142 243 141 237 q 208 391 151 272 q 340 721 321 627 q 343 748 342 737 q 344 764 344 760 q 342 778 344 773 q 336 788 340 785 q 333 790 334 789 q 330 791 332 791 q 323 791 328 791 q 274 761 301 788 q 230 697 246 734 q 221 670 224 683 q 218 651 218 658 q 219 644 218 647 q 220 641 219 642 q 222 640 220 640 q 227 640 223 640 q 233 639 231 640 q 238 636 235 638 q 246 621 246 629 q 243 610 246 616 q 214 595 234 595 q 185 615 196 595 q 180 631 181 624 q 178 648 178 639 l 178 655 q 179 672 178 667 q 182 687 180 678 q 256 805 201 758 q 322 836 291 835 l 328 836 q 369 819 353 836 q 389 760 389 800 q 378 688 389 729 q 333 558 364 635 q 238 349 301 481 q 200 267 216 302 q 184 227 184 231 q 185 227 184 227 q 186 227 185 227 l 188 227 q 192 227 189 227 q 200 228 195 227 q 211 231 204 229 q 411 255 309 248 q 480 257 439 256 q 538 256 521 257 q 563 253 555 255 q 575 245 570 251 q 583 229 583 238 l 583 226 q 570 209 581 214 q 560 206 566 206 q 549 209 555 206 q 544 210 547 210 q 536 211 542 211 q 520 212 531 212 q 490 212 509 212 q 446 211 467 212 q 413 210 424 210 q 222 188 320 203 q 84 157 124 172 q 78 154 79 155 q 75 150 76 153 q 71 142 75 146 q 62 137 66 138 q 59 136 60 136 q 56 136 58 136 l 55 136 q 51 137 54 136 z "},"M":{"ha":871,"x_min":36,"x_max":819,"o":"m 177 111 q 169 118 173 113 q 162 128 164 123 q 153 214 153 155 l 153 237 q 170 400 155 313 q 177 443 172 419 q 185 477 182 466 q 186 485 186 480 q 186 498 186 489 q 186 523 186 507 q 159 720 180 682 q 155 727 157 724 q 150 733 153 730 q 146 735 148 735 q 142 732 145 735 q 134 724 138 728 q 127 714 130 719 q 93 616 106 676 q 79 513 79 555 l 79 502 q 80 488 79 495 q 82 475 81 480 q 84 470 83 470 q 86 470 85 470 q 89 471 87 471 q 98 473 93 473 q 103 473 100 473 q 114 463 110 471 q 117 454 117 458 q 106 435 117 444 q 81 422 93 422 q 64 428 72 422 q 42 464 49 438 q 36 518 36 490 q 37 539 36 528 q 65 683 41 614 q 147 780 98 780 q 184 762 168 780 q 225 622 215 734 l 226 614 l 231 627 q 298 756 261 700 q 393 853 347 832 q 430 863 412 863 q 444 861 437 863 q 508 753 496 850 q 510 707 510 736 q 511 666 511 679 q 510 619 511 640 q 503 512 508 581 q 494 389 498 443 q 492 369 492 377 l 492 360 q 494 362 492 360 q 497 368 495 364 q 562 428 526 414 q 589 433 576 433 q 633 406 616 433 q 648 374 642 394 q 661 317 654 355 q 677 239 671 267 q 691 194 684 211 q 700 175 695 184 q 707 163 704 166 q 709 163 708 163 l 710 163 q 713 164 711 163 q 753 234 736 185 q 760 256 755 241 q 768 289 764 272 q 775 318 772 306 q 779 331 779 330 q 786 337 781 334 q 793 342 790 340 l 795 342 q 808 338 802 342 q 818 326 815 334 q 819 317 819 323 q 819 310 819 314 q 811 277 817 300 q 794 216 802 237 q 777 176 787 194 q 764 155 770 163 q 748 136 758 146 q 715 117 731 119 q 707 115 710 115 q 699 117 704 115 q 656 161 673 122 q 620 292 639 195 q 605 358 611 338 q 593 385 600 378 q 591 388 592 387 q 588 389 589 389 q 585 389 587 389 q 538 349 562 384 q 479 220 498 286 q 474 207 477 213 q 471 198 472 200 q 453 187 465 187 l 452 187 q 433 198 439 187 q 430 209 430 203 q 431 228 430 215 q 463 584 444 313 q 465 631 465 605 q 466 673 466 657 q 465 705 466 690 q 464 747 465 736 q 438 816 456 803 q 430 818 435 818 q 413 813 423 818 q 303 676 361 788 q 240 512 266 604 l 233 487 l 232 414 q 210 124 229 160 q 198 112 205 115 q 186 109 191 109 q 177 111 182 109 z "},"N":{"ha":805,"x_min":34,"x_max":824,"o":"m 603 74 q 538 161 560 87 q 528 279 528 208 q 532 386 528 328 q 538 440 534 406 q 551 548 543 475 q 566 676 562 632 q 570 749 570 721 l 570 759 q 556 837 568 813 q 549 847 553 842 q 541 853 544 852 q 532 854 536 854 q 475 823 509 854 q 409 733 444 791 q 347 614 374 676 q 245 260 281 457 q 238 215 241 233 q 233 167 236 197 q 224 92 228 99 q 210 79 220 82 q 203 79 206 79 q 184 90 191 79 q 182 95 182 93 q 181 101 181 97 q 181 111 181 104 q 189 191 181 136 q 202 336 195 237 q 213 544 208 434 q 215 602 214 572 q 215 651 215 632 q 214 688 215 671 q 213 738 214 724 q 193 835 208 810 q 183 842 189 842 q 168 834 177 842 q 117 755 142 812 q 80 635 91 697 q 77 605 77 618 q 77 585 77 591 q 77 566 77 574 q 88 534 81 547 q 104 521 96 521 q 119 514 115 521 q 123 501 123 507 q 120 490 123 496 q 105 478 116 481 q 100 477 102 477 q 79 486 91 477 q 37 555 47 508 q 34 596 34 570 q 37 641 34 621 q 62 739 45 692 q 134 863 95 826 q 182 886 157 886 l 184 886 q 204 883 197 886 q 220 871 212 880 q 252 793 244 848 q 260 662 260 738 q 259 600 260 633 q 258 549 258 572 q 257 517 258 526 l 256 499 l 267 530 q 376 765 313 667 q 444 854 410 820 q 517 897 480 890 q 534 899 526 899 q 581 878 560 899 q 614 760 612 848 l 614 744 q 611 669 614 713 q 590 492 606 612 q 576 372 579 412 q 573 286 573 331 q 574 228 573 246 q 578 189 575 209 q 606 123 587 144 q 610 119 609 120 q 613 118 612 118 q 616 118 614 118 l 618 118 q 656 143 632 119 q 744 305 699 185 q 766 361 758 342 q 781 390 775 381 q 793 399 787 398 q 801 401 798 401 q 817 393 811 401 q 824 378 824 386 q 823 374 824 376 q 821 366 823 370 q 812 353 818 361 q 779 272 807 346 q 708 135 746 187 q 616 73 661 75 q 609 73 612 73 q 603 74 605 73 z "},"O":{"ha":624,"x_min":34,"x_max":646,"o":"m 245 49 q 230 53 237 50 q 217 59 224 55 q 151 198 163 95 q 150 208 150 204 q 148 212 149 211 q 146 214 147 214 q 132 225 141 218 q 114 241 122 233 q 35 425 50 301 q 34 475 34 443 q 36 525 34 507 q 96 719 50 624 q 187 847 134 795 q 319 922 252 911 q 345 924 331 924 l 351 924 q 382 921 369 924 q 477 866 435 909 q 516 810 500 842 q 529 782 524 794 q 537 753 533 770 q 548 700 545 728 q 551 633 551 672 l 551 616 q 550 567 551 589 q 543 505 548 537 q 474 275 525 395 q 468 261 470 267 l 465 255 q 471 259 466 255 q 486 270 477 264 q 503 283 495 277 q 524 302 510 289 q 552 330 538 315 q 581 358 570 348 q 600 374 592 368 q 612 383 608 380 q 619 387 616 386 q 625 387 622 387 q 641 380 635 387 q 646 366 646 374 q 646 362 646 364 q 640 350 644 355 q 624 336 635 344 q 609 323 621 334 q 585 299 598 313 q 512 234 545 258 q 446 193 480 209 l 427 184 l 414 163 q 288 51 351 70 q 270 48 277 48 q 260 47 263 47 q 245 49 252 47 m 328 207 q 360 211 343 208 q 387 218 376 214 l 397 220 l 406 236 q 467 385 439 298 q 497 504 488 448 q 507 620 507 559 q 475 793 507 738 q 379 876 439 857 q 358 879 368 879 q 345 880 349 880 q 325 878 334 880 q 213 810 269 867 q 134 694 166 762 q 79 507 88 597 q 79 478 79 494 l 79 461 q 82 417 79 434 q 138 281 96 326 l 148 271 l 149 283 q 166 405 153 338 q 190 501 177 458 q 210 556 202 544 q 227 565 218 565 l 229 565 q 246 555 239 565 q 251 542 251 548 q 243 528 251 534 q 239 522 241 526 q 235 510 237 518 q 228 486 232 502 q 204 371 214 431 q 194 267 195 312 l 193 237 l 204 231 q 304 205 250 205 q 328 207 316 205 m 275 94 q 292 101 281 96 q 311 113 302 106 q 331 132 319 119 q 352 155 344 144 q 358 162 355 159 q 360 165 360 165 q 355 165 359 165 q 346 163 351 164 q 305 161 330 161 q 266 163 281 161 q 212 178 236 169 q 199 182 202 182 q 199 181 199 182 l 199 180 q 201 170 199 177 q 207 151 203 161 q 214 132 210 140 q 262 92 232 92 q 275 94 268 92 z "},"P":{"ha":560,"x_min":39,"x_max":526,"o":"m 138 79 q 86 120 109 87 q 43 240 47 180 q 39 323 39 301 q 60 505 39 407 q 123 684 81 599 q 189 793 155 749 q 219 825 201 808 q 249 852 236 842 q 359 895 308 895 q 450 857 408 895 q 468 837 458 850 q 484 812 477 824 q 524 678 513 758 q 526 629 526 656 q 524 580 526 601 q 482 442 514 504 q 320 303 421 325 q 291 301 309 301 q 262 303 273 301 q 255 304 258 304 l 252 305 q 251 297 252 304 q 249 278 250 290 q 168 80 231 97 q 153 77 161 77 q 138 79 144 77 m 162 127 q 174 146 168 133 q 186 175 181 159 q 197 228 192 197 q 205 290 203 259 q 206 303 205 298 q 207 311 207 309 l 208 316 l 196 319 q 172 345 172 327 l 172 347 q 180 362 173 357 q 195 368 186 368 q 201 368 198 368 q 206 368 204 368 l 210 366 l 211 427 l 211 631 q 231 649 215 649 q 252 629 248 649 q 253 622 252 626 q 253 609 253 617 q 253 587 253 602 q 253 566 253 581 q 254 534 254 551 q 255 484 255 511 q 256 440 256 457 q 255 407 256 423 q 254 363 255 374 l 254 351 l 264 349 q 283 346 275 347 q 294 346 291 346 q 307 347 302 346 q 404 406 363 357 q 477 568 460 474 q 481 630 481 600 q 463 748 481 690 q 420 823 448 797 q 409 833 413 830 q 397 840 404 837 q 378 847 386 846 q 359 849 371 849 q 272 813 317 848 q 189 713 228 778 q 87 382 105 569 q 85 338 85 359 q 85 309 85 317 q 86 272 85 287 q 134 132 96 172 q 147 123 143 123 q 152 123 151 123 q 162 127 157 123 z "},"Q":{"ha":627,"x_min":60,"x_max":593,"o":"m 551 71 q 518 81 536 75 q 489 92 500 87 q 477 99 484 95 q 467 106 471 102 q 450 121 461 111 q 429 142 439 132 q 414 160 418 153 l 407 168 l 393 155 q 279 86 338 101 q 265 83 271 84 q 245 83 259 83 q 218 84 227 83 q 197 92 209 86 q 111 214 133 120 q 105 249 106 233 q 103 290 103 265 q 105 328 104 312 q 110 361 106 344 l 112 372 l 108 376 q 88 407 98 389 q 72 441 78 425 q 60 515 60 475 q 111 707 60 598 q 190 819 144 774 q 332 901 256 886 q 348 904 340 903 q 370 904 355 904 q 392 904 385 904 q 410 901 400 903 q 535 814 492 884 q 581 669 570 755 q 583 619 583 645 q 553 437 583 535 q 443 214 511 309 q 439 207 441 210 q 437 203 437 204 q 448 189 437 201 q 471 163 458 177 q 492 143 484 150 q 509 132 499 137 q 540 121 519 127 q 554 116 549 117 q 562 115 559 115 q 566 115 564 115 l 570 115 q 576 115 574 115 q 580 114 578 115 q 583 113 581 113 q 591 105 589 109 q 593 94 593 101 q 592 85 593 88 q 589 80 591 83 q 566 68 581 68 q 551 71 559 68 m 422 262 q 535 566 514 408 q 538 618 538 593 q 530 701 538 661 q 486 806 517 764 q 437 845 467 831 q 370 860 405 860 q 317 851 344 860 q 180 736 239 823 q 137 655 156 701 q 110 568 118 610 q 104 515 104 541 l 104 505 q 106 481 104 492 q 112 461 109 471 q 116 452 113 457 q 120 441 118 446 q 124 434 123 437 q 127 431 126 431 q 129 437 127 432 q 133 449 130 441 q 184 543 159 530 q 194 546 189 546 q 200 547 198 547 q 207 546 203 547 q 218 537 215 543 q 221 527 221 532 q 220 522 221 525 q 215 514 219 517 q 206 508 211 510 q 202 505 203 507 q 196 496 200 503 q 175 442 185 475 q 169 421 172 433 q 163 399 165 410 q 160 387 160 389 q 169 378 160 385 q 191 366 178 372 q 216 355 198 362 q 254 340 234 347 q 314 315 293 324 q 347 297 334 306 q 402 250 382 274 q 406 245 404 247 l 408 243 q 413 248 409 243 q 422 262 416 254 m 275 132 q 340 168 307 141 q 360 185 349 175 q 376 201 371 196 l 380 206 l 372 216 q 310 267 345 247 q 284 279 301 272 q 227 302 268 286 q 190 317 208 310 q 166 328 173 325 q 156 333 160 331 l 151 335 q 150 329 151 335 q 149 315 150 323 q 148 287 148 301 q 159 210 148 245 q 199 142 172 163 q 220 131 210 134 q 241 128 229 128 l 248 128 q 263 129 257 128 q 275 132 269 130 z "},"R":{"ha":569,"x_min":36,"x_max":586,"o":"m 126 36 q 64 96 89 45 q 36 238 37 151 l 36 250 q 73 489 36 363 q 186 739 113 622 l 197 755 l 195 770 q 193 785 194 777 q 191 801 191 794 q 189 812 189 808 q 186 817 188 815 q 183 821 185 819 q 176 836 176 828 q 177 840 176 838 q 187 854 180 850 q 199 859 194 859 q 210 857 204 859 q 220 846 216 854 q 229 819 224 838 q 229 817 229 817 q 231 808 230 811 l 232 804 q 236 808 233 804 q 244 819 239 812 q 376 923 307 892 q 437 937 409 937 q 479 927 460 937 q 500 912 490 922 q 517 890 511 902 q 545 770 545 842 q 536 685 545 731 q 417 446 507 528 q 318 381 366 399 q 307 376 311 378 q 301 374 302 374 q 317 345 301 370 q 372 276 343 306 q 425 234 401 245 q 454 227 440 227 q 474 231 465 227 q 495 251 484 236 q 526 304 505 265 q 539 328 533 317 q 546 340 545 338 q 555 349 550 347 q 565 351 561 351 q 570 351 568 351 q 585 337 581 347 q 586 328 586 333 q 582 315 585 323 q 570 291 578 307 q 528 220 543 240 q 494 191 513 199 q 474 184 484 186 q 453 182 465 182 q 428 185 439 182 q 404 195 418 188 q 351 235 379 206 q 267 349 302 283 q 262 357 264 354 q 259 359 260 359 l 258 353 q 258 336 258 346 q 203 83 250 167 q 136 35 174 35 q 126 36 131 35 m 316 429 q 371 466 342 442 q 417 511 399 489 q 497 722 479 591 q 499 768 499 742 q 497 811 499 793 q 483 861 492 842 q 436 892 469 892 q 405 886 422 892 q 252 755 329 861 l 241 740 l 243 726 q 255 561 250 656 q 257 513 256 541 q 258 460 258 485 q 259 427 259 435 l 259 422 l 263 423 l 267 424 l 272 423 q 280 418 277 422 l 283 416 l 294 419 q 304 424 298 421 q 316 429 311 427 m 144 82 q 180 138 163 93 q 205 249 197 182 q 214 406 214 308 q 207 621 214 497 q 205 654 205 640 q 203 672 204 669 l 203 679 l 196 667 q 100 413 130 544 q 81 264 81 334 l 81 248 q 81 218 81 231 q 85 180 82 199 q 104 114 92 141 q 132 81 117 87 q 136 81 134 81 l 138 81 q 144 82 140 81 z "},"S":{"ha":434,"x_min":34,"x_max":498,"o":"m 203 100 q 182 104 193 102 q 165 111 172 107 q 132 163 132 127 q 155 217 132 195 q 226 257 178 241 q 258 266 236 260 q 301 278 280 273 q 328 285 321 283 q 332 286 331 286 q 332 288 332 287 q 332 291 332 289 q 331 294 332 292 l 331 296 q 321 319 329 307 q 301 342 313 332 q 264 367 286 356 q 199 395 242 378 q 140 418 160 409 q 102 440 119 428 q 35 528 47 478 q 34 551 34 538 q 35 573 34 563 q 111 708 47 630 q 298 852 197 812 q 385 872 345 871 l 389 872 q 495 814 471 872 q 498 792 498 804 q 495 767 498 781 q 435 679 483 726 q 374 635 398 642 q 363 633 368 633 q 354 635 359 633 q 344 646 346 640 q 342 654 342 652 q 345 666 342 661 q 352 674 349 672 q 363 677 356 677 q 371 679 368 677 q 378 683 374 680 q 401 704 387 690 q 425 730 415 718 q 454 791 454 768 q 452 802 454 798 q 419 825 445 817 q 391 827 409 827 q 359 825 372 827 q 286 798 323 816 q 170 707 225 766 q 81 574 98 629 q 79 562 79 567 q 79 548 79 557 q 79 538 79 541 q 81 531 79 534 q 85 522 82 528 q 93 509 89 514 q 104 496 96 505 q 155 461 124 476 q 170 454 163 457 q 188 447 176 451 q 221 434 199 442 q 292 403 267 417 q 336 370 317 389 q 367 329 357 351 q 377 280 377 306 q 359 208 377 246 q 301 134 338 163 q 228 101 265 104 q 218 100 222 100 l 216 100 q 211 100 215 100 q 203 100 207 100 m 235 148 q 252 155 241 149 q 270 165 262 160 q 290 184 279 173 q 307 205 300 196 q 314 218 311 212 q 320 230 318 225 q 322 236 322 234 l 322 237 q 311 234 321 237 q 284 227 300 231 q 252 218 268 223 q 189 187 206 205 q 177 164 177 176 q 178 158 177 161 q 193 147 182 149 q 213 145 205 145 q 235 148 223 145 z "},"T":{"ha":511,"x_min":35,"x_max":694,"o":"m 372 79 q 267 227 293 95 q 252 390 254 293 l 252 415 q 283 749 252 571 q 288 777 286 766 q 291 794 290 787 q 293 803 292 800 q 293 807 293 806 l 292 809 q 292 812 292 810 l 290 817 l 284 817 q 220 810 244 811 q 178 808 197 808 l 159 808 q 67 821 96 810 q 59 823 63 823 q 54 824 56 824 q 35 841 38 824 l 35 843 q 41 861 35 853 q 56 868 48 868 q 60 867 58 868 q 65 866 62 867 q 73 862 69 864 q 83 859 77 861 q 95 855 90 857 q 126 852 108 853 q 159 851 144 851 l 174 851 q 217 854 195 852 q 275 861 239 856 q 375 875 311 865 q 466 888 435 884 q 512 893 496 892 q 547 895 528 895 q 600 891 578 895 q 651 881 623 888 q 682 870 673 876 q 693 856 691 865 q 694 848 694 852 q 688 835 694 841 q 677 827 682 827 q 671 827 672 827 q 656 832 663 827 q 645 836 654 833 q 622 842 635 839 q 600 846 609 845 q 581 848 592 848 q 547 848 570 848 l 541 848 q 512 848 524 848 q 480 845 500 848 q 417 836 460 842 q 406 834 412 835 l 334 823 l 334 818 q 332 797 334 812 q 326 745 330 781 q 314 663 319 702 q 304 574 309 623 q 297 412 297 488 q 302 292 297 349 q 334 165 312 207 q 369 127 349 136 q 377 124 374 125 q 387 123 380 123 q 396 124 393 123 q 404 127 399 125 q 464 247 438 142 q 473 286 470 269 q 481 334 476 303 q 485 360 484 349 q 488 373 487 371 q 496 385 490 380 q 509 390 503 390 q 523 385 517 390 q 530 372 529 379 l 530 369 q 528 345 530 363 q 521 299 525 324 q 513 258 517 274 q 473 140 495 180 q 421 85 452 99 q 386 78 404 78 q 372 79 379 78 z "},"U":{"ha":555,"x_min":35,"x_max":519,"o":"m 379 68 q 375 70 377 68 q 372 73 373 71 q 369 78 370 75 q 367 88 368 81 q 365 109 366 95 q 363 147 363 123 q 360 201 361 174 q 357 243 359 229 q 356 269 357 258 q 356 282 356 280 l 356 288 l 347 272 q 251 168 298 192 q 196 155 227 155 q 112 192 149 155 q 35 420 47 256 q 35 449 35 433 q 35 477 35 466 l 35 500 q 35 535 35 522 q 75 745 42 632 q 86 775 81 768 q 100 784 92 783 l 102 784 q 117 777 111 784 q 121 765 121 772 q 119 754 121 760 q 111 722 116 743 q 101 682 106 702 q 81 551 87 623 q 80 513 80 535 q 80 475 80 490 l 80 444 q 82 400 81 414 q 117 261 92 311 q 129 241 123 250 q 142 225 134 233 q 197 199 168 199 q 231 208 213 199 q 339 352 279 232 l 353 379 l 353 413 q 368 649 353 542 q 410 825 382 757 q 463 903 435 888 q 477 907 469 906 l 479 907 q 515 871 507 907 q 519 827 519 854 q 518 794 519 812 q 503 686 515 743 q 404 384 463 518 l 398 370 l 399 323 q 401 273 400 303 q 404 218 403 243 q 407 164 406 186 q 409 128 408 142 q 410 105 410 113 q 410 92 410 96 q 410 85 410 87 q 409 82 410 83 q 395 68 406 72 q 387 66 391 66 q 379 68 383 66 m 410 524 q 467 739 451 648 q 473 790 471 768 q 475 826 475 813 q 474 841 475 834 l 473 852 l 471 849 q 461 832 467 844 q 450 808 455 820 q 402 538 413 707 q 401 512 401 524 q 400 505 400 507 l 400 495 l 404 503 l 410 524 z "},"V":{"ha":523,"x_min":35,"x_max":486,"o":"m 197 113 q 106 191 144 119 q 35 562 39 321 l 35 581 q 37 669 35 631 q 52 765 41 716 q 59 796 57 793 q 75 804 66 804 l 77 804 q 93 793 87 802 q 95 782 95 789 q 92 760 94 775 q 86 728 88 743 q 83 697 84 714 q 79 603 79 659 l 79 584 q 85 454 80 515 q 144 216 99 307 q 188 162 166 174 q 203 158 195 158 q 285 252 239 158 q 357 435 326 333 q 364 456 361 447 q 367 467 367 465 l 368 471 l 359 473 q 278 520 305 476 q 246 639 246 568 l 246 648 q 299 815 251 749 q 368 859 333 859 q 379 858 374 859 q 447 737 433 846 q 450 688 450 714 q 438 574 450 637 l 434 552 l 442 559 q 454 569 449 566 q 465 571 458 571 q 482 563 477 570 q 486 549 486 555 q 484 538 486 544 q 471 525 481 534 q 448 505 461 515 q 424 488 435 495 q 419 485 421 486 q 418 483 418 484 q 413 464 417 480 q 402 427 408 448 q 390 391 395 406 q 329 240 362 307 q 258 135 290 161 q 229 118 244 123 q 202 113 214 113 l 197 113 m 379 518 q 384 531 380 519 q 390 560 387 543 q 396 593 393 577 q 405 690 405 646 q 387 795 405 753 q 377 809 382 804 q 369 815 372 815 q 356 809 364 815 q 340 795 348 804 q 294 680 305 753 q 292 638 292 661 q 294 600 292 615 q 308 557 298 576 q 355 518 325 522 q 363 517 359 517 q 370 517 367 517 l 374 517 q 379 518 378 517 z "},"W":{"ha":722,"x_min":37,"x_max":688,"o":"m 376 97 q 271 179 307 109 q 235 356 235 250 l 235 372 q 237 398 236 385 q 239 422 237 412 l 239 424 q 240 443 240 438 l 240 445 q 239 446 240 446 q 234 437 239 446 q 233 436 234 437 q 157 345 194 369 q 115 332 135 332 q 98 334 106 332 q 56 372 71 342 q 37 486 37 412 l 37 505 q 39 546 37 529 q 43 593 40 563 q 99 809 60 713 q 104 822 101 815 q 109 834 107 829 q 112 843 111 839 q 115 848 114 846 q 133 858 123 858 q 151 848 143 857 q 153 844 153 846 q 154 840 154 842 q 153 836 154 838 q 153 828 153 832 q 150 819 152 825 q 143 802 147 812 q 87 555 103 702 q 85 509 85 532 q 85 478 85 486 q 87 441 85 454 q 106 384 94 395 q 110 381 109 382 q 113 381 112 381 l 117 381 q 146 398 130 382 q 275 659 211 465 q 282 678 279 671 q 286 688 284 685 q 291 694 288 692 q 307 700 298 700 q 319 697 313 700 q 328 687 324 694 q 332 673 332 680 q 317 594 332 659 q 299 510 304 541 q 290 446 293 479 q 284 354 284 396 q 328 179 284 237 q 397 144 356 144 l 399 144 q 532 245 465 144 q 596 385 570 302 q 629 507 619 452 q 639 620 639 561 q 637 668 639 653 q 629 708 635 684 q 618 744 625 726 q 599 792 612 762 q 583 832 587 820 q 579 850 579 844 q 584 866 579 859 q 597 875 589 873 q 604 876 601 876 l 606 876 q 613 873 608 876 q 627 853 625 867 q 632 838 628 850 q 644 810 637 826 q 678 710 669 752 q 688 620 688 669 q 665 447 688 538 q 591 251 634 326 q 475 118 536 156 q 431 100 454 106 q 409 97 420 97 q 393 96 398 96 q 376 97 384 96 z "},"X":{"ha":694,"x_min":35,"x_max":728,"o":"m 48 56 q 35 78 35 63 l 35 79 q 38 92 35 84 q 51 117 41 100 q 77 165 60 134 q 121 243 94 195 q 224 418 196 374 q 236 438 231 430 q 241 446 241 446 l 236 460 q 234 466 235 463 q 180 688 199 568 q 171 777 175 727 q 168 860 168 827 q 167 875 168 871 q 165 883 166 880 q 163 888 163 886 q 163 891 163 890 l 163 895 q 173 914 165 910 q 185 918 180 918 q 198 913 191 918 q 203 906 201 910 q 206 892 205 902 q 208 865 207 883 q 254 555 216 692 q 260 529 256 543 q 268 505 264 515 q 272 494 271 495 l 273 494 l 273 494 q 274 496 273 495 q 275 497 274 496 q 277 500 276 498 q 280 504 278 502 q 283 510 281 507 q 288 517 286 513 q 293 524 290 520 q 397 666 341 593 q 498 793 453 740 q 539 839 521 819 q 578 880 557 859 q 609 909 600 902 q 625 916 618 916 q 642 908 639 916 q 645 897 645 900 q 639 882 645 889 q 614 858 624 868 q 591 834 604 848 q 482 704 545 783 q 362 544 419 624 q 333 503 349 525 q 307 465 318 481 q 294 444 296 448 q 293 441 293 443 q 294 436 293 439 q 299 425 296 432 q 360 322 324 371 q 429 250 397 273 q 460 234 446 239 q 474 233 467 233 l 479 233 q 498 235 490 233 q 599 331 547 252 q 620 364 606 342 q 649 409 634 385 q 675 450 664 433 q 687 470 686 467 q 694 479 689 475 q 703 484 699 483 q 706 484 705 484 q 716 481 711 484 q 726 471 723 477 q 728 460 728 467 q 726 450 728 454 q 700 407 724 445 q 643 317 676 369 q 629 296 637 307 q 617 278 622 285 q 584 240 602 258 q 548 210 565 222 q 529 200 541 205 q 509 191 518 195 q 500 189 504 190 q 492 188 497 189 q 477 188 487 188 q 463 188 468 188 q 454 189 458 189 q 446 191 451 190 q 323 297 387 210 q 271 381 294 336 l 262 396 l 254 382 q 202 295 237 353 q 136 179 168 236 q 91 98 104 122 q 85 86 88 92 q 81 77 82 80 q 75 65 79 71 q 65 57 71 60 q 56 55 60 55 q 48 56 52 55 z "},"Y":{"ha":433,"x_min":34,"x_max":433,"o":"m 307 71 q 300 76 303 72 q 295 83 296 79 q 292 122 294 87 q 289 205 290 157 q 286 301 287 254 l 286 355 l 277 345 q 215 290 245 305 q 182 282 199 282 l 175 282 q 115 311 144 282 q 36 514 53 376 q 34 573 34 538 q 36 633 34 608 q 56 742 43 700 q 69 773 62 764 q 86 782 75 782 q 106 764 104 782 q 107 761 107 762 q 106 758 107 760 q 104 753 106 756 q 98 743 100 748 q 94 728 96 739 q 79 631 80 671 q 78 582 78 592 q 87 477 78 526 q 148 342 106 387 q 178 326 162 326 q 224 353 199 326 q 277 425 250 379 l 287 441 l 288 493 q 312 762 293 667 q 377 903 336 890 q 382 904 379 903 q 387 904 385 904 l 390 903 q 431 839 421 902 q 433 816 433 830 q 433 793 433 802 l 433 773 q 431 742 432 753 q 343 453 410 591 l 332 430 l 332 337 q 334 191 332 244 q 336 137 335 157 q 337 107 336 117 q 337 92 337 96 q 337 85 337 87 q 332 77 336 81 q 323 71 328 73 q 315 68 320 68 q 307 71 311 68 m 344 570 q 387 762 379 675 q 389 793 389 775 q 387 825 389 810 q 384 846 386 840 l 384 847 l 383 847 q 381 843 382 846 q 377 833 379 840 q 337 589 347 753 q 336 570 337 579 q 336 557 336 561 l 336 549 q 336 550 336 549 q 344 570 338 553 z "},"Z":{"ha":562,"x_min":39,"x_max":582,"o":"m 165 1 q 146 6 156 3 q 128 15 136 10 q 94 79 94 40 q 108 133 94 103 q 201 230 138 194 q 244 250 220 241 q 313 271 269 258 q 343 280 328 275 q 363 286 357 284 q 388 298 374 291 q 410 310 401 304 l 416 315 l 420 328 q 423 362 422 343 q 420 391 423 381 q 401 429 414 413 q 389 439 394 436 q 376 446 383 443 q 369 448 372 447 q 360 448 366 448 q 345 448 355 448 q 296 444 317 448 q 248 426 275 439 q 224 417 230 418 q 217 416 219 416 q 207 418 212 416 q 193 438 194 425 q 194 444 193 441 q 195 450 194 448 q 234 525 200 465 q 253 557 243 542 q 266 581 262 573 q 385 857 369 760 q 387 886 387 871 q 384 909 387 902 q 374 924 380 920 q 355 928 368 928 q 328 923 342 928 q 293 909 313 919 q 174 819 233 877 q 88 706 116 761 l 83 695 l 86 688 q 89 680 89 684 q 83 667 89 673 q 62 659 76 659 q 53 660 56 659 q 45 665 49 661 q 39 683 39 671 q 43 704 39 692 q 150 857 69 777 q 235 926 191 898 q 355 972 304 972 q 410 951 393 972 q 432 886 432 929 q 427 839 432 865 q 283 519 410 738 q 267 493 273 504 q 261 481 261 481 q 265 481 262 481 q 272 484 268 482 q 347 494 306 494 q 375 492 365 494 q 395 486 385 490 q 429 464 414 479 q 469 372 465 428 l 469 357 l 479 368 q 493 382 484 372 q 510 403 501 393 q 533 431 524 421 q 546 444 541 440 q 557 448 551 447 l 559 448 q 571 444 565 448 q 581 431 578 439 q 582 425 582 427 q 581 418 582 422 q 578 412 580 414 q 572 406 576 409 q 561 394 569 403 q 545 375 553 386 q 526 353 536 365 q 508 333 516 341 q 488 314 497 322 q 460 291 478 306 q 457 287 458 289 q 454 282 455 286 q 451 274 453 279 q 422 207 440 242 q 385 143 405 172 q 347 97 369 120 q 305 57 326 73 q 196 1 245 9 q 180 0 186 0 q 165 1 173 0 m 191 46 q 274 89 229 53 q 354 176 319 125 q 371 205 361 189 q 387 234 380 222 q 393 249 393 247 l 393 250 l 392 250 q 390 249 391 250 q 324 228 379 243 q 259 207 282 216 q 220 189 235 199 q 149 115 173 161 q 139 79 139 95 q 140 68 139 73 q 151 54 143 60 q 168 46 159 48 q 179 45 174 45 q 191 46 184 45 z "},"[":{"ha":345,"x_min":72,"x_max":275,"o":"m 82 43 q 72 59 72 50 q 73 66 72 62 q 75 74 75 71 l 75 79 q 76 87 75 83 q 78 140 78 98 q 77 235 78 176 q 75 320 76 262 q 75 450 75 378 q 76 621 75 560 q 79 761 77 681 q 81 805 80 781 q 81 843 81 829 q 81 863 81 856 q 81 874 81 871 q 80 880 81 878 q 78 884 79 882 q 76 889 77 886 q 75 893 75 892 q 75 897 75 895 q 73 901 74 899 q 72 907 72 904 l 72 910 q 75 920 73 916 q 86 927 81 926 q 93 928 91 928 q 104 924 99 928 q 106 923 104 924 q 111 923 108 923 q 122 924 115 923 q 141 925 129 924 q 171 928 153 926 q 201 930 190 930 q 215 931 212 931 l 218 931 q 227 928 222 930 q 233 922 231 925 q 235 917 235 920 q 236 909 236 914 q 234 900 236 903 q 227 892 232 896 q 223 891 226 891 q 216 890 221 890 q 200 888 210 889 q 173 886 189 887 q 128 883 142 884 l 122 882 l 122 876 q 123 861 122 869 q 123 827 123 851 q 123 766 123 804 q 120 598 122 692 q 119 491 119 559 l 119 415 q 122 208 120 291 q 123 159 123 179 q 123 130 123 139 q 123 114 123 120 l 122 87 l 126 89 q 135 90 127 89 q 152 92 142 91 q 237 106 206 100 q 256 109 250 109 l 258 109 q 268 104 262 108 q 274 95 273 100 q 275 88 275 92 q 273 79 275 83 q 264 68 271 72 q 160 52 255 64 q 122 46 138 49 q 104 43 106 44 q 90 41 96 41 q 82 43 85 41 z "},"\\":{"ha":499,"x_min":69,"x_max":431,"o":"m 84 839 q 90 840 87 840 q 98 838 93 840 q 108 831 104 836 q 111 824 109 830 q 117 810 114 818 q 159 702 136 760 q 204 598 183 644 q 397 222 283 425 q 411 197 404 210 q 422 178 418 184 q 430 157 429 164 q 431 153 431 155 q 429 144 431 149 q 419 134 426 138 q 410 132 414 132 q 406 133 408 132 q 392 142 398 136 q 387 155 387 149 q 363 197 387 159 q 345 229 357 207 q 319 272 332 250 q 300 307 307 294 q 207 486 254 390 q 127 664 161 583 q 86 765 102 724 q 69 814 71 806 l 69 817 q 84 839 69 833 z "},"]":{"ha":305,"x_min":69,"x_max":237,"o":"m 87 28 q 83 30 85 28 q 78 34 80 32 q 69 52 69 42 l 69 55 q 82 73 71 67 q 101 76 85 73 q 136 81 117 79 q 167 85 155 84 l 176 86 l 176 90 q 176 114 176 96 q 178 153 177 132 q 180 191 179 174 q 181 224 181 205 q 182 279 182 242 q 182 385 182 315 l 182 636 q 182 741 182 717 q 188 830 185 787 q 193 886 191 873 q 193 889 193 888 q 193 890 193 890 q 189 892 192 892 q 186 895 188 894 q 183 897 184 896 q 171 899 182 899 q 135 897 161 899 q 117 896 123 896 q 109 896 112 896 l 105 896 q 99 899 102 897 q 93 907 96 902 q 91 916 91 911 l 91 917 q 94 926 92 922 q 101 932 97 930 q 125 937 106 935 q 157 939 144 939 q 176 940 171 940 q 193 939 187 940 q 197 939 196 939 q 201 939 199 939 q 204 941 202 940 q 209 944 206 943 q 215 945 212 945 l 218 945 q 234 934 229 945 l 237 928 l 235 903 q 230 827 232 870 q 227 712 229 785 q 226 621 226 681 q 227 458 226 562 q 227 314 227 363 q 227 236 227 266 q 224 166 226 205 q 222 134 223 151 q 221 106 221 117 q 220 93 220 98 q 220 85 220 87 q 221 81 220 82 q 223 78 222 79 q 226 66 227 73 q 222 54 226 60 q 210 43 216 45 q 199 41 203 41 q 190 43 195 41 q 185 44 187 43 q 178 44 182 44 q 164 43 174 43 q 138 40 148 41 q 124 38 129 39 q 117 36 119 37 q 114 33 115 35 q 110 30 112 32 q 106 28 108 28 q 97 27 102 27 q 87 28 92 27 z "},"_":{"ha":772,"x_min":69,"x_max":701,"o":"m 77 10 q 69 25 69 16 l 69 28 q 78 42 71 38 q 106 46 86 45 q 198 46 123 46 q 356 45 274 45 l 643 45 q 684 45 681 45 q 698 33 695 41 q 701 22 701 26 q 699 12 701 16 q 690 3 694 5 q 680 1 686 1 l 616 1 q 452 1 522 1 l 387 1 q 217 3 299 1 q 148 5 178 4 q 108 5 117 5 q 91 6 97 5 q 82 7 85 6 q 77 10 79 8 z "},"a":{"ha":237,"x_min":-34,"x_max":271,"o":"m 145 201 q 120 215 132 204 q 99 241 107 226 q 76 349 77 281 l 75 376 l 67 363 q 18 307 41 319 q 3 304 10 304 q -28 325 -16 304 q -33 340 -31 332 q -34 361 -34 348 q -13 445 -33 404 q 33 500 6 485 q 62 507 47 507 q 82 505 72 507 q 87 503 85 503 q 90 503 89 503 q 91 504 90 503 q 94 507 92 505 q 100 511 97 509 q 106 513 104 513 q 111 513 109 513 q 123 509 117 513 q 133 494 131 503 q 134 489 134 490 q 134 486 134 487 q 133 479 134 483 q 131 464 132 474 q 125 428 127 443 q 121 395 123 412 q 121 366 121 382 l 121 350 q 123 311 121 325 q 139 263 129 281 q 159 245 149 245 l 160 245 q 211 353 184 256 q 226 440 221 391 q 228 454 227 450 q 230 462 229 459 q 233 467 231 465 q 249 474 241 474 q 264 467 257 474 q 270 459 269 463 q 271 449 271 454 q 271 441 271 446 q 267 407 270 429 q 244 307 260 356 q 212 233 229 258 q 198 218 206 225 q 184 207 190 210 q 156 199 170 199 q 145 201 151 199 m 20 372 q 36 398 28 383 q 56 437 44 413 l 66 457 l 69 465 q 67 466 69 466 q 63 466 66 466 q 57 465 60 466 q 52 463 54 465 q 30 434 40 454 q 14 391 20 414 q 12 377 12 384 q 11 367 11 370 q 11 362 11 363 q 12 360 11 360 q 15 364 12 361 q 20 372 17 367 z "},"b":{"ha":298,"x_min":-26,"x_max":331,"o":"m 60 140 q 36 153 47 144 q 18 174 24 163 q 12 207 12 189 q 14 230 12 218 q 53 291 24 262 q 81 313 64 303 q 127 334 98 322 l 146 342 l 146 347 q 140 365 144 357 q 130 375 135 373 q 119 376 125 376 q 83 366 104 376 q 58 350 69 359 q 26 323 46 341 q 8 309 15 313 q -4 305 2 305 l -6 305 q -23 317 -18 307 q -26 327 -26 322 q -26 333 -26 331 q -25 350 -26 339 q -20 385 -24 360 q -16 419 -18 401 q 0 517 -7 478 q 16 593 7 557 q 104 794 49 729 q 182 854 154 851 q 216 858 210 858 q 279 817 258 858 q 289 768 289 794 q 267 677 289 728 q 146 509 231 593 q 38 441 75 441 l 35 441 l 33 441 q 32 434 33 440 q 30 420 31 429 q 29 412 29 416 q 26 393 27 401 q 25 384 25 385 l 26 384 q 28 385 26 384 q 37 391 32 387 q 65 407 49 399 q 94 418 82 415 q 119 422 108 422 q 165 404 146 422 q 186 371 179 392 l 190 360 l 201 368 q 237 396 222 381 q 270 437 252 412 q 293 467 285 460 q 309 474 300 474 l 311 474 q 328 463 323 473 q 331 452 331 458 q 330 448 331 450 q 318 429 328 441 q 310 417 315 423 q 303 407 306 411 q 205 317 263 347 l 192 311 l 192 307 q 186 271 192 295 q 173 228 180 246 q 77 138 136 142 q 67 139 72 138 q 60 140 62 140 m 51 487 q 112 536 76 500 q 181 618 148 572 q 244 768 244 708 q 241 793 244 781 q 214 813 234 813 q 198 810 208 813 q 89 677 133 785 q 44 510 61 604 q 41 494 42 501 q 39 486 40 487 l 39 484 q 41 483 39 483 q 51 487 43 484 m 87 186 q 132 245 113 200 q 137 262 134 252 q 142 280 140 272 q 144 290 144 288 q 142 291 144 291 q 137 290 141 291 q 127 285 134 288 q 98 271 108 277 q 79 254 88 264 q 57 207 57 229 l 57 204 q 64 188 58 191 q 76 184 71 184 q 87 186 81 184 z "},"c":{"ha":199,"x_min":-24,"x_max":230,"o":"m 48 307 q -22 376 -7 317 q -24 398 -24 385 q -22 422 -24 412 q 14 491 -14 463 q 67 516 41 516 q 75 515 71 516 q 108 497 101 510 q 115 477 115 484 q 106 456 115 467 q 90 448 99 448 q 79 451 85 448 q 68 469 69 456 l 67 475 l 60 473 q 44 461 53 470 q 31 444 36 453 q 23 424 25 433 q 21 406 21 416 l 21 401 q 21 388 21 392 q 24 379 22 383 q 58 352 35 352 q 69 353 64 352 q 100 368 83 357 q 129 391 117 378 q 142 407 132 395 q 163 433 152 419 q 186 460 178 452 q 198 472 194 469 q 209 474 203 474 q 228 461 222 474 q 230 452 230 457 q 226 440 230 446 q 208 416 222 433 q 178 380 193 398 q 158 357 163 363 q 105 319 132 332 q 56 307 77 307 q 48 307 52 307 z "},"d":{"ha":299,"x_min":-26,"x_max":341,"o":"m 172 294 q 114 344 136 302 l 111 351 l 103 346 q 37 323 67 323 q 26 323 31 323 q -25 374 -14 332 q -26 392 -26 382 l -26 399 q -23 425 -26 414 q 9 481 -13 457 q 42 505 24 496 q 73 513 60 513 q 79 513 77 513 l 87 512 l 87 519 q 89 532 88 523 l 90 546 q 160 798 105 689 q 259 903 205 882 q 280 906 270 906 q 307 899 295 906 q 337 857 329 886 q 341 818 341 840 q 322 706 341 771 q 297 637 313 675 q 266 566 281 599 q 212 473 242 519 q 156 395 182 427 l 146 384 l 147 378 q 154 364 149 373 q 163 350 159 355 q 168 345 165 348 q 174 341 171 342 q 180 338 177 339 q 189 338 182 338 q 207 342 198 338 q 228 359 216 347 q 239 372 233 366 q 247 382 244 378 q 258 401 250 387 q 274 430 266 415 q 286 454 281 445 q 293 467 290 463 q 301 473 296 471 q 310 475 306 475 q 317 473 313 475 q 329 464 324 471 q 331 454 331 460 l 331 452 q 325 432 330 445 q 307 397 319 420 q 294 374 300 385 q 286 359 288 363 q 224 301 258 318 q 188 293 205 293 q 172 294 180 293 m 144 453 q 208 553 177 498 q 260 665 237 606 q 291 768 283 724 q 296 805 296 791 q 296 821 296 818 q 293 848 296 838 q 279 861 289 861 q 244 839 267 861 q 179 732 208 804 q 132 505 139 631 q 132 475 132 490 q 132 450 132 460 q 134 440 133 440 l 138 444 q 144 453 140 448 m 50 369 q 71 378 60 372 q 90 393 81 385 l 95 397 l 92 410 q 86 461 89 427 l 85 471 l 81 472 l 77 472 q 41 454 60 472 q 17 397 17 427 q 38 368 17 368 q 50 369 43 368 z "},"e":{"ha":155,"x_min":-26,"x_max":189,"o":"m 34 347 q -19 389 -3 356 q -25 408 -24 399 q -26 426 -26 416 l -26 433 q -26 452 -26 446 q -23 466 -25 458 q 31 537 -9 516 q 45 543 39 541 q 60 545 51 545 q 111 517 96 543 q 114 510 113 513 q 115 499 115 507 q 114 491 115 494 q 113 485 114 488 q 111 479 113 483 q 55 431 92 444 q 33 427 44 427 q 23 428 28 427 l 17 429 l 18 422 q 33 394 22 398 q 50 391 45 391 q 81 401 64 391 q 121 439 92 409 q 156 471 150 468 q 168 474 162 474 q 184 465 177 474 q 188 460 187 463 q 189 453 189 458 q 188 446 189 449 q 185 441 187 444 q 166 420 181 436 q 135 389 151 405 q 112 369 119 374 q 73 349 92 354 q 57 346 64 347 q 47 346 50 346 q 34 347 40 346 m 47 472 q 59 480 53 475 q 69 492 66 486 l 73 497 l 70 499 q 61 500 66 500 q 52 498 56 500 q 44 493 49 497 q 34 484 39 488 q 28 475 30 479 q 26 471 26 472 q 28 469 26 470 q 33 469 29 469 l 37 469 q 47 472 43 469 z "},"f":{"ha":206,"x_min":-32,"x_max":240,"o":"m 43 115 q -5 163 13 125 q -22 214 -17 186 q -27 283 -26 241 q -28 313 -28 304 q -30 325 -28 322 q -32 333 -32 329 q -28 344 -32 339 q -26 351 -27 347 q -24 363 -25 355 q 20 559 -13 463 q 98 718 54 656 q 180 774 141 774 l 186 774 q 212 760 202 771 q 227 713 227 745 q 196 613 227 671 q 96 468 153 528 q 38 425 65 435 l 30 422 l 27 407 q 23 378 25 391 q 21 361 21 366 l 21 358 l 31 358 q 123 389 79 358 q 156 415 143 404 q 185 447 169 427 q 199 463 193 456 q 208 471 205 469 q 219 474 212 474 q 226 473 224 474 q 231 470 228 472 q 240 452 240 463 q 239 444 240 448 q 233 435 237 441 q 220 418 229 429 q 172 370 194 387 q 95 323 130 336 l 94 323 l 94 323 q 96 319 94 321 q 101 314 98 317 q 132 255 126 290 q 135 224 135 241 q 131 192 134 207 q 77 116 115 133 q 63 113 70 113 q 55 113 57 113 q 43 115 48 113 m 65 496 q 163 646 119 556 q 179 691 175 673 q 182 716 182 708 q 180 728 182 724 q 179 729 179 729 q 178 730 178 730 l 177 729 q 174 728 176 729 q 133 690 155 720 q 65 552 97 640 q 56 526 61 541 q 48 497 52 511 q 43 479 44 484 l 42 474 l 48 479 q 56 486 52 481 q 65 496 60 491 m 68 163 q 89 210 83 180 q 90 226 90 217 l 90 235 q 86 257 89 248 q 72 279 81 269 q 52 296 63 290 q 42 300 50 298 q 28 306 35 303 q 19 308 21 308 q 18 306 18 308 q 18 300 18 304 q 18 286 18 295 q 47 165 18 199 q 56 158 54 158 l 58 158 q 68 163 62 158 z "},"g":{"ha":220,"x_min":-24,"x_max":465,"o":"m 73 -178 q 22 -154 43 -172 q -14 -101 -3 -133 q -24 -38 -24 -69 q -24 -20 -24 -29 q 39 128 -14 66 q 123 192 68 162 q 157 209 141 201 q 198 227 172 216 q 232 241 214 233 q 264 256 250 249 q 281 266 279 263 q 283 269 283 267 q 285 277 284 271 q 287 294 286 283 q 291 340 289 315 q 294 379 293 366 q 295 397 295 393 q 294 402 295 402 q 291 397 294 402 q 285 385 288 393 q 225 311 250 323 q 210 308 218 308 q 195 311 201 308 q 172 367 172 323 q 191 444 172 407 q 250 494 216 494 q 257 494 254 494 q 266 491 260 493 q 275 488 271 490 l 286 482 l 290 486 q 307 492 298 492 q 313 492 310 492 q 332 475 326 488 q 338 443 336 464 q 339 406 339 422 q 338 375 339 391 q 337 350 338 363 q 335 328 336 336 q 334 317 334 321 q 334 312 334 313 l 334 310 l 338 315 q 349 327 343 319 q 358 340 354 334 q 384 382 372 359 q 413 443 395 405 q 419 456 416 450 q 425 464 422 462 q 444 474 433 473 q 457 468 451 474 q 465 455 463 463 q 464 450 465 452 q 462 442 464 447 q 456 428 460 437 q 423 361 435 385 q 396 316 410 337 q 366 278 383 297 q 332 247 349 260 q 326 238 326 241 q 323 224 325 235 q 321 212 322 218 q 292 68 309 134 q 208 -119 259 -53 q 94 -179 157 -179 q 73 -178 84 -179 m 225 374 q 255 425 238 393 q 260 436 258 432 q 263 441 262 439 q 263 444 263 443 l 262 446 q 256 452 262 450 q 253 453 254 453 q 252 454 252 454 l 250 453 q 247 452 250 453 q 237 441 243 449 q 227 422 231 433 q 216 377 217 399 q 216 367 216 371 q 216 362 216 362 l 219 366 q 225 374 222 369 m 109 -134 q 252 92 199 -113 q 262 138 256 111 q 272 185 268 165 q 275 210 275 205 l 275 210 q 271 209 275 210 q 260 204 267 207 q 241 195 254 201 q 215 185 228 190 q 173 167 189 174 q 140 150 158 160 q 107 129 120 138 q 83 108 95 120 q 57 78 67 93 q 39 43 47 63 q 21 -37 21 1 l 21 -45 q 45 -114 22 -89 q 94 -135 64 -135 q 109 -134 101 -135 z "},"h":{"ha":296,"x_min":-20,"x_max":330,"o":"m 189 250 q 147 282 163 258 q 133 313 139 295 q 119 365 126 332 q 116 380 118 372 q 113 391 114 387 l 111 399 l 104 395 q 49 350 85 385 q 31 333 39 340 q 21 323 23 326 q 6 319 13 319 q -12 327 -3 319 q -18 337 -17 332 q -20 349 -20 342 q -19 360 -20 354 q -15 406 -18 373 q -8 468 -12 438 q -7 477 -7 474 q -7 481 -7 479 q -9 485 -7 483 q -11 494 -11 490 q -4 512 -11 503 q 0 523 -1 515 q 6 560 1 536 q 15 604 11 585 q 79 795 40 715 q 137 878 103 845 q 233 930 189 930 q 296 875 281 929 q 299 846 299 864 q 296 814 299 827 q 234 659 282 740 q 142 542 195 593 q 45 474 85 488 q 39 472 41 473 q 37 468 38 471 q 35 453 37 464 q 33 428 34 441 q 31 407 31 415 q 30 397 30 399 l 30 395 l 33 397 q 39 402 35 399 q 59 419 47 410 q 79 433 71 428 q 113 444 98 444 q 138 434 127 444 q 152 413 146 427 q 164 372 158 399 q 178 319 172 336 q 195 296 185 302 q 207 292 201 292 q 220 297 214 292 q 227 303 222 300 q 233 311 231 307 q 250 340 242 321 q 273 401 258 359 q 283 430 279 420 q 290 445 287 440 q 297 451 293 449 q 307 452 301 452 q 317 451 313 452 q 327 441 323 447 q 330 431 330 435 q 329 427 330 429 q 323 409 328 423 q 312 377 318 395 q 300 343 305 359 q 292 323 294 328 q 224 250 265 264 q 211 248 218 248 l 207 248 q 189 250 197 248 m 56 526 q 171 644 114 566 q 251 814 233 733 q 254 843 254 828 q 252 867 254 859 q 232 885 247 885 q 196 870 218 885 q 174 852 186 863 q 153 830 162 840 q 49 543 85 740 q 45 526 47 532 q 45 522 45 522 l 45 519 q 48 521 45 519 q 56 526 52 523 z "},"i":{"ha":167,"x_min":-9,"x_max":200,"o":"m 12 538 q 2 547 6 541 q -1 559 -1 553 q 8 575 -1 568 q 27 583 18 583 l 28 583 q 42 572 37 581 q 46 557 46 564 q 45 552 46 555 q 34 538 41 542 q 22 535 26 535 q 12 538 17 535 m 43 309 q 15 326 28 313 q -9 400 -9 351 q -9 417 -9 408 q -7 433 -8 425 q -6 446 -7 441 q 3 471 -5 465 q 16 477 8 477 q 20 476 18 477 q 34 465 28 474 q 36 460 35 462 q 37 458 37 459 q 36 455 37 457 q 35 447 36 452 q 33 417 33 431 q 33 398 33 404 q 34 380 33 387 q 47 355 39 361 q 60 351 52 351 q 73 354 67 351 q 146 442 105 372 q 164 468 158 463 q 178 474 170 474 l 180 474 q 195 467 190 473 q 200 452 200 460 l 200 450 q 197 441 200 447 q 186 422 194 435 q 158 377 171 395 q 130 344 146 359 q 79 309 104 315 q 61 308 71 308 q 43 309 51 308 z "},"j":{"ha":144,"x_min":-266,"x_max":176,"o":"m 1 580 q 9 578 5 578 q 24 585 17 578 q 31 602 31 592 q 30 609 31 605 q 14 624 24 622 q 9 625 11 625 q -6 616 0 625 q -10 606 -9 612 l -10 594 q -6 586 -9 590 q 1 580 -3 582 m -174 -61 q -157 -62 -165 -62 q -138 -61 -148 -62 q -14 95 -61 -46 q 24 256 11 169 q 27 273 26 268 q 29 278 28 278 q 67 303 53 292 q 95 328 81 314 q 128 365 115 348 q 153 402 141 381 q 166 428 160 415 q 175 446 173 441 q 176 453 176 450 q 169 469 176 463 q 155 475 163 475 q 146 474 151 475 q 137 466 141 472 q 125 446 133 460 q 91 390 107 410 q 70 366 83 379 q 45 343 56 353 q 33 334 35 334 q 33 342 33 335 q 33 361 33 350 q 35 418 35 389 q 34 453 35 429 q 31 495 33 477 q 9 518 25 518 q 1 515 5 518 q -7 509 -4 513 q -9 504 -8 507 l -9 500 q -9 493 -9 498 q -8 474 -9 488 q -7 444 -7 462 q -8 395 -7 427 q -14 321 -9 362 l -15 306 l -20 303 q -77 279 -35 295 q -176 236 -149 252 q -254 144 -234 203 q -266 78 -266 109 q -233 -22 -266 24 q -174 -61 -209 -53 m -142 -16 q -155 -18 -149 -18 q -190 -3 -172 -18 q -218 48 -207 11 q -220 77 -220 58 l -220 85 q -218 106 -220 97 q -194 163 -211 139 q -154 197 -181 182 q -64 236 -126 212 q -46 243 -55 239 q -33 248 -38 246 q -29 249 -31 249 l -22 252 l -22 248 q -73 65 -43 133 q -142 -16 -104 -3 z "},"k":{"ha":232,"x_min":-27,"x_max":340,"o":"m -13 221 q -25 235 -22 226 q -27 246 -27 240 q -24 267 -27 253 q -23 283 -24 274 q -22 300 -22 293 q -16 377 -20 337 q -9 451 -13 418 q -7 466 -7 460 q -6 474 -6 471 q -6 478 -6 477 q -7 481 -7 479 q -10 492 -10 486 l -10 495 q -4 508 -9 503 q -2 510 -3 509 q -1 514 -1 511 q 1 522 0 517 q 4 536 2 527 q 92 846 36 727 q 170 960 126 917 q 253 1000 212 1000 q 306 981 283 1000 q 338 926 328 961 q 340 894 340 913 q 338 859 340 875 q 275 691 323 779 q 190 567 237 624 q 158 533 177 552 q 127 504 138 513 q 47 464 81 468 q 40 463 42 463 q 38 460 39 462 q 36 451 37 458 q 34 434 35 444 q 33 417 33 425 q 32 410 32 410 q 35 412 33 410 q 40 418 37 414 q 59 441 50 431 q 76 458 69 452 q 115 473 98 473 q 142 463 130 473 q 157 431 153 451 q 157 420 157 426 q 151 387 157 404 q 121 350 141 365 q 121 349 121 349 q 115 344 115 346 q 126 340 116 342 q 128 340 127 340 q 145 338 138 338 q 163 341 156 338 q 185 362 174 347 q 198 384 191 372 q 208 406 204 397 q 213 416 211 412 q 218 423 216 421 q 233 429 224 429 l 235 429 q 251 417 245 427 q 254 406 254 412 q 252 397 254 402 q 237 362 249 385 q 221 336 228 345 q 206 318 214 326 q 195 308 199 311 q 184 302 191 305 q 148 294 168 294 l 144 294 q 87 304 122 294 q 64 313 75 307 q 47 324 53 318 l 41 330 l 37 321 q 25 286 29 300 q 20 253 22 271 q 17 232 20 237 q 6 222 12 224 q -4 220 0 220 q -13 221 -8 220 m 54 508 q 205 663 118 534 q 272 789 248 727 q 296 893 296 850 q 288 931 296 915 q 267 953 280 947 q 253 955 260 955 l 250 955 q 232 951 240 955 q 160 877 197 932 q 63 608 101 785 q 55 569 60 592 q 47 527 51 546 q 44 505 44 508 q 45 505 44 505 l 46 505 q 49 506 47 505 q 54 508 51 507 m 89 382 q 113 418 111 397 q 112 424 113 421 q 112 427 112 426 l 111 427 q 98 418 108 427 q 77 393 88 408 q 71 384 73 387 q 68 380 68 381 q 69 378 68 378 q 75 376 71 376 q 89 382 81 376 z "},"l":{"ha":198,"x_min":-20,"x_max":296,"o":"m 70 247 q -7 319 14 256 q -13 347 -9 330 q -19 379 -17 365 q -20 406 -20 389 q -20 435 -20 423 l -20 458 q -19 496 -20 482 q 25 708 -9 614 q 112 855 60 802 q 199 905 154 898 q 212 905 205 905 q 285 861 260 905 q 296 814 296 840 l 296 806 q 256 671 296 751 q 138 503 206 572 q 114 481 125 490 q 92 463 104 472 q 58 446 75 453 q 30 439 41 439 l 24 439 l 24 414 q 52 304 27 331 q 77 292 64 293 q 109 310 91 293 q 142 353 126 326 q 153 376 145 359 q 170 414 161 393 q 187 451 181 439 q 196 467 193 463 q 204 473 200 471 q 213 475 209 475 q 226 469 220 475 q 234 452 234 463 q 233 448 234 450 q 221 417 231 441 q 198 367 210 393 q 182 332 186 341 q 96 250 142 264 q 82 248 90 248 q 70 247 74 247 m 35 481 q 149 583 83 496 q 243 758 218 676 q 252 808 252 786 q 244 842 252 828 q 214 861 234 861 q 190 856 203 861 q 109 779 147 838 q 33 554 54 688 q 26 489 29 527 l 26 484 q 26 479 26 480 l 28 479 q 35 481 30 479 q 35 481 35 481 z "},"m":{"ha":334,"x_min":-16,"x_max":354,"o":"m 260 279 q 231 322 241 288 q 223 359 226 338 q 219 428 221 381 l 218 444 l 214 440 q 190 410 205 431 q 164 370 176 390 q 158 360 161 365 q 152 353 154 355 q 134 345 143 345 q 117 351 125 345 q 109 363 112 355 q 103 390 105 372 q 99 441 101 408 q 96 476 97 467 q 95 486 96 486 q 88 477 94 486 q 75 456 82 469 q 62 433 68 444 q 30 341 37 381 l 29 340 q 26 321 27 327 q 23 313 24 315 q 19 308 22 311 q 4 301 12 301 q 0 302 2 301 q -9 307 -5 302 q -16 316 -14 311 q -16 330 -16 318 q -16 354 -16 341 l -16 388 q -16 417 -16 406 q -16 435 -16 429 q -15 446 -16 442 q -14 451 -15 450 q -13 454 -14 453 q 2 466 -8 464 l 4 466 q 12 464 8 466 q 20 458 18 462 q 22 456 21 457 l 23 455 q 25 457 24 455 q 28 463 26 459 q 48 498 36 479 q 71 528 61 517 q 102 545 86 545 q 125 534 117 545 q 136 514 132 528 q 142 476 139 501 q 143 457 142 467 q 144 440 144 447 q 145 430 144 433 q 145 427 145 427 q 146 427 146 427 l 147 427 q 151 433 148 429 q 158 443 154 437 q 209 492 186 481 q 221 496 216 496 q 227 496 226 496 q 239 493 235 496 q 249 485 244 490 q 256 475 254 480 q 260 466 258 470 q 262 453 261 461 q 264 430 263 445 q 266 389 264 414 q 269 360 267 372 q 273 337 270 349 l 275 328 l 278 332 q 302 383 288 345 q 310 402 306 393 q 315 412 313 410 q 325 420 319 418 q 333 421 330 421 q 342 419 338 421 q 353 401 353 414 q 354 399 354 400 q 353 396 354 397 q 351 387 353 393 q 346 372 349 382 q 302 292 325 311 q 271 277 287 277 q 260 279 266 277 z "},"n":{"ha":250,"x_min":-17,"x_max":283,"o":"m -2 304 q -14 319 -10 309 q -15 344 -14 322 q -16 398 -16 366 q -17 462 -17 430 q -17 484 -17 475 q -17 498 -17 493 q -16 506 -16 503 q -16 510 -16 509 q -14 512 -15 511 q 3 522 -7 522 q 22 497 22 520 q 23 487 22 493 q 24 474 23 480 l 24 460 l 31 473 q 94 536 61 524 q 108 539 102 539 q 116 540 114 540 q 127 538 123 540 q 171 448 165 529 q 184 365 177 381 q 191 355 186 359 q 197 351 195 351 q 210 365 201 351 q 224 396 218 379 q 228 412 225 402 q 233 431 231 422 q 238 448 236 441 q 241 457 240 455 q 250 469 243 465 q 262 474 256 474 q 272 471 267 474 q 280 465 277 469 q 283 458 283 461 q 283 453 283 455 q 283 444 283 450 q 277 420 281 435 q 266 382 270 394 q 256 358 262 370 q 217 311 239 321 q 211 308 213 309 q 205 307 208 307 q 196 307 202 307 q 187 307 191 307 q 181 308 184 307 q 176 310 179 309 q 169 315 173 312 q 162 320 165 317 q 139 359 146 333 q 127 436 131 385 q 119 488 123 477 q 114 495 116 494 q 112 495 113 495 q 104 491 109 495 q 68 447 86 479 q 39 376 51 415 q 33 347 36 362 q 30 325 31 332 q 26 312 30 318 q 16 304 22 306 q 7 302 12 302 q -2 304 1 302 z "},"o":{"ha":201,"x_min":-20,"x_max":235,"o":"m 19 300 q -4 314 5 303 q -19 359 -19 329 l -19 362 q -10 413 -19 387 l -7 422 l -12 431 q -20 466 -20 449 q -12 498 -20 483 q 42 544 3 530 q 61 547 52 547 q 73 547 69 547 q 90 546 83 547 q 108 539 99 544 q 123 530 117 535 q 146 496 140 515 q 151 463 151 477 q 149 442 151 452 l 149 437 q 161 444 151 437 q 188 462 173 451 q 197 468 193 465 q 204 472 202 471 q 213 473 208 473 q 225 470 219 473 q 235 452 235 464 q 230 439 235 445 q 212 424 226 434 q 136 381 171 394 l 124 378 l 118 368 q 104 347 110 355 q 88 330 98 339 q 28 300 57 300 q 19 300 24 300 m 98 427 q 104 446 103 439 q 106 463 106 453 q 84 500 106 494 q 71 503 78 503 l 66 503 q 50 498 56 502 q 42 495 45 497 q 36 490 38 492 q 33 486 33 488 l 41 486 q 54 481 49 486 q 60 467 60 475 q 59 458 60 462 q 52 450 58 455 q 48 445 50 448 q 44 439 45 441 l 42 434 l 46 431 q 81 419 60 419 l 83 419 l 95 418 l 98 427 m 42 349 q 49 354 45 351 q 57 362 53 358 q 65 370 62 366 q 68 374 68 373 l 65 375 q 58 376 62 376 q 48 380 54 378 q 38 384 43 382 q 30 387 33 386 q 26 388 27 388 q 26 384 26 387 q 24 376 25 380 q 24 364 24 370 q 26 348 24 355 q 27 344 26 345 q 29 344 28 344 l 31 344 q 36 346 33 345 q 42 349 39 347 z "},"p":{"ha":363,"x_min":-26,"x_max":469,"o":"m 35 26 q -26 136 -14 42 q -26 162 -26 146 l -26 179 q -24 223 -26 206 q 70 479 -4 366 q 104 526 88 507 l 110 533 l 111 551 q 113 566 112 559 q 115 575 114 573 q 135 593 120 590 q 138 593 137 593 q 149 590 144 593 q 157 579 155 586 l 160 581 q 165 583 162 581 q 222 604 195 603 q 283 555 262 604 q 296 511 291 538 q 302 457 300 484 l 302 448 q 301 427 302 437 q 299 401 300 410 l 298 397 l 306 397 q 342 408 322 399 q 397 439 363 417 q 415 451 409 446 q 427 461 422 456 q 436 469 433 467 q 442 473 439 472 q 448 474 444 474 q 465 466 461 474 q 469 453 469 458 q 465 437 469 446 q 448 419 461 429 q 403 390 435 409 q 350 362 372 371 q 302 352 327 354 q 292 351 296 351 q 287 350 288 351 l 286 349 q 286 347 286 348 q 278 329 283 340 q 267 309 272 317 q 201 258 238 267 q 192 257 195 257 q 182 258 189 257 q 155 271 165 260 l 149 277 l 148 269 q 139 187 143 217 q 127 131 134 157 q 83 41 111 67 q 71 32 76 35 q 58 26 66 28 q 47 24 52 24 q 35 26 42 24 m 174 386 q 182 390 177 388 q 191 394 186 393 q 199 397 196 396 q 209 397 203 397 q 227 397 215 397 l 253 397 l 254 402 q 257 446 257 424 q 252 499 257 473 q 229 557 244 548 q 222 558 225 558 q 163 524 201 558 l 152 513 l 152 366 l 159 374 q 166 380 162 377 q 174 386 170 384 m 199 304 q 222 324 210 310 q 230 334 226 328 q 236 345 233 340 q 239 351 239 350 l 239 352 q 231 353 238 353 q 217 353 224 353 q 205 351 209 353 q 189 340 196 349 q 181 319 182 331 l 181 315 q 184 304 181 308 q 191 302 187 302 q 199 304 194 302 m 59 81 q 106 328 98 136 q 107 365 106 344 q 108 407 107 387 q 109 439 109 428 q 109 453 109 450 q 109 457 109 457 l 105 452 q 97 438 102 446 q 20 210 35 332 q 18 170 18 192 q 20 132 18 149 q 28 97 22 113 q 42 73 35 81 l 47 69 l 50 72 q 55 76 52 73 q 59 81 57 79 z "},"q":{"ha":332,"x_min":-12,"x_max":361,"o":"m 169 -20 q 107 121 119 -3 q 106 172 106 138 q 107 238 106 205 q 110 285 108 271 l 110 287 q 109 290 110 288 q 105 292 109 291 q 94 294 102 293 q 58 317 62 300 q 57 323 57 320 q 59 332 57 328 q 69 342 62 339 q 80 345 73 345 q 102 340 89 345 q 110 338 107 339 q 114 338 113 338 l 115 338 l 118 361 q 121 384 119 372 q 125 404 123 396 q 126 418 125 412 q 127 424 127 423 q 124 420 127 424 q 118 412 121 417 q 63 361 90 375 q 48 356 56 357 q 36 354 41 354 l 33 354 q 12 363 22 356 q -3 382 3 370 q -12 431 -12 404 q 14 534 -12 475 q 95 614 45 599 q 130 620 114 620 q 157 615 144 620 q 170 606 163 612 q 181 593 177 600 q 184 588 182 590 q 188 585 186 586 q 195 579 192 583 q 200 571 199 575 q 201 563 201 568 q 199 547 201 557 q 193 515 197 536 q 181 461 185 481 q 173 420 176 440 q 168 394 171 410 q 163 363 165 377 q 161 347 161 349 l 162 347 q 172 351 164 347 q 196 362 182 355 q 220 376 210 370 q 237 388 229 382 q 257 406 245 395 q 288 435 268 416 q 315 462 304 452 q 329 474 326 472 q 340 476 335 476 q 355 470 349 476 q 361 456 361 464 q 359 444 361 450 q 342 426 357 441 q 308 392 327 410 q 277 363 290 374 q 193 311 242 333 q 184 307 188 309 q 180 304 180 305 l 182 303 q 187 300 184 302 q 196 292 190 298 q 208 281 202 287 q 262 165 256 236 q 264 137 264 151 q 250 54 264 95 q 233 17 242 33 q 214 -8 223 0 q 182 -22 199 -22 q 169 -20 175 -22 m 48 404 q 98 461 68 418 q 146 547 127 505 l 152 560 l 149 568 q 142 576 146 574 q 132 579 138 579 q 115 577 125 579 q 98 570 105 574 q 82 557 91 566 q 67 540 73 549 q 42 481 50 512 q 33 429 33 450 q 34 417 33 422 q 40 400 35 400 q 43 401 41 400 q 48 404 45 402 m 198 46 q 219 137 219 91 q 213 186 219 161 q 165 260 203 230 q 158 265 161 263 q 155 267 155 267 q 151 185 151 265 q 152 130 151 149 q 157 92 153 111 q 179 26 165 43 l 182 23 l 187 28 q 192 36 189 31 q 198 46 195 41 z "},"r":{"ha":226,"x_min":-20,"x_max":260,"o":"m 117 273 q 79 315 90 278 q 77 340 77 325 q 81 386 77 359 q 84 427 84 409 q 81 452 84 441 q 56 483 76 474 q 50 485 52 484 q 46 485 47 486 q 43 484 45 485 q 37 483 41 484 q 31 482 34 482 q 16 487 22 482 q 7 500 9 492 q -1 509 5 505 q -18 532 -12 519 q -20 541 -20 536 q -20 554 -20 545 q -20 569 -20 564 q -17 581 -19 574 q -7 603 -12 593 q 7 621 -1 612 q 55 642 29 642 l 60 642 q 93 626 82 641 q 103 591 103 611 q 102 581 103 586 q 97 557 101 571 q 86 532 92 544 q 82 524 83 528 l 80 521 q 82 519 81 520 q 86 517 83 519 q 129 440 124 493 q 130 427 130 435 q 125 380 130 408 q 122 342 122 357 l 122 338 q 126 319 122 321 l 127 319 q 140 327 131 319 q 158 350 149 336 q 179 385 165 361 q 206 437 192 409 q 217 457 212 449 q 223 467 222 466 q 231 472 226 470 q 239 474 235 474 q 248 471 243 474 q 256 463 254 467 q 259 458 258 460 q 260 451 260 455 q 259 445 260 448 q 255 435 258 441 q 245 416 252 429 q 204 339 220 366 q 174 298 188 312 q 125 273 149 273 q 117 273 121 273 m 45 543 q 56 567 52 554 q 60 590 60 580 q 59 598 60 597 q 56 599 58 599 q 51 597 54 599 q 33 582 41 594 q 24 557 25 570 q 24 550 24 552 q 26 546 24 547 q 30 543 27 545 q 36 539 33 541 q 41 538 39 538 l 42 540 q 45 543 43 541 z "},"s":{"ha":224,"x_min":-102,"x_max":253,"o":"m -22 25 q -90 70 -68 31 q -96 83 -93 75 q -100 100 -98 92 q -102 127 -102 109 q -100 157 -102 145 q -58 245 -90 203 q 36 326 -17 297 l 50 334 l 44 342 q 43 345 43 343 q 35 356 40 349 q 25 372 30 364 q 6 404 14 389 q -3 425 -1 418 l -5 430 l -16 431 q -26 432 -22 431 q -33 435 -29 433 q -48 456 -48 444 q -43 471 -48 463 q -25 482 -36 482 q -20 482 -22 482 q -16 481 -18 482 q -15 481 -16 481 q -14 483 -14 481 q -13 487 -14 484 q -12 496 -13 490 q 47 609 -4 570 q 94 626 68 626 q 134 612 122 626 q 146 582 146 597 q 144 566 146 574 q 124 528 138 550 q 90 488 109 507 q 68 470 81 479 q 46 453 56 460 q 40 449 42 450 q 38 446 38 447 q 37 444 37 445 q 44 429 39 439 q 54 410 50 418 q 62 397 56 406 q 73 379 67 389 q 84 363 79 370 q 89 355 88 356 q 99 361 90 355 q 119 374 108 366 q 139 389 130 382 q 165 413 149 397 q 201 451 182 430 q 213 465 208 458 q 221 471 219 471 q 232 474 225 473 q 239 473 237 474 q 244 470 241 472 q 253 453 253 463 q 251 443 253 448 q 238 426 249 439 q 213 398 227 413 q 190 374 199 383 q 119 321 159 345 l 110 315 l 112 309 q 131 239 125 276 q 132 216 132 229 l 132 202 q 128 167 131 180 q 71 62 114 104 q -12 24 31 24 q -22 25 -18 24 m 59 519 q 98 570 86 547 q 100 578 100 576 l 100 579 q 94 581 100 581 q 59 559 76 580 q 35 509 41 538 q 34 502 34 505 q 33 498 33 499 l 33 496 q 37 498 34 496 q 45 506 39 500 q 59 519 52 511 m 7 73 q 23 81 15 75 q 41 97 31 86 q 58 116 52 108 q 71 136 64 125 q 87 210 87 168 q 74 283 87 250 l 70 294 l 60 289 q -37 197 -1 254 q -57 126 -57 159 q -52 95 -57 110 q -33 74 -45 79 q -12 70 -21 70 q 7 73 -3 70 z "},"t":{"ha":219,"x_min":-130,"x_max":398,"o":"m 81 237 q 1 359 19 260 q -2 391 -1 373 q -3 423 -3 409 l -3 435 l -8 436 q -23 450 -20 441 q -26 464 -26 459 q -22 479 -26 472 q -6 491 -18 490 l 0 492 l 1 505 q 6 538 3 519 q 13 572 9 556 q 15 585 14 581 q 16 591 16 589 l 16 591 l 13 591 q 5 590 9 591 q -16 589 -4 589 l -27 589 q -58 593 -46 590 q -107 627 -91 602 q -118 647 -111 633 q -127 674 -124 662 q -130 688 -130 682 q -117 709 -130 703 q -109 711 -112 711 q -100 709 -104 711 q -90 692 -90 703 q -86 677 -90 688 q -77 655 -82 667 q -26 632 -67 632 l -22 632 q 7 634 -9 632 q 28 639 22 637 q 30 643 28 640 q 33 651 32 646 q 38 665 35 656 q 45 683 41 674 q 117 803 77 762 q 170 830 144 830 l 174 830 q 219 787 210 827 q 221 766 221 779 q 220 750 221 759 q 213 706 218 726 q 212 700 212 702 q 211 696 211 697 q 219 698 212 696 q 237 703 227 700 q 278 711 264 709 q 307 713 291 713 q 335 711 323 713 q 357 703 347 709 q 387 677 376 694 q 398 646 398 661 l 398 644 q 392 626 397 634 q 380 614 387 618 q 372 612 376 612 q 363 613 368 612 q 351 623 355 616 q 349 633 349 628 q 351 644 349 639 q 353 648 353 646 q 351 652 353 650 q 342 660 348 656 q 332 666 337 664 q 315 668 323 668 q 304 669 307 669 q 286 667 295 669 q 265 663 280 667 q 234 655 250 660 q 204 648 217 651 q 191 644 192 644 q 188 637 191 644 q 180 621 184 631 q 140 553 161 585 q 54 456 95 486 l 41 446 l 42 418 q 58 322 43 355 q 100 280 77 280 q 111 282 105 280 q 162 351 135 296 q 174 377 166 359 q 191 416 182 396 q 213 467 210 463 q 217 470 214 469 q 222 473 219 471 q 227 474 225 474 q 233 474 229 475 q 247 464 243 471 q 250 451 250 456 q 249 441 250 446 q 235 408 244 430 q 217 363 227 385 q 203 332 208 342 q 121 238 164 253 q 105 235 111 235 q 97 235 99 235 q 81 237 88 235 m 138 674 l 158 681 l 161 692 q 173 732 169 712 q 176 765 176 752 l 176 769 q 171 785 176 784 l 170 785 q 149 771 163 785 q 103 704 125 749 q 95 686 100 696 q 86 667 90 675 q 83 656 83 658 q 87 658 84 656 q 100 662 93 659 q 118 668 107 665 q 138 674 129 671 m 76 539 q 116 600 97 567 q 123 612 121 608 q 127 620 126 617 q 129 623 129 622 q 129 624 130 624 l 122 622 q 106 616 115 619 q 87 609 96 612 q 75 606 79 606 l 65 603 l 62 589 q 54 548 58 570 q 47 510 50 526 l 47 505 l 54 513 q 64 524 58 516 q 76 539 70 532 z "},"u":{"ha":260,"x_min":-12,"x_max":292,"o":"m 189 290 q 146 330 165 298 q 137 351 142 338 q 129 377 132 364 q 126 388 127 384 q 124 393 125 392 l 117 381 q 45 321 81 321 q 38 322 41 321 q 11 336 23 324 q -9 374 -3 349 q -12 404 -12 386 l -12 416 q -6 472 -12 443 q 2 500 -3 491 q 15 513 7 510 q 24 516 20 516 q 34 515 28 517 q 44 505 43 511 q 45 498 45 500 q 40 484 45 491 q 37 478 38 481 q 35 469 35 475 q 30 431 31 445 q 29 414 29 418 q 31 387 29 397 q 45 366 37 366 l 46 366 q 56 374 50 368 q 68 389 63 381 q 115 479 90 420 q 120 491 117 486 q 123 498 123 496 q 136 507 131 507 q 142 507 142 507 q 159 499 153 507 q 163 493 162 496 q 165 482 165 489 q 164 463 165 475 l 164 451 q 165 429 164 439 q 170 399 166 414 q 195 339 179 357 l 201 332 l 204 336 q 212 348 208 340 q 220 363 217 356 q 226 381 223 370 q 235 414 229 392 q 251 465 245 458 q 268 473 258 473 l 271 473 q 289 461 283 473 q 292 452 292 456 q 289 441 292 447 q 284 428 288 439 q 278 403 281 417 q 267 361 271 374 q 257 336 263 348 q 205 288 234 288 l 204 288 q 195 289 199 288 q 189 290 191 289 z "},"v":{"ha":278,"x_min":-9,"x_max":314,"o":"m 63 269 q 9 313 29 275 q 1 333 4 322 q -6 357 -3 343 q -9 375 -8 367 q -9 400 -9 384 l -9 414 q -9 441 -9 428 q -3 484 -7 460 q 3 511 0 503 q 10 524 5 519 q 28 531 19 531 l 29 531 q 43 520 39 530 q 46 511 46 515 q 43 502 46 507 q 36 472 39 494 q 33 435 33 450 q 33 414 33 420 q 34 383 33 397 q 47 337 37 356 q 68 314 56 318 q 74 313 72 313 q 79 315 76 313 q 102 333 89 318 q 125 368 115 349 l 129 374 l 123 382 q 104 420 110 399 q 101 441 101 432 q 100 454 100 451 q 102 473 100 465 q 113 500 104 488 q 130 518 121 513 q 146 522 138 522 q 163 518 155 522 q 189 491 180 511 q 197 450 197 472 q 190 402 197 428 q 189 397 189 399 q 189 395 189 395 l 189 394 l 189 394 q 194 395 191 394 q 203 398 198 396 q 213 402 209 400 q 227 414 217 406 q 247 431 237 422 q 260 446 256 440 q 266 452 263 448 q 271 460 269 456 q 288 475 279 473 q 294 476 291 476 q 312 463 305 476 q 314 454 314 459 q 301 424 314 441 q 286 408 297 419 q 264 387 275 397 q 247 371 253 376 q 228 360 239 366 q 208 352 216 354 q 192 350 201 350 q 179 350 184 350 l 172 350 q 169 350 170 351 q 166 347 168 350 q 161 339 164 345 l 160 338 q 106 277 132 293 q 72 268 88 268 q 63 269 67 268 m 152 448 q 151 470 152 466 q 149 472 149 472 q 147 471 148 473 q 146 460 146 469 q 146 443 146 452 q 147 430 146 434 l 148 430 q 149 426 149 426 q 151 428 150 426 q 152 435 151 429 q 152 448 152 441 z "},"w":{"ha":355,"x_min":-9,"x_max":378,"o":"m 174 271 q 168 274 172 272 q 159 277 163 275 q 111 392 116 300 l 110 410 l 106 403 q 69 361 90 372 q 45 355 57 355 q 27 358 36 355 q 15 367 21 361 q 5 380 9 374 q -6 420 -3 397 q -9 462 -9 444 q -7 487 -9 474 q -1 530 -5 519 q 16 541 4 541 l 17 541 q 36 530 31 541 q 39 522 39 526 q 37 513 39 517 q 35 505 36 511 q 33 491 34 498 l 33 478 q 34 450 33 465 q 39 414 35 429 q 45 399 42 399 q 53 404 48 399 q 63 418 58 410 q 70 429 66 423 q 79 449 73 435 q 98 489 85 463 q 109 510 104 500 q 115 522 113 519 q 128 532 122 532 q 134 532 134 532 q 152 524 144 532 q 156 517 155 521 q 157 506 157 513 q 157 484 157 498 q 156 453 157 472 q 156 417 156 434 q 156 382 156 393 q 158 365 157 372 q 177 319 165 331 q 181 316 179 317 q 183 315 182 315 q 186 316 184 315 q 191 319 188 317 q 208 338 198 323 q 228 370 218 352 l 234 382 l 222 394 q 208 412 213 404 q 199 433 202 421 q 196 445 197 439 q 196 464 196 451 q 196 478 196 473 q 197 487 197 484 q 199 494 198 490 q 231 535 210 525 q 248 538 239 538 q 263 535 256 538 q 294 492 285 523 q 297 480 296 486 q 297 460 297 474 q 295 429 297 439 q 294 422 294 425 q 295 419 294 420 l 296 419 q 308 424 298 419 q 321 433 315 427 q 339 451 328 438 q 358 461 348 461 q 363 460 360 461 q 372 454 368 459 q 378 444 376 449 l 378 441 q 365 412 378 429 q 326 383 351 395 q 291 372 310 375 l 278 371 l 271 355 q 214 280 242 299 q 183 271 199 271 q 174 271 178 271 m 252 484 q 248 509 252 503 l 247 510 q 245 509 246 510 q 241 484 241 501 l 241 480 q 242 464 241 469 q 247 454 243 458 l 250 449 l 252 459 q 252 475 252 466 l 252 484 z "},"x":{"ha":210,"x_min":-27,"x_max":243,"o":"m -12 203 q -23 211 -18 205 q -27 225 -27 218 q -21 244 -27 229 q 1 296 -15 260 l 24 345 l 17 358 q -5 443 -3 397 q -5 456 -5 452 q -4 464 -5 461 q -2 468 -3 466 q 18 479 5 479 q 26 476 22 479 q 33 469 31 473 q 34 462 34 468 q 35 448 35 456 q 37 433 36 440 q 38 421 37 425 q 41 409 39 415 q 44 399 43 404 q 46 395 45 395 q 48 399 47 395 q 53 407 50 402 q 78 451 64 429 q 100 484 92 474 q 121 494 110 494 q 133 490 127 494 q 140 477 139 485 q 140 473 140 475 q 132 458 140 465 q 121 444 127 453 q 104 415 115 434 q 92 391 99 405 q 79 365 85 376 q 74 351 74 353 q 77 347 74 350 q 84 342 80 345 q 90 339 87 340 q 94 338 92 338 q 127 359 107 338 q 145 380 136 368 q 170 416 154 392 q 193 452 184 440 q 206 468 201 463 q 216 473 211 472 q 222 474 219 474 q 235 469 229 474 q 243 452 243 463 q 242 447 243 450 q 238 438 241 444 q 228 424 235 433 q 217 407 224 418 q 203 387 210 397 q 191 367 197 376 q 180 352 184 357 q 161 330 172 342 q 142 312 151 318 q 96 294 118 294 q 62 304 79 294 q 58 307 60 306 q 56 308 56 308 l 54 305 q 51 297 53 302 q 44 281 49 292 q 33 258 39 270 q 23 236 28 246 q 17 221 19 225 q 2 203 12 208 q -4 202 -1 202 q -7 202 -6 202 q -12 203 -9 202 z "},"y":{"ha":281,"x_min":-31,"x_max":444,"o":"m 120 -211 q 57 -185 88 -207 q 3 -132 25 -163 q -29 -53 -27 -85 q -31 -14 -31 -21 q -9 81 -31 36 q 6 108 -4 93 q 26 134 16 123 q 189 235 75 190 q 266 272 236 254 l 270 274 q 279 280 276 277 q 282 285 281 282 q 282 294 282 288 l 282 298 q 280 335 281 313 q 277 379 279 357 q 275 404 276 390 q 272 428 273 418 q 270 439 271 439 l 269 435 q 264 423 267 430 q 205 315 230 334 q 182 308 193 308 q 167 311 174 308 q 137 349 149 320 q 127 387 130 366 q 123 440 123 408 q 123 462 123 452 q 125 493 123 481 q 134 515 127 510 q 149 522 141 522 q 163 515 156 522 q 170 503 169 509 q 170 496 170 498 q 167 481 170 488 l 163 476 l 164 447 q 167 409 165 424 q 172 380 169 393 q 178 363 175 371 q 182 356 181 356 q 185 359 183 356 q 189 365 186 361 q 233 471 208 399 q 249 512 243 501 q 264 526 256 524 q 275 528 269 528 q 300 509 290 528 q 315 441 308 488 q 325 342 323 393 q 326 328 326 334 q 327 321 326 322 q 328 320 327 320 q 331 322 329 320 q 337 328 333 324 q 350 342 345 337 q 361 357 354 347 q 378 390 370 372 q 397 443 385 408 q 400 454 398 449 q 404 463 403 460 q 422 473 412 473 l 425 473 q 443 458 438 472 q 444 451 444 454 l 444 447 q 439 429 443 441 q 428 395 435 416 q 414 359 420 372 q 394 328 407 346 q 375 302 385 314 q 347 277 364 291 l 328 260 l 328 252 q 328 223 328 243 q 326 181 327 202 q 324 149 325 160 q 250 -143 311 -60 q 174 -204 218 -186 q 132 -212 153 -212 q 120 -211 126 -212 m 155 -163 q 198 -135 177 -157 q 209 -122 203 -129 q 218 -111 215 -116 q 281 199 274 -24 q 282 220 282 212 q 282 229 282 228 l 281 229 q 279 227 280 228 q 248 212 271 222 q 206 193 225 201 q 73 117 115 157 q 14 -12 14 62 l 14 -22 q 84 -150 19 -106 q 133 -166 109 -166 q 155 -163 144 -166 z "},"z":{"ha":276,"x_min":-20,"x_max":309,"o":"m 39 54 q -17 104 -4 64 q -19 119 -19 113 q -20 129 -20 126 q -18 142 -20 136 q 16 199 -11 172 q 36 217 24 208 q 75 245 47 226 q 144 298 121 279 l 153 305 l 151 309 q 120 325 141 321 l 116 325 q 104 323 110 325 q 83 315 96 321 q 73 311 76 313 q 67 309 69 309 q 64 309 65 309 l 61 309 q 42 321 47 310 q 40 330 40 325 l 40 332 q 44 350 40 337 q 58 389 48 363 q 84 463 77 440 q 92 500 92 486 l 92 513 l 89 513 q 58 490 77 509 q 31 454 40 472 q 28 449 29 451 q 28 446 28 448 q 28 442 28 444 q 29 435 29 439 q 20 419 29 425 q 9 416 14 416 q -3 420 2 416 q -14 443 -14 428 q 3 488 -14 460 q 45 535 21 515 q 96 557 71 557 q 135 522 127 557 q 137 505 137 515 q 108 393 137 469 l 98 369 l 107 370 l 114 370 q 146 364 130 370 q 179 345 165 357 l 186 338 l 195 348 q 220 382 208 364 q 248 429 231 399 q 262 455 257 446 q 271 468 267 464 q 277 473 274 471 q 288 475 283 475 q 296 474 292 475 q 309 459 305 470 q 309 454 309 457 l 309 452 q 307 444 309 449 q 299 430 304 439 q 287 408 294 420 q 282 399 284 403 q 215 304 251 342 l 205 294 l 205 271 q 203 240 205 253 q 196 209 201 227 q 173 152 187 181 q 141 102 158 123 q 125 84 134 94 q 109 71 115 75 q 94 62 102 66 q 78 56 85 58 q 63 53 70 53 q 53 53 56 53 q 39 54 45 53 m 73 101 q 117 145 94 111 q 153 223 140 180 q 156 233 155 227 q 158 244 157 239 q 159 252 159 250 l 155 248 q 142 239 149 245 q 121 224 134 233 q 97 206 109 214 q 62 180 73 189 q 44 164 52 172 q 25 125 25 143 q 26 119 25 122 q 46 98 29 103 q 54 98 50 98 l 60 98 q 73 101 67 98 z "},"{":{"ha":412,"x_min":69,"x_max":343,"o":"m 191 83 q 149 105 168 88 q 108 200 111 141 l 108 206 q 111 243 108 222 q 126 315 115 268 q 137 361 137 355 q 136 363 137 363 q 132 363 136 363 q 121 363 127 363 q 113 364 117 363 q 95 365 102 364 q 85 367 89 366 q 78 371 81 368 q 71 382 72 376 q 69 392 69 389 q 71 401 69 397 q 77 412 71 403 q 90 432 83 420 q 142 528 130 489 q 157 623 157 567 q 154 675 157 648 q 150 745 150 720 q 151 760 150 754 q 171 837 153 804 q 217 884 189 869 q 246 891 233 891 q 275 882 262 891 q 302 843 294 867 q 311 800 311 818 q 310 785 311 792 q 306 774 309 778 q 299 767 304 770 q 295 765 296 766 q 292 765 293 765 l 288 765 q 281 766 283 765 q 276 770 279 767 q 269 785 269 776 q 270 789 269 787 q 271 799 271 795 l 271 802 q 269 814 271 807 q 259 838 265 828 q 248 848 252 848 q 225 837 237 848 q 206 808 214 826 q 196 769 197 786 q 195 743 195 752 q 199 684 195 720 q 201 628 201 657 q 200 581 201 598 q 171 479 194 527 q 138 421 157 450 q 132 413 134 416 q 130 410 130 410 q 134 409 131 410 q 140 407 136 408 q 179 376 172 401 q 182 361 182 370 q 179 340 182 354 q 170 302 176 327 q 156 245 159 262 q 153 208 153 227 q 154 190 153 195 q 156 178 155 184 q 210 126 172 128 q 221 127 215 126 q 239 133 228 129 q 271 146 251 138 q 298 157 289 153 q 311 161 307 160 q 319 161 315 161 q 323 162 321 162 q 327 161 326 162 q 333 158 330 161 q 341 148 340 153 q 343 139 343 142 q 341 130 343 134 q 334 122 338 126 q 326 118 330 119 q 312 113 323 117 q 283 102 300 109 q 254 91 267 96 q 235 85 240 86 q 217 82 224 82 q 206 82 210 82 q 191 83 198 82 z "},"|":{"ha":217,"x_min":69,"x_max":149,"o":"m 100 96 q 76 113 81 96 q 72 165 74 121 q 69 274 71 209 l 69 314 q 73 469 69 386 q 87 671 78 576 q 91 710 88 684 q 97 760 94 735 q 102 797 100 785 q 106 840 106 830 l 106 844 q 106 851 106 847 q 106 859 106 854 q 115 871 109 867 q 128 876 121 876 q 141 871 136 876 q 147 860 146 866 q 149 848 149 854 q 148 838 149 843 q 146 815 147 829 q 143 787 144 801 q 114 365 118 555 l 114 330 q 115 252 114 294 q 118 136 115 190 q 119 121 119 127 q 118 113 119 115 q 111 102 117 106 q 100 96 106 97 z "},"}":{"ha":357,"x_min":68,"x_max":289,"o":"m 91 77 q 79 84 85 79 q 71 96 73 90 q 68 105 68 100 q 68 111 68 110 q 70 121 68 117 q 93 138 78 138 l 95 138 q 111 128 106 138 q 113 124 112 125 q 114 123 113 123 q 117 125 115 123 q 132 133 123 127 q 146 145 140 139 q 187 245 184 180 l 187 252 q 186 272 187 262 q 180 304 184 286 q 176 321 178 313 q 174 333 174 330 l 174 335 q 239 395 174 378 q 242 397 241 396 q 243 398 243 397 q 243 401 243 399 q 239 416 243 404 q 229 445 235 429 q 205 532 212 496 q 199 610 199 568 q 218 757 199 675 q 229 806 226 791 q 231 829 231 820 l 231 838 q 230 849 231 846 q 222 853 228 853 l 219 853 q 210 852 214 853 q 194 846 203 850 q 157 819 174 836 l 147 810 l 148 804 l 148 801 q 134 782 148 787 q 129 781 132 781 q 114 787 121 781 q 104 808 104 795 q 124 845 104 824 q 196 892 157 878 q 222 897 210 897 q 258 883 243 897 q 274 855 269 873 q 276 848 275 851 q 276 840 276 844 q 276 827 276 835 q 274 809 275 817 q 270 785 273 800 q 260 742 267 770 q 243 609 243 669 q 250 537 243 570 q 273 455 256 505 q 286 414 283 427 q 289 393 289 402 q 281 365 289 374 q 254 353 273 356 q 233 346 243 351 q 220 338 222 341 q 219 336 219 337 q 223 315 219 330 q 230 283 229 292 q 231 262 231 273 l 231 249 q 191 127 231 177 q 175 110 183 117 q 156 96 168 103 q 117 77 136 82 q 104 75 109 75 q 91 77 98 75 z "},"¡":{"ha":206,"x_min":74,"x_max":138,"o":"m 88 771 q 92 772 91 772 q 95 772 94 772 q 99 771 96 772 q 121 743 115 766 q 122 734 122 739 q 109 713 122 719 q 102 712 105 712 q 79 732 89 712 q 74 751 74 743 q 81 766 74 760 q 84 770 82 768 q 88 771 87 771 m 104 646 q 107 647 106 647 q 109 648 109 648 l 111 647 q 116 646 113 646 q 133 627 129 642 q 134 621 134 624 q 132 615 134 618 q 131 607 131 612 q 130 587 130 601 q 130 547 130 574 l 130 520 q 130 493 130 508 q 132 447 130 477 q 136 354 134 416 q 138 305 138 333 q 138 254 138 277 q 136 224 138 231 q 117 200 132 203 l 113 200 q 86 233 94 200 q 85 237 85 235 q 94 253 85 247 l 98 257 l 97 279 q 96 308 97 288 q 93 347 94 327 q 85 480 87 429 q 85 547 85 514 l 85 581 q 85 606 85 597 q 86 621 85 616 q 87 628 86 626 q 88 633 87 631 q 104 646 94 643 z "},"¢":{"ha":373,"x_min":46,"x_max":338,"o":"m 180 199 q 164 222 168 205 q 162 239 163 227 q 160 268 161 252 q 159 296 159 284 q 158 311 159 304 q 157 321 158 318 l 157 326 l 145 326 l 139 326 q 66 376 93 326 q 46 473 46 418 q 53 541 46 505 q 90 626 64 589 q 147 678 115 663 l 154 682 l 155 695 l 155 762 l 159 767 q 174 776 165 776 q 179 775 177 776 q 195 758 191 772 q 196 744 195 754 q 197 721 196 734 l 197 690 l 210 690 q 265 666 243 688 q 279 637 279 653 l 279 633 q 267 609 279 615 q 258 606 262 606 q 250 609 255 606 q 239 628 239 614 q 239 634 239 633 q 235 638 238 636 q 208 648 226 648 q 199 647 201 648 q 197 646 197 647 q 196 610 196 642 q 196 535 196 578 q 197 456 197 492 q 199 412 198 421 l 199 406 l 211 417 q 243 454 225 431 q 276 497 262 476 q 294 527 291 517 q 307 543 299 540 q 315 545 311 545 q 329 540 323 545 q 338 520 338 532 l 338 517 q 336 510 338 514 q 333 503 335 507 q 309 466 327 491 q 272 417 292 441 q 241 384 260 404 q 210 355 221 363 l 202 349 l 202 339 q 203 303 202 326 q 206 260 204 281 q 209 230 208 239 q 210 221 210 223 q 210 218 210 218 q 210 213 210 215 q 204 204 208 208 q 195 199 200 200 q 189 197 191 197 l 187 197 q 180 199 184 197 m 150 371 q 153 372 152 372 l 155 373 q 155 376 155 374 q 155 381 155 378 q 154 399 155 389 q 152 486 153 446 q 152 547 152 526 l 152 586 q 153 618 153 605 q 153 631 153 631 q 147 627 152 631 q 137 616 142 623 q 127 604 132 609 q 91 484 94 553 l 91 475 q 100 412 91 440 q 127 373 110 382 q 141 370 134 370 q 150 371 145 370 z "},"£":{"ha":516,"x_min":39,"x_max":481,"o":"m 52 161 q 39 181 39 169 q 41 192 39 186 q 102 240 52 212 q 119 250 113 245 q 135 263 125 254 q 259 422 217 338 q 265 434 263 429 q 268 439 267 438 q 269 441 269 441 l 268 442 l 266 442 q 236 439 259 442 q 192 433 214 437 q 164 428 170 429 q 154 426 159 426 q 142 429 147 426 q 133 446 133 435 q 154 467 133 463 q 248 484 174 473 q 276 487 264 486 q 288 490 288 489 q 291 495 289 490 q 294 506 292 500 q 298 518 296 513 q 299 524 299 523 q 291 523 298 524 q 274 521 284 522 q 244 517 262 519 q 208 514 225 515 q 180 511 189 512 q 166 509 170 510 q 159 507 162 508 q 149 504 153 504 q 137 508 142 504 q 127 526 127 515 q 140 544 127 536 q 205 555 150 549 q 254 561 230 558 q 293 567 277 564 q 309 570 309 570 q 312 584 311 572 q 313 610 313 596 q 314 633 314 624 q 313 651 313 637 q 311 679 312 664 q 310 713 310 699 q 311 738 310 728 q 321 774 313 758 q 336 795 328 785 q 353 808 345 804 q 379 814 366 814 q 430 790 406 814 q 458 723 457 762 q 458 714 458 717 q 457 709 458 711 q 455 706 456 707 q 446 699 450 700 q 439 697 441 697 q 430 700 435 697 q 422 708 425 702 q 418 724 419 713 q 401 760 415 747 q 378 772 389 772 q 362 758 370 772 q 355 737 356 748 q 355 719 355 726 q 357 679 355 703 q 358 626 358 654 q 357 585 358 597 l 357 581 l 356 576 q 361 576 357 576 q 372 577 365 576 q 441 583 417 583 q 459 581 453 583 q 473 570 470 578 q 475 559 475 563 q 471 547 475 553 q 458 537 467 539 q 446 534 450 534 q 437 536 441 534 q 431 537 433 537 q 427 538 429 538 q 422 537 425 538 q 405 535 416 536 q 382 533 394 534 q 360 531 370 532 q 350 530 351 530 q 348 528 349 529 q 346 522 347 526 q 344 515 345 519 q 341 506 342 510 q 339 499 340 502 q 338 495 338 496 l 349 495 q 365 496 354 496 q 386 496 375 496 q 401 497 395 497 q 409 497 406 497 q 413 496 412 496 q 417 494 415 495 q 429 474 429 486 l 429 473 q 414 453 428 460 q 408 452 412 452 q 397 452 404 452 l 391 452 q 330 449 372 452 l 321 448 l 317 440 q 299 402 311 426 q 278 363 286 378 q 220 285 254 324 q 217 280 217 281 l 218 280 q 254 290 224 282 q 318 306 284 298 q 368 318 351 314 q 446 339 419 330 q 459 342 454 342 q 470 340 465 342 q 480 329 479 334 q 481 321 481 323 q 475 306 481 313 q 466 299 472 302 q 445 292 460 296 q 428 287 437 289 q 401 280 418 284 q 354 269 385 276 q 296 254 332 263 q 230 237 261 245 q 189 226 199 229 q 159 216 172 221 q 142 208 146 211 q 135 203 140 207 q 124 194 130 199 q 90 170 106 179 q 65 159 74 160 q 58 159 61 159 q 52 161 56 159 z "},"¥":{"ha":439,"x_min":44,"x_max":406,"o":"m 294 131 q 278 146 283 134 q 275 159 275 153 q 277 169 275 164 q 279 172 278 170 q 280 179 279 174 q 281 192 280 183 q 282 215 281 201 q 283 252 283 230 q 286 307 285 285 q 286 330 286 330 l 286 330 q 275 329 283 330 q 251 325 265 328 q 223 320 237 323 q 203 317 210 318 q 195 315 199 316 q 189 312 191 313 q 180 310 184 310 q 170 313 174 310 q 160 330 160 319 q 174 351 160 345 q 247 367 183 355 q 276 373 264 370 q 288 375 288 375 q 289 384 289 376 q 290 405 290 392 q 292 434 291 418 q 294 463 293 450 q 295 485 294 475 q 295 496 295 494 l 295 501 l 287 489 q 193 412 245 427 q 168 408 180 408 q 144 411 156 408 q 69 484 96 425 q 44 617 44 538 q 49 688 44 650 q 54 726 51 707 q 59 755 57 746 q 60 762 60 758 q 60 770 60 766 q 61 779 60 775 q 64 786 62 782 q 85 806 73 806 q 94 803 90 806 q 99 800 98 802 q 103 793 101 798 l 106 787 l 104 774 q 89 628 89 695 q 90 591 89 609 q 148 457 100 483 q 167 452 157 452 q 193 460 179 452 q 296 608 249 486 q 304 628 302 621 q 308 646 307 636 q 312 676 310 656 q 339 827 327 803 q 353 841 346 840 q 361 843 359 843 q 378 835 370 843 q 386 824 384 830 q 387 803 387 817 l 387 795 q 359 648 387 737 q 354 632 355 637 q 351 618 352 626 q 349 593 350 610 q 342 515 345 557 q 337 441 339 474 q 336 420 337 431 q 334 395 335 401 l 334 384 q 341 385 335 384 q 357 387 348 386 q 374 390 369 389 q 382 391 379 391 l 384 391 q 389 390 387 391 q 406 368 406 383 q 381 346 406 349 q 349 341 363 344 q 334 338 335 339 q 329 271 332 336 q 327 211 328 234 q 325 174 326 187 q 323 153 324 160 q 321 143 322 146 q 317 138 319 140 q 300 130 310 130 q 294 131 298 130 z "},"§":{"ha":745,"x_min":68,"x_max":674,"o":"m 237 22 q 216 25 227 22 q 199 32 205 28 q 167 85 167 48 q 189 138 167 116 q 227 165 204 153 q 242 169 236 169 q 248 168 245 169 q 258 158 256 164 q 260 146 260 151 q 259 139 260 143 q 252 127 257 132 q 240 120 247 123 q 223 109 231 115 q 211 85 211 97 q 212 79 211 82 q 228 68 216 71 q 246 66 239 66 q 269 68 257 66 q 286 76 276 71 q 304 87 296 81 q 323 105 313 94 q 341 127 334 117 q 360 166 354 146 q 366 203 366 186 q 365 217 366 210 q 355 240 363 228 q 336 263 347 253 q 298 288 319 277 q 233 315 277 299 q 174 339 194 330 q 136 361 153 349 q 70 450 81 399 q 68 471 68 459 q 70 494 68 484 q 145 629 81 551 q 239 721 191 684 q 287 787 258 752 q 474 931 373 892 q 561 951 520 949 l 565 951 q 671 893 647 951 q 674 871 674 883 q 671 846 674 859 q 610 758 659 804 q 550 714 574 721 q 539 711 543 711 q 530 714 534 711 q 520 724 522 718 q 518 734 518 730 q 521 745 518 739 q 528 753 524 751 q 539 756 532 755 q 547 757 544 756 q 553 762 549 758 q 576 783 562 768 q 600 808 591 797 q 630 870 630 846 q 628 881 630 876 q 595 904 621 896 q 566 906 585 906 q 534 903 548 905 q 461 876 498 895 q 346 786 401 845 q 258 653 274 708 q 255 641 256 646 q 254 627 254 635 q 255 616 255 620 q 257 610 256 613 q 261 601 258 606 q 268 588 264 593 q 280 576 272 583 q 330 540 300 555 q 345 533 338 536 q 363 525 352 530 q 397 513 375 521 q 467 482 442 496 q 512 450 492 468 q 543 408 532 430 q 553 359 553 385 q 535 286 553 325 q 480 215 514 244 q 410 180 446 186 q 393 129 406 155 q 335 55 372 85 q 262 22 299 26 q 258 22 260 22 q 254 21 256 22 q 250 21 252 21 q 245 21 249 21 q 237 22 241 21 m 210 634 q 207 631 208 633 l 204 628 q 116 495 133 550 q 114 484 114 488 q 113 477 113 480 l 113 469 q 114 458 113 462 q 115 452 114 455 q 119 443 117 448 q 127 430 123 435 q 138 418 130 425 q 189 382 159 397 q 204 375 197 378 q 222 367 211 372 q 256 355 234 363 q 326 324 300 338 q 370 292 351 310 q 401 250 391 272 q 409 227 406 239 l 410 227 q 428 234 418 229 q 446 245 438 239 q 465 263 454 252 q 483 285 476 275 q 502 324 495 304 q 508 360 508 345 q 507 374 508 368 q 496 398 505 385 q 477 421 488 411 q 440 446 461 435 q 374 473 418 457 q 315 497 336 488 q 278 519 295 507 q 212 608 222 557 q 210 628 210 616 l 210 634 z "},"©":{"ha":550,"x_min":83,"x_max":482,"o":"m 227 382 q 157 450 172 392 q 156 468 156 460 q 156 479 156 476 q 157 496 156 489 q 193 565 165 537 q 247 591 220 591 q 254 590 250 591 q 287 571 280 584 q 294 551 294 559 q 286 531 294 541 q 269 523 278 523 q 258 526 264 523 q 247 543 249 530 l 246 550 l 239 547 q 224 536 232 545 q 210 518 216 528 q 202 498 204 507 q 200 475 200 488 q 201 462 200 467 q 203 454 201 458 q 237 427 214 427 q 248 428 243 427 q 279 443 262 432 q 308 466 296 453 q 321 481 311 469 q 342 507 331 493 q 365 535 357 526 q 377 546 373 544 q 388 548 382 548 q 408 536 401 548 q 410 528 410 532 q 405 515 410 521 q 387 490 401 508 q 357 455 372 473 q 337 431 342 437 q 284 394 311 406 q 235 381 256 381 q 227 382 231 381 m 234 256 q 166 279 193 262 q 145 298 157 286 q 125 321 133 310 q 109 350 117 332 q 95 383 100 368 q 83 459 83 420 q 100 557 83 506 q 186 687 129 644 q 229 704 211 704 q 247 699 239 704 l 252 695 l 266 701 q 289 710 279 707 q 310 715 298 713 q 341 718 328 718 l 347 718 q 380 712 361 718 q 441 675 419 701 q 480 594 470 645 q 482 559 482 580 q 480 523 482 539 q 383 317 456 403 q 302 260 345 276 q 260 254 282 254 q 234 256 247 254 m 279 300 q 352 349 316 309 q 413 453 389 392 q 438 559 438 513 q 406 648 438 615 q 372 667 393 661 q 353 673 358 672 q 344 673 347 673 q 330 673 338 673 q 307 669 317 671 q 285 661 298 666 q 270 654 277 658 q 256 649 262 651 q 246 645 252 648 q 236 642 240 643 q 222 637 229 637 q 208 644 214 637 l 203 648 l 193 637 q 130 497 146 587 q 128 458 128 480 q 131 421 128 435 q 149 370 136 396 q 208 309 172 321 q 239 300 224 302 q 261 298 254 298 q 279 300 271 298 z "},"ª":{"ha":330,"x_min":34,"x_max":295,"o":"m 188 705 q 166 717 176 707 q 148 739 155 726 q 128 831 129 774 l 127 854 l 121 844 q 79 796 98 806 q 65 793 72 793 q 39 810 50 793 q 35 823 37 817 q 34 842 34 830 q 52 913 35 879 q 92 961 68 948 q 116 967 103 967 q 134 964 124 967 q 138 964 136 964 q 140 964 140 964 q 141 964 140 964 q 144 967 142 966 q 149 970 146 969 q 155 972 152 972 l 157 972 q 169 968 163 972 q 177 956 175 964 q 178 950 178 953 q 178 943 178 948 q 176 930 177 939 q 171 899 172 912 q 168 871 169 886 q 167 846 167 859 l 167 832 q 169 799 168 811 q 182 758 174 773 q 199 743 191 743 l 201 743 q 244 836 221 751 q 256 910 253 868 q 258 922 258 918 q 260 928 259 926 q 264 932 261 930 q 277 939 271 939 q 290 932 283 939 q 294 926 293 930 q 295 916 295 922 l 295 910 q 292 881 294 900 q 273 795 286 838 q 244 732 259 753 q 233 719 239 726 q 220 709 227 713 q 197 704 209 704 q 188 705 193 704 m 81 851 q 94 873 87 861 q 111 907 101 886 q 119 924 116 917 l 123 931 q 121 932 123 932 q 117 932 119 932 q 112 931 115 932 q 107 929 110 930 q 89 905 98 922 q 75 867 80 888 q 73 856 74 862 q 73 846 73 849 q 73 843 73 844 q 73 841 73 841 q 76 844 73 842 q 81 851 78 847 z "},"®":{"ha":319,"x_min":43,"x_max":286,"o":"m 163 756 q 148 773 152 758 q 147 783 147 777 q 149 802 147 790 q 150 817 150 810 q 149 829 150 824 q 138 841 146 838 q 136 842 136 842 q 134 842 135 842 q 133 842 134 842 q 131 841 132 841 q 128 841 130 841 q 122 843 125 841 q 119 848 119 845 q 115 852 118 850 q 109 861 111 856 q 107 864 108 863 q 107 870 107 866 q 107 876 107 874 q 109 881 108 878 q 113 889 111 886 q 119 897 115 893 q 138 906 127 906 l 140 906 q 157 884 157 903 l 157 881 q 155 871 157 877 q 151 861 153 866 q 149 858 149 859 l 148 857 q 149 856 149 857 q 151 854 150 855 q 168 824 166 845 q 168 817 168 821 q 166 799 168 810 q 165 782 165 789 q 167 774 165 775 l 168 774 q 172 778 169 774 q 180 787 176 781 q 188 801 183 791 q 199 823 193 811 q 203 831 201 827 q 206 835 205 834 q 209 837 208 836 q 212 838 211 838 q 216 836 214 838 q 220 833 218 835 q 221 831 220 832 q 221 828 221 830 q 221 825 221 827 q 219 822 220 824 q 215 814 218 819 q 198 783 205 793 q 186 766 192 772 q 167 756 176 756 l 163 756 m 134 690 q 94 705 110 694 q 80 716 87 709 q 68 730 73 724 q 59 748 64 738 q 50 768 54 759 q 43 815 43 791 q 53 874 43 843 q 106 953 71 927 q 131 963 120 963 q 142 960 138 963 l 145 958 l 154 962 q 168 967 162 965 q 180 970 174 969 q 199 972 191 972 l 203 972 q 223 968 212 972 q 260 946 247 962 q 284 897 278 928 q 286 876 286 888 q 284 853 286 863 q 225 728 270 780 q 176 694 202 703 q 149 690 163 690 q 134 690 142 690 m 162 718 q 206 748 184 724 q 243 810 229 774 q 258 876 258 847 q 239 929 258 909 q 218 941 231 937 q 207 944 210 944 q 201 945 203 945 q 193 944 198 945 q 179 942 184 943 q 165 937 173 941 q 156 933 161 935 q 149 930 151 931 q 142 928 145 929 q 136 925 138 926 q 127 923 132 923 q 119 927 123 923 l 116 929 l 109 922 q 72 838 81 892 q 71 821 71 830 l 71 814 q 72 791 71 800 q 83 760 75 776 q 119 723 97 731 q 137 718 129 719 q 151 717 146 717 q 162 718 157 717 m 134 865 q 138 875 136 870 q 140 884 140 880 q 139 888 140 887 q 138 888 139 888 l 136 888 q 129 881 132 886 q 125 871 126 876 l 125 868 q 126 867 125 867 q 128 865 127 866 q 130 864 129 865 l 132 863 q 133 864 132 863 q 134 865 133 865 z "},"°":{"ha":205,"x_min":35,"x_max":170,"o":"m 75 819 q 36 864 44 829 q 35 881 35 871 l 35 888 q 38 912 35 902 q 68 958 48 944 q 72 961 69 959 q 77 965 75 963 q 93 972 83 972 q 100 971 96 972 q 121 965 109 969 q 139 958 132 962 q 169 920 161 946 q 170 907 170 913 q 170 896 170 901 q 163 871 168 882 q 144 846 156 859 q 121 827 133 834 q 87 818 104 818 q 75 819 81 818 m 97 864 q 111 875 103 867 q 121 889 118 882 q 125 905 125 898 q 124 912 125 909 q 119 918 122 916 q 109 922 116 920 q 104 924 106 924 q 101 924 102 924 q 98 923 100 924 q 94 922 96 922 q 91 921 92 921 q 85 918 87 921 q 79 905 81 913 q 77 887 77 896 l 77 883 q 87 861 77 861 q 97 864 92 861 z "},"²":{"ha":233,"x_min":36,"x_max":199,"o":"m 119 753 q 139 754 130 753 q 166 755 153 754 q 168 756 167 756 q 178 758 174 758 q 182 758 182 758 q 191 755 187 758 q 199 742 198 751 l 199 741 q 186 722 199 727 q 174 720 181 720 q 171 719 172 719 q 140 717 156 717 q 119 715 128 716 q 98 710 109 714 l 95 709 q 87 706 90 707 q 82 705 84 705 q 75 706 79 705 q 67 712 71 708 q 62 721 63 716 l 62 723 q 66 736 62 730 q 92 779 79 758 q 116 827 106 802 q 134 888 129 856 q 135 905 135 895 q 134 921 136 914 q 133 926 134 923 q 131 932 132 929 q 129 935 130 935 q 126 935 128 935 q 123 934 125 935 q 121 934 121 934 q 96 915 108 928 q 77 889 83 902 q 75 883 77 887 q 72 875 73 879 q 71 868 71 871 l 71 868 q 81 852 81 862 l 81 849 q 64 836 78 838 q 42 848 51 836 q 36 869 36 857 q 37 878 36 873 q 47 907 39 895 q 75 946 56 928 q 116 971 94 964 q 127 972 121 972 q 138 971 134 972 q 160 956 153 966 q 170 930 168 945 q 173 905 173 918 q 172 892 173 899 q 165 854 170 873 q 119 753 149 800 z "},"³":{"ha":220,"x_min":35,"x_max":186,"o":"m 116 852 q 137 850 127 852 q 184 808 172 841 q 186 791 186 801 q 184 775 186 782 q 152 718 176 742 q 130 701 142 707 q 109 695 119 695 q 99 696 104 695 q 83 705 90 699 q 71 717 78 709 q 61 730 64 725 q 60 738 60 734 q 60 743 60 741 q 68 754 62 750 q 78 758 73 758 q 83 757 80 758 q 94 747 90 754 q 98 742 96 745 q 103 736 100 739 q 107 733 106 734 l 111 733 q 116 736 114 734 q 120 739 119 738 q 148 783 141 756 q 149 790 149 785 q 148 798 149 795 q 139 809 146 805 q 125 814 132 813 q 112 815 119 815 q 99 814 104 814 q 85 813 93 813 q 72 815 77 813 q 62 824 64 819 q 60 833 60 829 q 63 842 60 838 q 71 853 66 848 q 73 857 72 854 q 99 893 85 871 q 116 934 113 916 l 116 936 q 109 935 113 936 q 102 934 104 935 q 87 927 95 932 q 74 916 79 922 q 73 916 73 916 q 56 899 71 901 l 55 899 q 36 913 41 899 q 35 918 35 916 q 38 928 35 923 q 47 940 42 935 q 90 968 66 959 q 114 972 102 972 q 127 971 120 972 q 152 948 145 968 q 153 936 153 942 q 143 899 153 919 q 116 852 130 871 z "},"·":{"ha":203,"x_min":68,"x_max":130,"o":"m 86 457 q 70 475 76 462 q 68 483 68 478 q 68 491 68 488 l 68 498 q 71 508 69 505 q 87 519 76 519 q 96 517 92 519 l 103 516 q 109 515 106 515 q 118 509 113 513 q 126 500 123 505 q 130 486 130 492 q 119 463 130 474 q 100 454 110 454 q 86 457 93 454 z "},"∙":{"ha":203,"x_min":68,"x_max":130,"o":"m 86 457 q 70 475 76 462 q 68 483 68 478 q 68 491 68 488 l 68 498 q 71 508 69 505 q 87 519 76 519 q 96 517 92 519 l 103 516 q 109 515 106 515 q 118 509 113 513 q 126 500 123 505 q 130 486 130 492 q 119 463 130 474 q 100 454 110 454 q 86 457 93 454 z "},"¹":{"ha":198,"x_min":35,"x_max":163,"o":"m 86 730 l 86 777 q 85 789 86 783 q 86 842 85 815 q 91 905 88 873 q 77 897 84 901 q 64 891 69 892 q 56 890 58 890 q 45 893 50 890 q 37 901 39 897 q 35 909 35 906 q 37 917 35 913 q 54 928 43 928 q 60 928 57 928 l 60 928 q 79 942 69 932 q 94 960 88 952 q 101 968 97 965 q 111 972 104 972 l 112 972 q 127 965 121 972 q 132 948 132 958 l 132 945 q 130 923 132 933 q 130 918 130 920 q 124 848 126 884 q 123 768 123 808 q 123 753 123 760 l 123 736 q 144 737 134 737 q 150 736 147 736 q 155 734 152 736 q 162 725 161 730 q 163 719 163 721 q 162 711 163 715 q 157 704 160 707 q 149 701 153 701 q 140 700 144 700 l 134 700 q 113 698 123 700 q 105 697 109 697 l 103 697 q 81 694 92 696 q 79 693 80 694 q 71 689 75 689 q 66 688 67 688 q 57 690 61 688 q 47 701 47 696 q 46 708 46 707 q 54 722 46 715 q 69 727 59 725 q 85 730 79 730 l 86 730 z "},"º":{"ha":239,"x_min":34,"x_max":205,"o":"m 136 960 l 141 960 q 154 956 148 958 q 187 930 175 948 q 203 892 199 913 q 205 869 205 882 q 203 848 205 857 q 170 747 197 793 q 152 721 163 734 q 127 703 140 709 q 115 699 121 700 q 103 698 108 698 l 99 698 q 82 702 90 699 q 38 753 48 717 q 34 791 34 771 q 38 836 34 814 q 58 903 43 866 q 92 962 72 939 q 102 970 97 967 q 115 972 107 972 q 121 972 119 972 q 127 969 124 971 q 132 966 130 968 q 136 962 134 964 l 136 960 m 109 920 q 109 918 109 918 q 84 854 94 891 q 75 789 75 818 l 75 785 q 78 763 75 774 q 90 744 81 751 q 103 739 96 739 q 111 741 107 739 q 124 752 118 744 q 135 767 131 761 q 159 831 152 798 q 163 855 162 844 q 164 871 164 866 q 161 891 164 882 q 156 902 159 897 q 149 911 153 907 q 140 918 144 916 q 128 920 135 919 l 127 920 q 124 921 125 921 q 122 922 123 922 l 121 921 q 113 920 117 920 l 109 920 z "},"¿":{"ha":465,"x_min":68,"x_max":388,"o":"m 203 779 q 212 782 206 782 q 223 779 218 782 q 233 771 228 777 q 240 762 238 766 q 242 752 242 757 q 238 738 242 746 q 223 726 234 729 q 216 725 220 725 q 200 732 208 725 q 191 755 193 739 l 191 758 q 203 779 191 772 m 219 671 q 231 674 224 674 q 241 671 237 673 q 252 653 250 665 q 257 631 254 645 q 264 603 260 616 q 269 584 267 590 q 290 534 276 560 q 303 509 296 520 q 323 479 311 497 q 362 418 349 444 q 381 368 375 393 q 388 310 388 337 q 378 250 388 277 q 282 191 352 191 q 134 260 207 191 q 68 375 68 328 q 81 416 68 398 q 112 434 94 434 q 124 431 118 434 q 134 424 131 428 q 138 412 138 419 q 135 401 138 406 q 127 395 132 398 q 117 393 121 393 q 114 392 115 393 q 111 387 113 391 q 109 377 109 382 q 147 310 109 351 q 258 238 201 252 q 281 236 267 236 l 287 236 q 301 237 296 236 q 340 279 332 244 q 342 304 342 289 q 342 321 342 309 q 340 349 342 334 q 323 396 335 373 q 287 453 312 418 q 257 499 269 479 q 236 543 245 519 q 222 585 230 559 q 210 635 215 611 q 208 650 208 644 q 219 671 208 665 z "},"À":{"ha":671,"x_min":34,"x_max":636,"o":"m 550 25 q 533 45 536 30 q 528 97 532 50 q 519 208 524 144 q 511 322 514 271 q 496 591 502 437 q 495 618 496 608 q 494 630 495 629 q 476 633 492 631 q 439 635 460 634 l 424 635 q 393 634 408 635 q 340 629 370 633 q 312 624 328 627 q 284 620 297 622 q 270 617 272 618 q 259 590 268 617 q 198 233 198 404 q 199 205 198 219 q 208 123 201 130 q 211 116 210 119 q 212 109 212 113 q 204 91 212 96 q 190 86 196 86 q 179 89 185 86 q 170 100 174 92 q 164 123 167 107 q 155 252 155 178 l 155 272 q 159 346 156 311 q 170 422 163 380 q 190 514 178 467 q 214 596 202 561 q 216 604 215 601 q 217 608 217 607 q 213 607 216 608 q 205 606 210 607 q 170 601 185 603 q 138 600 155 600 q 106 601 117 600 q 83 608 94 603 q 38 646 52 621 q 35 655 35 652 q 34 666 34 659 q 35 677 34 673 q 38 685 35 680 q 58 703 46 703 q 66 701 62 703 q 78 684 78 695 q 76 674 78 680 q 75 669 75 671 q 75 667 75 668 l 75 665 q 75 663 75 665 q 104 644 82 652 q 132 642 113 642 q 170 645 151 642 q 198 650 183 647 q 223 654 212 652 q 235 658 234 656 q 238 664 235 659 q 244 678 241 670 q 379 905 309 829 q 444 947 414 941 q 454 948 450 948 q 463 947 457 948 q 519 880 504 941 q 529 820 526 857 q 536 722 533 783 q 538 690 537 704 q 539 673 538 676 l 540 667 l 555 663 q 597 650 576 658 q 626 637 618 642 q 633 628 631 633 q 636 617 636 622 l 636 615 q 625 598 635 604 q 615 595 620 595 q 604 599 610 595 q 582 608 596 602 q 554 617 568 613 l 541 621 l 541 606 q 542 585 541 600 q 543 555 543 570 q 550 399 545 477 q 566 186 555 321 q 568 153 568 170 q 573 96 571 120 q 576 64 575 72 q 576 52 576 58 q 576 43 576 47 q 572 33 575 37 q 564 26 568 27 q 556 24 559 24 q 550 25 553 24 m 416 983 q 370 1029 404 989 q 357 1045 363 1038 q 350 1052 351 1051 q 347 1056 349 1053 q 344 1060 345 1058 q 342 1069 342 1065 q 350 1084 342 1078 q 361 1089 355 1089 q 374 1085 368 1089 q 383 1077 376 1084 q 397 1061 390 1069 q 420 1036 412 1044 q 437 1019 429 1027 q 448 999 448 1008 q 444 987 448 993 q 429 981 437 981 q 416 983 422 981 m 324 671 q 378 678 358 677 q 428 680 398 680 q 478 678 463 680 q 487 677 484 677 q 492 677 490 677 l 492 677 q 493 682 493 678 q 492 694 493 686 q 490 734 492 711 q 488 779 489 757 q 485 816 486 802 q 454 903 475 903 q 441 898 450 903 q 423 886 432 893 q 342 777 387 854 q 316 728 332 760 q 293 678 300 696 l 288 667 l 294 667 q 305 669 296 667 q 324 671 314 670 z "},"Á":{"ha":671,"x_min":34,"x_max":636,"o":"m 550 25 q 533 45 536 30 q 528 97 532 50 q 519 208 524 144 q 511 322 514 271 q 496 591 502 437 q 495 618 496 608 q 494 630 495 629 q 476 633 492 631 q 439 635 460 634 l 424 635 q 393 634 408 635 q 340 629 370 633 q 312 624 328 627 q 284 620 296 622 q 270 617 272 618 q 259 590 268 617 q 198 233 198 404 q 199 205 198 219 q 208 123 201 130 q 211 116 210 119 q 212 109 212 113 q 204 91 212 96 q 190 86 196 86 q 179 89 185 86 q 170 100 174 92 q 164 123 167 107 q 155 252 155 178 l 155 272 q 159 346 156 311 q 170 422 163 380 q 190 514 178 467 q 214 596 202 561 q 216 604 215 601 q 217 608 217 607 q 213 607 216 608 q 205 606 210 607 q 170 601 185 603 q 138 600 155 600 q 106 601 117 600 q 83 608 94 603 q 38 646 52 621 q 35 655 35 652 q 34 666 34 659 q 35 677 34 673 q 38 685 35 680 q 58 703 46 703 q 66 701 62 703 q 78 684 78 695 q 76 674 78 680 q 75 669 75 671 q 75 667 75 668 l 75 665 q 75 663 75 665 q 104 644 82 652 q 132 642 113 642 q 170 645 151 642 q 198 650 183 647 q 223 654 212 652 q 235 658 234 656 q 238 664 235 659 q 244 678 241 670 q 379 905 309 829 q 444 947 414 941 q 454 948 450 948 q 463 947 457 948 q 519 880 504 941 q 529 820 526 857 q 536 722 533 783 q 538 690 537 704 q 539 673 538 676 l 540 667 l 555 663 q 597 650 576 658 q 626 637 618 642 q 633 628 631 633 q 636 617 636 622 l 636 615 q 625 598 634 604 q 615 595 620 595 q 604 599 609 595 q 582 608 596 602 q 554 617 568 613 l 540 621 l 541 606 q 542 585 541 600 q 543 555 543 570 q 550 399 545 477 q 566 186 555 321 q 574 85 571 123 q 576 64 575 70 q 576 52 576 58 q 576 43 576 47 q 572 33 575 37 q 564 26 568 27 q 556 24 559 24 q 550 25 553 24 m 448 987 q 444 995 445 990 q 444 1002 444 999 l 444 1005 q 454 1021 445 1012 q 486 1047 463 1031 q 501 1059 494 1054 q 508 1064 506 1063 q 512 1067 510 1065 q 516 1072 515 1069 q 527 1078 519 1075 q 540 1082 534 1082 q 544 1081 541 1082 q 548 1080 546 1081 q 559 1063 559 1074 q 557 1054 559 1059 q 557 1053 557 1053 q 555 1049 556 1051 q 552 1046 555 1048 q 544 1040 549 1044 q 530 1028 539 1036 q 524 1024 527 1027 q 504 1009 514 1017 q 488 996 494 1001 q 478 987 483 991 q 470 982 473 983 q 461 981 465 981 q 448 987 454 981 m 324 671 q 378 678 358 677 q 428 680 398 680 q 478 678 463 680 q 487 677 484 677 q 492 677 490 677 l 492 677 q 493 682 493 678 q 492 694 493 686 q 490 734 492 711 q 488 779 489 757 q 485 816 486 802 q 454 903 475 903 q 441 898 450 903 q 423 886 432 893 q 342 777 387 854 q 317 728 333 760 q 292 678 301 696 l 288 667 l 294 667 q 305 669 296 667 q 324 671 314 670 z "},"Â":{"ha":671,"x_min":34,"x_max":636,"o":"m 550 25 q 533 45 536 30 q 528 97 532 50 q 519 208 524 144 q 511 322 514 271 q 496 591 502 437 q 495 618 496 608 q 494 630 495 629 q 476 633 492 631 q 439 635 460 634 l 424 635 q 393 634 408 635 q 340 629 370 633 q 312 624 328 627 q 284 620 296 622 q 270 617 272 618 q 259 590 268 617 q 198 233 198 404 q 199 205 198 219 q 208 123 201 130 q 211 116 210 119 q 212 109 212 113 q 204 91 212 96 q 190 86 196 86 q 179 89 185 86 q 170 100 174 92 q 164 123 167 107 q 155 252 155 178 l 155 272 q 159 346 156 311 q 170 422 163 380 q 190 514 178 467 q 214 596 202 561 q 216 604 215 601 q 217 608 217 607 q 213 607 216 608 q 205 606 210 607 q 170 601 185 603 q 138 600 155 600 q 106 601 117 600 q 83 608 94 603 q 38 646 52 621 q 35 655 35 652 q 34 666 34 659 q 35 677 34 673 q 37 685 35 680 q 58 703 46 703 q 66 701 62 703 q 78 684 78 695 q 76 674 78 680 q 75 669 75 671 q 75 667 75 668 l 75 665 q 75 663 75 665 q 104 644 82 652 q 132 642 113 642 q 170 645 151 642 q 198 650 183 647 q 223 654 212 652 q 235 658 234 656 q 238 664 235 659 q 244 678 241 670 q 379 905 309 829 q 444 947 414 941 q 454 948 450 948 q 463 947 457 948 q 519 880 504 941 q 529 820 526 857 q 536 722 533 783 q 538 690 537 704 q 538 673 538 676 l 540 667 l 555 663 q 597 650 576 658 q 626 637 618 642 q 633 628 631 633 q 636 617 636 622 l 636 615 q 625 598 634 604 q 615 595 620 595 q 604 599 610 595 q 582 608 596 602 q 554 617 568 613 l 540 621 l 541 606 q 542 585 541 600 q 543 555 543 570 q 550 399 545 477 q 566 186 555 321 l 569 152 q 573 96 571 119 q 576 64 575 72 q 576 52 576 58 q 576 43 576 47 q 572 33 575 37 q 564 26 568 27 q 556 24 559 24 q 550 25 553 24 m 378 983 q 369 990 372 986 q 367 1000 367 994 q 370 1011 367 1007 q 382 1022 372 1015 q 441 1082 411 1043 q 455 1097 450 1093 q 468 1101 460 1101 q 492 1078 485 1101 q 497 1067 494 1074 q 503 1053 500 1060 q 511 1039 507 1044 q 518 1029 514 1034 q 529 1009 529 1019 l 529 1006 q 524 998 528 1002 q 516 991 521 994 q 509 989 511 989 q 500 991 505 989 q 484 1001 491 994 q 468 1025 476 1009 l 460 1039 l 446 1024 q 415 996 431 1008 q 393 982 399 984 q 387 981 389 981 l 385 981 q 378 983 382 981 m 325 671 q 378 678 358 677 q 428 680 398 680 q 478 678 463 680 q 487 677 484 677 q 491 677 490 677 l 492 677 q 493 682 493 678 q 492 694 493 686 q 490 734 492 711 q 488 779 489 757 q 485 816 486 802 q 454 903 475 903 q 441 898 450 903 q 423 886 432 893 q 342 777 387 854 q 317 728 333 760 q 292 678 300 696 l 288 667 l 294 667 q 305 669 296 667 q 325 671 314 670 z "},"Ã":{"ha":671,"x_min":34,"x_max":636,"o":"m 550 25 q 533 45 536 30 q 528 97 532 50 q 519 208 524 144 q 511 322 514 271 q 496 591 502 437 q 495 618 496 608 q 494 630 495 629 q 476 633 492 631 q 439 635 460 634 l 424 635 q 393 634 408 635 q 340 629 370 633 q 312 624 328 627 q 284 620 296 622 q 270 617 272 618 q 259 590 268 617 q 198 233 198 404 q 199 205 198 219 q 208 123 201 130 q 211 116 210 119 q 212 109 212 113 q 204 91 212 96 q 190 86 196 86 q 179 89 185 86 q 170 100 174 92 q 164 123 167 107 q 155 252 155 178 l 155 272 q 159 346 156 311 q 170 422 163 380 q 190 514 178 467 q 214 596 202 561 q 216 604 215 601 q 217 608 217 607 q 213 607 216 608 q 205 606 210 607 q 170 601 185 603 q 138 600 155 600 q 106 601 117 600 q 83 608 94 603 q 38 646 52 621 q 35 655 35 652 q 34 666 34 659 q 35 677 34 673 q 38 685 35 680 q 58 703 46 703 q 66 701 62 703 q 78 684 78 695 q 76 674 78 680 q 75 669 75 671 q 75 667 75 668 l 75 665 q 75 663 75 665 q 104 644 82 652 q 132 642 113 642 q 170 645 151 642 q 198 650 183 647 q 223 654 212 652 q 235 658 234 656 q 238 664 235 659 q 244 678 241 670 q 379 905 309 829 q 444 947 414 941 q 454 948 450 948 q 463 947 458 948 q 519 880 504 941 q 529 820 526 857 q 536 722 533 783 q 538 690 537 704 q 539 673 538 676 l 540 667 l 555 663 q 597 650 576 658 q 626 637 618 642 q 633 628 631 633 q 636 617 636 622 l 636 615 q 625 598 634 604 q 615 595 620 595 q 604 599 609 595 q 582 608 596 602 q 554 617 568 613 l 540 621 l 541 606 q 542 581 541 598 q 543 555 543 568 q 550 399 545 477 q 566 186 555 321 q 574 85 571 123 q 576 64 575 70 q 576 52 576 58 q 576 43 576 47 q 572 33 575 37 q 564 26 568 27 q 556 24 559 24 q 550 25 553 24 m 492 978 q 449 1010 465 985 q 447 1014 448 1012 q 444 1017 445 1016 l 443 1019 q 441 1018 442 1019 q 437 1015 439 1017 q 433 1010 435 1013 q 430 1006 431 1008 q 427 1002 429 1004 q 423 998 425 1000 q 414 995 418 995 q 410 995 410 995 q 401 998 404 995 q 391 1015 391 1005 q 395 1027 391 1020 q 405 1040 398 1033 q 418 1052 412 1048 q 445 1062 432 1062 q 464 1056 456 1062 q 481 1037 472 1050 q 493 1024 488 1027 q 503 1020 499 1020 q 506 1021 505 1020 q 511 1029 508 1022 q 516 1044 514 1036 q 538 1067 521 1067 l 540 1067 q 555 1059 549 1065 q 560 1042 560 1052 l 560 1040 q 553 1014 559 1028 q 538 992 547 1000 q 507 977 525 978 l 498 977 q 492 978 494 977 m 324 671 q 378 678 358 677 q 428 680 398 680 q 478 678 463 680 q 487 677 484 677 q 492 677 490 677 l 492 677 q 493 682 493 678 q 492 694 493 686 q 490 734 492 711 q 488 779 489 757 q 485 816 486 802 q 454 903 475 903 q 441 898 450 903 q 423 886 432 893 q 342 777 387 854 q 317 728 333 760 q 292 678 301 696 l 288 667 l 294 667 q 305 669 296 667 q 324 671 314 670 z "},"Ä":{"ha":671,"x_min":34,"x_max":636,"o":"m 550 25 q 533 45 536 30 q 528 97 532 50 q 519 208 524 144 q 511 322 514 271 q 496 591 502 437 q 495 618 496 608 q 494 630 495 629 q 476 633 492 631 q 439 635 460 634 l 423 635 q 393 634 408 635 q 340 629 370 633 q 312 624 328 627 q 284 620 297 622 q 270 617 272 618 q 259 590 268 617 q 198 233 198 404 q 199 205 198 219 q 208 123 201 130 q 211 116 210 119 q 212 109 212 113 q 204 91 212 96 q 190 86 196 86 q 179 89 185 86 q 170 100 174 92 q 164 123 167 107 q 155 252 155 178 l 155 272 q 159 346 156 311 q 170 422 163 380 q 190 514 178 467 q 214 596 202 561 q 216 604 215 601 q 217 608 217 607 q 213 607 216 608 q 205 606 210 607 q 170 601 185 603 q 138 600 155 600 q 106 601 117 600 q 83 608 94 603 q 38 646 52 621 q 35 655 35 652 q 34 666 34 659 q 35 677 34 673 q 37 685 35 680 q 58 703 46 703 q 66 701 62 703 q 78 684 78 695 q 76 674 78 680 q 75 669 75 671 q 75 667 75 668 l 75 665 q 75 663 75 665 q 104 644 82 652 q 132 642 113 642 q 170 645 151 642 q 198 650 183 647 q 223 654 212 652 q 235 658 234 656 q 238 664 235 659 q 244 678 241 670 q 379 905 309 829 q 444 947 414 941 q 454 948 450 948 q 463 947 457 948 q 519 880 504 941 q 529 820 526 857 q 536 722 533 783 q 538 690 537 704 q 539 673 538 676 l 540 667 l 555 663 q 597 650 576 658 q 626 637 618 642 q 633 628 631 633 q 636 617 636 622 l 636 615 q 625 598 634 604 q 615 595 620 595 q 604 599 610 595 q 582 608 596 602 q 554 617 568 613 l 540 621 l 541 606 q 542 589 541 600 q 543 555 543 572 q 550 399 545 477 q 566 186 555 321 q 572 108 570 142 q 576 64 575 74 q 576 52 576 58 q 576 43 576 47 q 572 33 575 37 q 564 26 568 27 q 555 24 559 24 q 550 25 553 24 m 414 987 q 402 999 404 993 q 400 1008 400 1006 q 406 1025 400 1017 q 426 1036 414 1036 l 429 1036 q 447 1021 442 1035 q 448 1013 448 1017 q 446 1001 448 1006 q 432 987 441 992 q 423 985 428 985 q 414 987 419 985 m 501 981 q 486 995 488 986 q 484 1007 484 1004 q 491 1026 484 1017 q 510 1035 499 1035 l 511 1035 q 529 1023 522 1034 q 532 1013 532 1018 q 532 1006 532 1008 q 532 998 532 1002 q 520 985 528 989 q 507 981 513 981 q 501 981 505 981 m 324 671 q 378 678 358 677 q 428 680 398 680 q 478 678 463 680 q 487 677 484 677 q 491 677 490 677 l 492 677 q 493 682 493 678 q 492 694 493 686 q 491 734 492 711 q 488 779 490 757 q 485 816 486 802 q 454 903 475 903 q 441 898 450 903 q 423 886 432 893 q 342 777 387 854 q 317 728 333 760 q 292 678 301 696 l 288 667 l 294 667 q 305 669 296 667 q 324 671 314 670 z "},"Å":{"ha":671,"x_min":34,"x_max":636,"o":"m 550 25 q 533 45 536 30 q 528 97 532 50 q 519 208 524 144 q 511 322 514 271 q 496 591 502 437 q 495 618 496 608 q 494 630 495 629 q 476 633 492 631 q 439 635 460 634 l 424 635 q 393 634 408 635 q 340 629 370 633 q 312 624 328 627 q 284 620 297 622 q 270 617 272 618 q 259 590 268 617 q 198 233 198 404 q 199 205 198 219 q 208 123 201 130 q 211 116 210 119 q 212 109 212 113 q 204 91 212 96 q 190 86 196 86 q 179 89 185 86 q 170 100 174 92 q 164 123 167 107 q 155 252 155 178 l 155 272 q 159 346 156 311 q 170 422 163 380 q 190 514 178 467 q 214 596 202 561 q 216 604 215 601 q 217 608 217 607 q 213 607 216 608 q 205 606 210 607 q 170 601 185 603 q 138 600 155 600 q 106 601 117 600 q 83 608 94 603 q 38 646 52 621 q 35 655 35 652 q 34 666 34 659 q 35 677 34 673 q 37 685 35 680 q 58 703 46 703 q 66 701 62 703 q 78 684 78 695 q 76 674 78 680 q 75 669 75 671 q 75 667 75 668 l 75 665 q 75 663 75 665 q 104 644 82 652 q 132 642 113 642 q 170 645 151 642 q 198 650 183 647 q 223 654 212 652 q 235 658 234 656 q 238 664 235 659 q 244 678 241 670 q 379 905 309 829 q 444 947 414 941 q 454 948 450 948 q 463 947 458 948 q 519 880 504 941 q 529 820 526 857 q 536 722 533 783 q 538 690 537 704 q 539 673 538 676 l 540 667 l 555 663 q 597 650 576 658 q 626 637 618 642 q 633 628 631 633 q 636 617 636 622 l 636 615 q 625 598 634 604 q 615 595 620 595 q 604 599 610 595 q 582 608 596 602 q 554 617 568 613 l 541 621 l 541 606 q 542 585 541 600 q 543 555 543 570 q 550 399 545 477 q 566 186 555 321 q 568 153 568 170 q 573 96 571 120 q 576 64 575 72 q 576 49 576 55 l 576 43 q 572 33 575 37 q 564 26 568 27 q 555 24 559 24 q 550 25 553 24 m 469 974 q 445 988 456 977 q 429 1013 434 998 q 427 1028 427 1019 l 427 1032 q 430 1052 427 1043 q 446 1085 435 1070 q 465 1103 456 1099 q 476 1104 470 1104 q 490 1103 483 1104 q 517 1096 506 1101 q 535 1080 527 1091 q 546 1057 543 1069 q 547 1044 547 1050 q 538 1008 547 1026 q 521 986 532 996 q 496 974 509 977 q 483 972 490 972 q 469 974 475 972 m 492 1019 q 499 1028 496 1021 q 503 1042 503 1036 q 499 1054 503 1050 q 487 1058 496 1057 l 477 1060 l 473 1051 q 469 1038 469 1043 q 469 1031 469 1033 q 471 1021 469 1025 l 476 1016 l 484 1016 q 492 1019 489 1017 m 324 671 q 378 678 358 677 q 428 680 398 680 q 478 678 463 680 q 487 677 484 677 q 491 677 490 677 l 492 677 q 493 682 493 678 q 492 694 493 686 q 491 734 492 711 q 488 779 490 757 q 485 816 486 802 q 454 903 475 903 q 441 898 450 903 q 423 886 432 893 q 342 777 387 854 q 317 728 332 760 q 293 678 301 696 l 288 667 l 294 667 q 305 669 296 667 q 324 671 314 670 z "},"Æ":{"ha":865,"x_min":34,"x_max":899,"o":"m 549 25 q 532 45 536 30 q 528 97 532 50 q 519 208 524 144 q 510 322 514 271 q 497 557 503 426 q 486 628 486 591 l 486 632 q 439 635 467 634 l 423 635 q 393 634 408 635 q 340 629 370 633 q 312 624 328 627 q 284 620 296 622 q 269 617 272 618 q 258 590 267 617 q 197 233 197 404 q 198 205 197 219 q 207 123 201 130 q 211 116 210 119 q 212 109 212 113 q 204 91 212 96 q 190 86 196 86 q 178 89 184 86 q 170 100 173 92 q 164 123 167 107 q 155 253 155 179 l 155 272 q 159 346 155 311 q 170 422 162 380 q 190 514 178 467 q 213 596 201 561 q 216 604 215 601 q 216 608 216 607 l 213 608 q 205 606 210 607 q 170 601 184 603 q 138 600 155 600 q 105 601 117 600 q 82 608 94 603 q 38 646 51 621 q 35 655 35 652 q 34 666 34 659 q 35 677 34 673 q 37 685 35 680 q 58 703 45 703 q 66 701 62 703 q 77 684 77 695 q 76 674 77 680 q 74 669 75 671 q 74 666 74 667 q 75 663 74 665 q 104 644 81 652 q 132 642 113 642 q 170 645 151 642 q 197 650 182 647 q 223 654 212 652 q 235 658 233 656 q 238 664 235 659 q 244 678 240 670 q 378 905 308 829 q 444 947 413 941 q 453 948 450 948 q 463 947 457 948 q 519 880 503 941 q 533 774 528 846 q 560 806 545 790 q 693 884 624 871 q 714 886 703 886 l 722 886 q 750 882 739 885 q 773 873 760 880 q 793 861 785 867 q 829 810 817 842 q 842 741 842 778 q 840 716 842 730 q 837 692 839 703 q 833 679 836 682 q 817 671 828 671 q 800 682 805 671 l 796 688 l 799 707 q 800 735 800 722 q 789 796 800 770 q 737 839 772 831 q 718 841 728 841 l 712 841 q 686 837 698 840 q 608 790 646 824 q 550 716 570 757 q 531 631 531 674 q 536 586 531 608 q 639 465 553 513 q 655 457 644 463 q 679 445 666 451 q 702 433 691 439 q 718 424 713 427 q 747 389 747 407 q 743 376 747 382 q 739 368 742 372 q 729 361 736 365 q 711 352 723 358 q 645 304 671 332 q 591 210 602 258 q 589 193 589 201 q 589 182 589 184 q 591 167 589 172 q 614 136 596 144 q 622 132 618 133 q 633 132 626 132 l 637 132 q 683 143 659 132 q 752 189 710 156 q 795 223 777 208 q 841 264 813 238 q 859 281 851 274 q 869 288 867 288 q 878 290 873 290 q 892 284 886 290 q 898 275 897 279 q 899 269 899 270 q 896 256 899 262 q 878 237 893 252 q 843 205 863 222 q 808 176 824 188 q 659 88 712 97 q 636 86 648 86 q 614 88 624 86 q 572 111 589 94 l 575 64 q 576 49 576 55 l 576 43 q 572 33 575 37 q 563 26 568 27 q 555 24 558 24 q 549 25 552 24 m 546 479 q 560 258 549 395 q 675 383 597 337 l 687 390 l 653 408 q 591 442 613 428 q 552 473 569 456 l 546 479 m 490 677 l 491 679 q 492 686 492 683 q 489 750 492 709 q 484 816 487 791 q 454 903 474 903 q 440 898 450 903 q 423 886 431 893 q 342 777 387 854 q 316 728 332 760 q 292 678 300 696 l 287 667 l 293 667 q 304 669 296 667 q 324 671 313 670 q 377 678 357 677 q 427 680 397 680 q 478 678 463 680 q 490 677 486 677 z "},"Ç":{"ha":509,"x_min":43,"x_max":532,"o":"m 188 73 q 178 76 182 75 q 56 232 85 110 q 43 356 43 290 q 48 448 43 399 q 127 707 66 583 q 244 866 180 810 q 336 904 290 904 q 388 891 361 904 q 446 834 427 871 q 455 807 452 820 q 459 775 458 793 l 459 766 q 458 743 459 754 q 450 710 456 728 q 412 623 438 669 q 365 561 386 578 q 353 553 357 555 q 340 551 348 551 q 331 551 334 551 q 325 554 328 552 q 312 574 312 563 q 313 581 312 577 q 321 590 315 587 q 331 593 326 593 q 336 593 333 593 q 338 592 337 592 q 341 593 340 592 q 345 597 342 594 q 368 631 355 608 q 391 677 381 654 q 409 723 404 703 q 414 764 414 743 l 414 775 q 413 793 414 785 q 406 814 411 803 q 357 855 391 844 q 347 858 351 857 q 336 859 342 859 l 332 859 q 256 815 297 859 q 162 678 203 762 q 102 498 122 594 q 91 431 94 462 q 88 359 88 399 l 88 347 q 106 216 88 267 q 154 141 123 168 q 222 113 185 113 q 307 153 263 113 q 358 203 327 170 q 412 266 389 237 q 482 370 448 311 q 490 383 487 378 q 496 389 494 387 q 510 394 503 394 q 517 393 513 394 q 531 378 527 389 q 532 374 532 376 q 530 367 532 370 q 521 347 528 360 q 499 311 514 334 q 453 246 477 276 q 394 176 430 216 q 245 70 306 78 q 228 68 237 68 q 227 61 227 65 q 225 54 226 57 l 224 46 l 233 45 q 272 21 261 39 q 282 -14 282 3 q 279 -35 282 -24 q 228 -90 262 -82 q 219 -92 222 -92 q 209 -90 215 -92 q 178 -78 192 -87 q 160 -58 163 -68 q 159 -52 159 -55 l 159 -50 q 161 -41 159 -46 q 174 -28 168 -29 q 182 -28 180 -28 q 199 -37 191 -28 q 206 -43 201 -40 q 216 -46 211 -45 l 221 -46 q 225 -43 222 -45 q 230 -37 227 -41 q 234 -30 232 -33 q 237 -22 237 -26 q 238 -14 238 -19 q 237 -5 238 -7 q 235 -1 237 -3 q 216 4 230 4 l 204 4 q 196 5 199 4 q 187 11 191 6 q 182 19 183 15 q 182 25 182 22 q 182 33 182 28 q 183 41 182 36 q 184 50 184 46 q 188 73 185 62 z "},"È":{"ha":465,"x_min":52,"x_max":465,"o":"m 180 88 q 134 115 152 95 q 121 135 127 123 q 112 159 115 147 q 110 184 110 170 l 110 191 q 114 224 111 210 q 241 383 143 325 l 253 390 l 219 408 q 157 442 179 428 q 117 473 135 456 q 52 627 52 538 q 57 679 52 652 q 126 806 70 749 q 259 884 190 871 q 280 886 269 886 l 288 886 q 316 882 304 885 q 339 873 326 880 q 359 861 351 867 q 395 810 382 842 q 408 741 408 778 q 406 716 408 730 q 403 692 405 703 q 399 679 401 682 q 383 671 394 671 q 366 682 371 671 l 362 688 l 365 707 q 366 735 366 722 q 355 796 366 770 q 303 839 338 831 q 283 841 294 841 l 278 841 q 252 837 264 840 q 174 790 212 824 q 116 716 136 757 q 97 631 97 674 q 102 586 97 608 q 205 465 119 513 q 221 457 210 463 q 244 445 232 451 q 268 433 257 439 q 283 424 279 427 q 313 388 313 407 q 309 376 313 382 q 304 368 307 372 q 295 361 301 365 q 277 352 289 358 q 211 304 237 332 q 157 210 168 258 q 155 192 155 201 q 155 180 155 183 q 156 167 155 172 q 180 136 162 144 q 188 132 184 133 q 199 132 192 132 l 203 132 q 249 143 224 132 q 318 189 275 156 q 361 223 343 208 q 407 264 379 238 q 425 281 417 274 q 435 288 433 288 q 444 290 439 290 q 458 284 452 290 q 464 275 463 279 q 465 269 465 270 q 462 256 465 262 q 444 237 458 252 q 409 205 429 222 q 374 176 390 188 q 224 88 277 97 q 202 86 214 86 q 180 88 190 86 m 279 924 q 233 970 267 930 q 220 985 226 979 q 213 993 214 991 q 210 996 212 994 q 207 1001 208 998 q 205 1010 205 1006 q 212 1025 205 1019 q 225 1029 218 1029 q 237 1026 231 1029 q 246 1017 239 1024 q 260 1002 252 1010 q 283 976 275 985 q 300 960 291 967 q 311 940 311 949 q 307 928 311 934 q 291 922 300 922 q 279 924 286 922 z "},"É":{"ha":466,"x_min":52,"x_max":465,"o":"m 181 88 q 134 115 153 95 q 121 135 127 123 q 113 159 115 147 q 111 184 111 170 l 111 191 q 115 224 111 210 q 241 383 144 325 l 253 390 l 220 408 q 157 442 180 428 q 118 473 135 456 q 52 628 52 538 q 57 679 52 652 q 127 806 71 749 q 259 884 191 871 q 281 886 269 886 l 289 886 q 316 882 305 885 q 339 873 327 880 q 359 861 351 867 q 395 810 382 842 q 408 741 408 778 q 407 716 408 730 q 404 692 406 703 q 400 679 402 682 q 384 671 395 671 q 366 682 372 671 l 363 688 l 365 707 q 367 737 367 723 q 355 796 367 771 q 304 839 339 831 q 284 841 295 841 l 279 841 q 252 837 264 840 q 174 790 212 824 q 117 716 136 757 q 97 631 97 674 q 102 586 97 609 q 205 465 119 513 q 221 457 210 463 q 245 445 233 451 q 268 433 257 439 q 284 424 279 427 q 313 388 313 407 q 310 376 313 382 q 305 368 308 372 q 296 361 302 365 q 278 352 290 358 q 212 304 237 332 q 157 210 168 258 q 155 187 155 201 q 157 167 155 174 q 180 136 163 144 q 188 132 184 133 q 200 132 192 132 l 204 132 q 249 143 224 132 q 319 189 276 156 q 362 223 344 208 q 408 264 380 238 q 426 281 418 274 q 435 288 433 288 q 444 290 439 290 q 459 284 452 290 q 465 274 464 279 q 465 268 465 269 q 462 256 465 262 q 444 237 459 252 q 409 205 429 222 q 375 176 390 188 q 225 88 278 97 q 203 86 215 86 q 181 88 190 86 m 205 928 q 201 935 202 931 q 201 943 201 939 l 201 946 q 211 962 202 953 q 243 987 220 971 q 258 1000 252 994 q 265 1004 263 1003 q 270 1008 267 1006 q 273 1013 272 1010 q 284 1019 277 1016 q 297 1023 291 1022 q 301 1022 298 1023 q 305 1021 303 1021 q 317 1004 317 1015 q 315 995 317 1000 q 314 994 315 994 q 313 990 313 991 q 309 986 312 989 q 301 980 307 984 q 287 969 296 976 q 281 965 284 967 q 261 950 271 958 q 245 937 251 942 q 235 928 240 932 q 227 923 229 924 q 218 922 222 922 q 205 928 211 922 z "},"Ê":{"ha":465,"x_min":52,"x_max":465,"o":"m 181 88 q 134 115 153 95 q 121 135 127 123 q 113 159 115 147 q 111 184 111 170 l 111 191 q 114 224 111 210 q 241 383 143 325 l 253 390 l 220 408 q 157 442 180 428 q 118 473 135 456 q 52 628 52 538 q 57 679 52 652 q 126 806 71 749 q 259 884 190 871 q 280 886 269 886 l 288 886 q 316 882 304 885 q 339 873 327 880 q 359 861 351 867 q 395 810 382 842 q 408 741 408 778 q 407 716 408 730 q 404 692 406 703 q 400 679 401 682 q 383 671 394 671 q 366 682 371 671 l 363 688 l 365 707 q 366 735 366 722 q 355 796 366 770 q 303 839 339 831 q 283 841 294 841 l 278 841 q 252 837 264 840 q 174 790 212 824 q 116 716 136 757 q 97 631 97 674 q 102 586 97 608 q 205 465 119 513 q 221 457 210 463 q 245 445 233 451 q 268 433 257 439 q 283 424 279 427 q 313 389 313 407 q 309 376 313 382 q 305 368 308 372 q 296 361 302 365 q 278 352 290 358 q 212 304 237 332 q 157 210 168 258 q 155 187 155 201 q 157 167 155 174 q 180 136 163 144 q 188 132 184 133 q 199 132 192 132 l 203 132 q 249 143 224 132 q 318 189 276 156 q 361 223 344 208 q 407 264 379 238 q 425 281 417 274 q 435 288 433 288 q 444 290 439 290 q 458 284 452 290 q 464 275 464 279 q 465 269 465 270 q 462 256 465 262 q 444 237 459 252 q 409 205 429 222 q 375 176 390 188 q 225 88 278 97 q 202 86 214 86 q 181 88 190 86 m 188 924 q 179 931 182 927 q 177 941 177 935 q 180 952 177 948 q 193 963 183 956 q 252 1023 221 984 q 265 1037 260 1034 q 278 1041 271 1041 q 302 1019 295 1041 q 307 1007 304 1015 q 313 994 310 1000 q 321 980 317 985 q 329 970 324 975 q 339 949 339 959 l 339 947 q 334 939 338 943 q 326 932 331 935 q 320 930 322 930 q 317 930 318 930 q 310 932 314 930 q 294 942 301 934 q 278 966 287 949 l 271 980 l 256 965 q 225 937 241 949 q 203 922 210 924 q 197 922 200 922 l 195 922 q 188 924 193 922 z "},"Ë":{"ha":466,"x_min":52,"x_max":465,"o":"m 181 88 q 134 115 153 95 q 121 135 127 123 q 113 159 115 147 q 111 184 111 170 l 111 191 q 115 224 111 210 q 241 383 144 325 l 253 390 l 220 408 q 157 442 180 428 q 118 473 135 456 q 52 628 52 538 q 57 679 52 652 q 127 806 71 749 q 259 884 190 871 q 280 886 269 886 l 288 886 q 316 882 305 885 q 339 873 327 880 q 359 861 351 867 q 395 810 382 842 q 408 741 408 778 q 407 716 408 730 q 404 692 406 703 q 400 679 402 682 q 384 671 394 671 q 366 682 371 671 l 363 688 l 365 707 q 367 737 367 723 q 355 796 367 771 q 303 839 339 831 q 284 841 295 841 l 279 841 q 252 837 264 840 q 174 790 212 824 q 117 716 136 757 q 97 631 97 674 q 102 586 97 609 q 205 465 119 513 q 221 457 210 463 q 245 445 233 451 q 268 433 257 439 q 283 424 279 427 q 313 388 313 406 q 310 376 313 382 q 305 368 308 372 q 296 361 302 365 q 278 352 290 358 q 212 304 237 332 q 157 210 168 258 q 155 187 155 201 q 157 167 155 174 q 180 136 163 144 q 188 132 184 133 q 200 132 192 132 l 204 132 q 249 143 224 132 q 318 189 276 156 q 362 223 344 208 q 408 264 380 238 q 425 281 417 274 q 435 288 433 288 q 444 290 439 290 q 458 284 452 290 q 465 274 464 279 q 465 268 465 269 q 462 256 465 262 q 444 237 459 252 q 409 205 429 222 q 375 176 390 188 q 225 88 278 97 q 203 86 215 86 q 181 88 190 86 m 206 928 q 194 941 195 934 q 193 950 193 947 q 197 966 193 958 q 218 977 207 977 l 220 977 q 239 961 234 976 q 240 955 240 958 q 237 942 240 948 q 224 928 233 933 q 215 926 220 926 q 206 928 211 926 m 293 922 q 278 936 280 927 q 276 948 276 945 q 283 967 276 958 q 302 976 291 976 l 303 976 q 321 964 314 975 q 324 954 323 958 q 324 947 324 949 q 323 939 324 943 q 313 925 320 929 q 300 922 306 922 q 293 922 296 922 z "},"Ì":{"ha":310,"x_min":36,"x_max":337,"o":"m 57 123 q 48 126 51 124 q 41 131 45 127 q 36 145 36 138 q 37 151 36 148 q 54 166 41 161 q 113 178 67 172 l 140 182 l 140 191 l 140 232 q 141 294 140 263 q 172 657 150 509 q 186 738 178 694 q 199 803 194 781 l 200 806 l 192 806 q 183 805 189 805 q 172 804 177 804 q 161 803 165 804 q 153 800 157 802 q 140 798 147 798 l 136 798 q 120 807 125 800 q 116 814 117 811 q 116 819 116 818 q 118 827 116 823 q 126 837 121 833 q 144 842 132 840 q 207 848 168 846 q 266 850 246 850 q 292 850 286 850 q 321 848 315 850 q 337 827 337 840 q 334 814 337 821 q 319 802 327 804 q 307 800 311 800 q 295 804 300 800 q 290 806 294 806 q 281 807 287 807 q 271 808 276 808 q 259 807 266 808 l 244 807 l 241 800 q 236 779 239 794 q 228 732 233 764 q 187 327 199 558 q 185 258 185 287 q 184 217 184 230 l 184 199 l 185 186 l 191 187 q 224 189 207 189 q 246 189 241 189 q 261 178 258 186 q 264 166 264 171 q 262 155 264 161 q 256 149 260 151 q 245 146 253 146 q 222 144 237 145 q 177 142 197 144 q 130 138 156 141 q 106 135 115 136 q 93 133 98 134 q 86 131 88 132 q 82 128 84 130 q 74 122 77 123 q 69 121 71 121 q 57 123 64 121 m 208 882 q 162 928 195 887 q 149 943 155 936 q 141 950 143 949 q 138 954 140 951 q 136 958 136 956 q 134 968 134 964 q 141 983 134 977 q 153 987 146 987 q 165 983 159 987 q 175 975 168 982 q 189 959 181 968 q 212 934 203 943 q 229 917 220 925 q 239 897 239 907 q 235 886 239 891 q 220 879 229 879 q 208 882 214 879 z "},"Í":{"ha":311,"x_min":37,"x_max":337,"o":"m 57 123 q 48 126 51 124 q 42 131 45 127 q 37 145 37 138 q 37 151 37 149 q 54 166 41 161 q 113 178 67 172 l 140 182 l 140 191 l 140 232 q 141 294 140 263 q 172 657 151 509 q 186 738 178 694 q 199 803 194 781 l 200 806 l 192 806 q 183 805 189 805 q 172 804 177 804 q 161 803 165 804 q 154 800 157 802 q 140 798 147 798 l 136 798 q 120 807 126 800 q 117 814 117 811 q 117 819 117 818 q 118 827 117 824 q 126 837 121 833 q 144 842 132 840 q 207 848 168 846 q 266 850 246 850 q 292 850 286 850 q 321 848 315 850 q 337 827 337 840 q 334 814 337 821 q 319 802 327 804 q 307 800 311 800 q 295 804 300 800 q 290 806 294 806 q 282 807 287 807 q 271 808 277 808 q 259 807 266 808 l 244 807 l 241 800 q 236 779 239 794 q 228 732 233 764 q 187 327 199 558 q 185 258 186 287 q 184 217 184 230 l 184 199 l 185 186 l 192 187 q 224 189 207 189 q 246 189 241 189 q 262 179 258 186 q 265 168 265 172 q 262 155 265 161 q 256 149 260 151 q 245 146 253 146 q 222 144 237 145 q 177 142 197 144 q 130 138 156 141 q 106 135 115 136 q 93 133 98 134 q 86 131 88 132 q 82 128 84 130 q 74 122 77 123 q 69 121 71 121 q 57 123 64 121 m 212 885 q 209 892 210 888 q 208 899 208 897 q 208 903 208 901 q 218 920 209 910 q 250 945 228 929 q 263 956 257 951 q 272 962 270 960 q 276 966 274 964 q 281 970 279 968 q 291 977 284 973 q 304 980 298 980 q 308 979 305 980 q 313 978 311 979 q 324 962 324 972 q 322 952 324 957 q 321 951 321 951 q 320 947 321 949 q 316 944 319 946 q 309 938 314 942 q 294 927 303 934 q 288 922 291 925 q 269 907 279 916 q 252 894 258 899 q 242 885 247 889 q 235 880 237 881 q 226 879 230 879 q 212 885 218 879 z "},"Î":{"ha":311,"x_min":37,"x_max":337,"o":"m 58 123 q 48 126 52 124 q 42 131 45 127 q 37 144 37 138 q 38 151 37 148 q 54 166 41 161 q 113 178 67 172 l 141 182 l 140 191 l 140 233 q 141 294 140 263 q 172 657 151 509 q 186 738 178 694 q 199 803 195 781 l 201 806 l 193 806 q 183 805 189 805 q 172 804 178 804 q 161 803 165 804 q 154 800 157 802 q 140 798 148 798 l 136 798 q 121 807 126 800 q 117 814 117 811 q 117 819 117 818 q 118 827 117 824 q 127 837 121 833 q 144 842 133 840 q 207 848 168 846 q 267 850 246 850 q 292 850 287 850 q 321 848 315 850 q 337 827 337 840 q 334 814 337 821 q 320 802 328 804 q 308 800 312 800 q 296 804 301 800 q 290 806 294 806 q 282 807 287 807 q 271 808 277 808 q 260 807 267 808 l 245 807 l 242 800 q 236 779 239 794 q 228 732 233 764 q 188 327 199 558 q 185 255 186 287 q 184 210 184 223 l 184 199 l 185 186 l 192 187 q 224 189 208 189 q 247 189 241 189 q 262 178 258 186 q 265 166 265 171 q 262 155 265 161 q 257 149 260 151 q 245 146 253 146 q 222 144 237 145 q 177 142 198 144 q 130 138 156 141 q 106 135 115 136 q 93 133 98 134 q 86 131 89 132 q 83 128 84 130 q 74 122 77 123 q 69 121 71 121 q 58 123 65 121 m 174 882 q 165 888 168 884 q 163 899 163 892 q 165 909 163 905 q 178 920 168 913 q 237 980 207 941 q 251 995 245 991 q 264 999 256 999 q 288 977 281 999 q 293 965 290 972 q 299 951 296 958 q 307 938 303 943 q 314 928 310 932 q 325 908 325 916 q 324 905 325 906 q 320 896 323 900 q 312 890 317 892 q 304 888 307 888 q 295 889 301 888 q 279 900 286 892 q 264 924 272 907 l 256 937 l 241 922 q 211 895 227 907 q 189 880 195 882 q 182 879 185 879 l 181 879 q 174 882 178 879 z "},"Ï":{"ha":311,"x_min":37,"x_max":337,"o":"m 58 123 q 48 126 51 124 q 42 131 45 127 q 37 144 37 138 q 38 151 37 148 q 54 166 41 161 q 113 178 67 172 l 140 182 l 140 191 l 140 232 q 141 294 140 263 q 172 657 151 509 q 186 738 178 694 q 199 803 194 781 l 201 806 l 193 806 q 183 805 189 805 q 172 804 177 804 q 161 803 165 804 q 154 800 157 802 q 140 798 148 798 l 136 798 q 120 807 126 800 q 117 814 117 811 q 117 819 117 818 q 118 827 117 824 q 127 837 121 833 q 144 842 133 840 q 207 848 168 846 q 267 850 246 850 q 292 850 287 850 q 321 848 315 850 q 337 827 337 840 q 334 814 337 821 q 320 802 328 804 q 308 800 312 800 q 295 804 300 800 q 290 806 294 806 q 282 807 287 807 q 271 808 277 808 q 260 807 267 808 l 245 807 l 241 800 q 236 779 239 794 q 228 732 233 764 q 188 327 199 558 q 185 255 186 287 q 184 210 184 223 l 184 199 l 185 186 l 192 187 q 224 189 207 189 q 246 189 241 189 q 262 178 258 186 q 265 166 265 171 q 262 155 265 161 q 256 149 260 151 q 245 146 253 146 q 222 144 237 145 q 177 142 198 144 q 130 138 156 141 q 106 135 115 136 q 93 133 98 134 q 86 131 89 132 q 82 128 84 130 q 74 122 77 123 q 69 121 71 121 q 58 123 64 121 m 168 886 q 156 898 157 891 q 154 908 154 905 q 159 923 154 916 q 179 935 168 935 l 182 935 q 201 919 195 933 q 201 911 201 916 q 199 899 201 905 q 185 886 195 890 q 176 884 181 884 q 168 886 172 884 m 254 880 q 239 893 241 884 q 237 905 237 902 q 244 924 237 916 q 263 933 252 933 l 264 933 q 282 921 275 932 q 285 911 285 916 q 286 905 286 907 q 285 897 286 900 q 274 883 281 886 q 261 879 267 879 q 254 880 258 879 z "},"Ñ":{"ha":791,"x_min":35,"x_max":823,"o":"m 603 74 q 538 162 559 87 q 528 280 528 209 q 532 386 528 328 q 538 441 534 407 q 551 548 543 475 q 566 674 562 632 q 570 743 570 716 q 569 759 570 751 q 555 837 568 813 q 548 847 553 842 q 540 853 544 852 q 532 854 536 854 q 475 823 509 854 q 409 733 444 791 q 347 614 374 676 q 245 260 281 458 q 238 215 241 233 q 233 168 236 197 q 224 93 228 99 q 210 80 220 83 q 203 79 206 79 q 184 91 191 79 q 182 95 182 93 q 181 101 181 97 q 181 112 181 104 q 189 192 181 136 q 202 336 195 237 q 213 545 208 435 q 215 602 214 572 q 215 651 215 632 q 214 688 215 671 q 213 739 214 724 q 192 835 208 810 q 183 842 189 842 q 169 834 178 842 q 117 755 142 812 q 80 635 92 697 q 77 606 77 619 q 77 589 77 593 q 78 566 77 575 q 88 534 81 547 q 104 521 96 521 q 119 514 115 521 q 123 501 123 507 q 120 490 123 496 q 105 478 116 481 q 100 477 102 477 q 79 486 91 477 q 37 555 47 509 q 35 585 35 568 q 35 607 35 602 q 37 642 35 627 q 62 739 45 693 q 134 863 95 827 q 184 886 156 886 l 188 886 q 204 883 197 886 q 220 871 212 880 q 252 793 244 848 q 260 659 260 737 q 259 600 260 631 q 258 549 258 572 q 257 517 258 526 l 257 499 l 267 530 q 376 765 313 667 q 444 853 410 820 q 516 897 480 890 q 533 899 525 899 q 581 878 559 899 q 614 760 612 848 l 614 746 q 610 669 614 715 q 590 492 606 612 q 576 375 579 413 q 573 300 573 338 l 573 262 q 574 229 573 241 q 578 190 575 209 q 589 151 582 169 q 606 123 597 133 q 610 120 609 121 q 613 118 612 119 q 618 118 615 118 q 656 144 631 119 q 744 306 699 185 q 766 362 758 342 q 781 390 774 382 q 793 399 787 398 q 802 401 798 401 q 817 393 810 401 q 823 378 823 386 l 823 374 q 820 366 823 370 q 812 353 818 361 q 779 272 807 346 q 708 135 746 188 q 616 73 661 75 q 608 74 612 73 q 603 74 604 74 m 446 939 q 402 971 419 946 q 397 978 399 975 q 396 979 397 979 q 394 979 395 979 q 390 975 393 977 q 386 971 388 973 q 383 967 385 968 q 380 963 382 965 q 376 959 378 960 q 368 956 372 956 q 362 956 363 956 q 354 958 357 956 q 345 975 345 965 q 348 987 345 981 q 358 1000 351 993 q 372 1013 366 1008 q 398 1022 385 1022 q 417 1017 409 1022 q 434 998 425 1011 q 447 984 441 988 q 456 981 452 981 q 459 981 458 981 q 464 989 461 983 q 469 1005 467 996 q 490 1027 473 1027 l 493 1027 q 508 1019 503 1026 q 513 1003 513 1013 l 513 1001 q 506 975 512 989 q 492 953 500 961 q 460 938 479 938 l 452 938 q 446 939 448 938 z "},"Ò":{"ha":613,"x_min":34,"x_max":646,"o":"m 245 49 q 230 53 237 51 q 217 60 224 56 q 151 198 163 96 q 150 208 150 205 q 148 212 149 211 q 146 214 147 214 q 132 226 141 218 q 114 241 122 234 q 35 425 50 302 q 34 475 34 443 q 36 526 34 507 q 96 719 50 624 q 187 847 134 795 q 319 922 252 911 q 345 924 331 924 l 351 924 q 382 921 369 924 q 477 866 435 909 q 516 810 500 842 q 528 782 524 794 q 537 754 533 770 q 547 700 544 728 q 551 633 551 672 q 551 605 551 618 q 550 567 551 585 q 543 505 548 538 q 473 276 524 395 q 468 262 470 267 l 465 256 q 471 260 466 256 q 486 271 477 264 q 503 283 494 277 q 523 302 509 290 q 551 330 537 315 q 581 358 570 348 q 600 374 591 369 q 611 383 607 380 q 618 387 616 386 q 625 388 621 388 q 640 381 635 388 q 646 366 646 374 l 646 363 q 639 350 644 355 q 623 336 634 344 q 609 323 620 334 q 585 300 598 313 q 512 234 545 258 q 446 193 480 210 l 427 184 l 414 164 q 288 52 351 70 q 269 48 277 49 q 256 47 260 47 q 245 49 250 47 m 328 208 q 360 212 343 209 q 387 218 376 214 l 397 221 l 405 237 q 467 385 438 298 q 497 504 488 448 q 507 620 507 559 q 499 720 507 679 q 475 793 491 762 q 378 876 439 857 q 358 879 368 879 q 346 880 349 880 q 324 878 334 880 q 213 809 269 867 q 134 694 166 762 q 79 507 88 598 q 79 478 79 494 l 79 461 q 82 417 79 435 q 138 281 96 326 l 148 271 l 149 284 q 166 406 153 338 q 190 501 177 458 q 210 556 202 544 q 229 565 218 566 q 246 555 239 565 q 251 542 251 548 q 243 528 251 534 q 239 522 241 526 q 234 510 237 518 q 228 487 232 502 q 204 372 214 431 q 194 267 195 313 l 193 237 l 204 231 q 304 206 250 206 q 328 208 316 206 m 274 94 q 292 102 281 96 q 310 113 302 107 q 331 132 319 119 q 352 155 344 145 q 357 163 355 159 l 359 165 l 355 165 q 346 164 351 165 q 305 162 330 162 q 266 164 280 162 q 212 178 235 169 q 199 182 201 182 l 199 182 l 199 180 q 201 170 199 177 q 207 151 203 161 q 214 132 210 140 q 261 92 232 92 q 274 94 267 92 m 361 971 q 315 1017 349 977 q 302 1033 308 1026 q 294 1040 296 1039 q 291 1043 293 1041 q 289 1048 290 1046 q 287 1058 287 1053 q 294 1072 287 1066 q 306 1077 300 1077 q 319 1073 312 1077 q 328 1065 321 1072 q 342 1049 334 1058 q 365 1023 357 1032 q 382 1006 373 1015 q 393 987 393 997 q 388 976 393 981 q 373 968 382 968 q 361 971 367 968 z "},"Ó":{"ha":614,"x_min":35,"x_max":646,"o":"m 245 49 q 231 53 237 51 q 218 60 224 56 q 151 198 164 96 q 150 208 151 205 q 149 212 150 211 q 146 214 148 214 q 132 226 142 218 q 115 241 123 234 q 36 425 51 302 q 35 460 35 438 l 35 475 q 37 526 35 507 q 97 719 50 624 q 188 847 134 795 q 320 922 252 911 q 345 924 332 924 l 352 924 q 383 921 370 924 q 477 866 436 909 q 516 810 501 842 q 529 782 524 794 q 538 754 534 770 q 548 700 545 728 q 552 633 551 672 l 552 616 q 551 567 552 589 q 543 505 549 538 q 474 276 525 395 q 469 262 471 267 l 466 256 q 472 260 467 256 q 487 271 478 264 q 503 283 495 277 q 524 302 510 290 q 552 330 538 315 q 581 358 570 348 q 600 374 592 369 q 612 383 608 380 q 619 387 616 386 q 625 388 622 388 q 641 381 635 388 q 646 366 646 374 l 646 363 q 640 350 645 355 q 624 336 635 344 q 610 323 621 334 q 585 300 599 313 q 513 234 545 258 q 446 193 481 210 l 428 184 l 414 164 q 289 52 351 70 q 270 48 278 49 q 257 47 262 47 q 245 49 251 47 m 287 975 q 283 982 284 979 q 283 989 283 986 l 283 993 q 293 1009 283 1000 q 324 1035 302 1019 q 339 1045 332 1040 q 347 1052 345 1050 q 352 1055 349 1053 q 355 1059 354 1057 q 366 1066 359 1063 q 378 1070 373 1069 q 383 1069 380 1070 q 387 1067 385 1069 q 399 1052 399 1062 q 397 1042 399 1047 q 396 1041 397 1042 q 394 1037 395 1039 q 391 1034 393 1036 q 383 1027 389 1031 q 368 1016 378 1023 q 363 1013 366 1015 q 343 997 353 1005 q 328 984 333 989 q 316 975 321 979 q 309 970 311 971 q 301 968 305 968 q 287 975 293 968 m 328 208 q 360 212 344 209 q 388 218 377 214 l 397 221 l 406 237 q 467 385 439 298 q 498 504 488 448 q 507 620 507 559 q 499 720 507 679 q 475 793 492 762 q 379 876 440 857 q 359 879 369 879 q 347 880 349 880 q 326 878 335 880 q 214 809 269 867 q 134 694 167 762 q 80 507 89 598 q 79 478 79 494 l 79 461 q 83 417 80 435 q 139 281 96 326 l 149 271 l 150 284 q 167 406 153 338 q 190 501 177 458 q 211 556 203 544 q 229 565 218 566 q 247 555 240 565 q 252 542 252 548 q 244 528 252 534 q 239 522 241 526 q 235 510 237 518 q 229 487 233 502 q 205 372 214 431 q 195 267 196 313 l 194 237 l 205 231 q 305 206 250 206 q 328 208 317 206 m 275 94 q 292 102 282 96 q 311 113 302 107 q 332 132 319 119 q 353 155 345 145 q 358 163 356 159 l 360 165 l 356 165 q 346 164 352 165 q 306 162 330 162 q 266 164 281 162 q 212 178 237 169 q 200 182 202 182 l 199 182 l 199 180 q 201 170 199 177 q 207 151 203 161 q 214 132 211 140 q 262 92 233 92 q 275 94 268 92 z "},"Ô":{"ha":614,"x_min":35,"x_max":646,"o":"m 245 49 q 231 53 237 51 q 217 60 224 56 q 151 198 164 96 q 150 208 151 205 q 149 212 149 211 q 146 214 148 214 q 132 226 141 218 q 115 241 122 234 q 36 425 51 302 q 35 460 35 438 l 35 475 q 37 526 35 507 q 97 719 50 624 q 187 847 134 795 q 319 922 252 911 q 345 924 332 924 l 352 924 q 382 921 370 924 q 477 866 435 909 q 516 810 500 842 q 529 782 524 794 q 537 754 533 770 q 548 700 545 728 q 551 633 551 672 l 551 616 q 550 567 551 589 q 543 505 548 538 q 474 276 525 395 q 468 262 471 268 l 465 256 q 471 260 466 256 q 486 271 477 264 q 503 283 495 277 q 524 302 510 290 q 552 330 538 315 q 600 374 586 365 q 612 383 608 380 q 619 387 616 386 q 625 388 622 388 q 641 381 635 388 q 646 368 646 374 q 646 363 646 366 q 640 350 644 355 q 624 336 635 344 q 609 323 621 334 q 585 300 598 313 q 513 234 545 258 q 446 193 481 210 l 427 184 l 414 164 q 288 52 351 70 q 269 48 277 49 q 257 47 261 47 q 245 49 250 47 m 270 971 q 261 978 264 974 q 259 988 259 982 q 262 999 259 996 q 274 1010 264 1003 q 334 1070 303 1031 q 347 1085 341 1081 q 360 1088 353 1088 q 385 1066 377 1088 q 389 1055 386 1062 q 395 1041 392 1048 q 403 1027 399 1032 q 410 1017 406 1022 q 421 997 421 1006 l 421 994 q 416 986 420 989 q 408 979 413 982 q 401 977 404 977 q 391 979 397 977 q 376 989 383 981 q 360 1013 368 997 l 353 1027 l 338 1012 q 307 984 323 996 q 286 970 292 972 q 279 969 282 969 l 277 969 q 270 971 274 969 m 328 208 q 360 212 343 209 q 387 218 376 214 l 397 221 l 406 237 q 467 385 439 298 q 497 504 488 448 q 507 620 507 559 q 499 720 507 679 q 475 793 492 762 q 379 876 440 857 q 359 879 368 879 q 347 880 349 880 q 325 878 334 880 q 213 809 269 867 q 134 694 167 762 q 80 507 89 598 q 79 474 79 492 l 79 461 q 82 417 79 435 q 138 281 96 326 l 149 271 l 149 284 q 166 406 153 338 q 190 501 177 458 q 211 556 202 544 q 229 565 218 566 q 247 555 240 565 q 251 542 251 549 q 244 528 251 534 q 239 522 241 526 q 235 510 237 518 q 229 487 233 502 q 204 372 214 431 q 194 267 195 313 l 193 237 l 205 231 q 304 206 250 206 q 328 208 316 206 m 275 94 q 292 102 282 96 q 311 113 302 107 q 332 132 319 119 q 353 155 345 145 q 358 163 356 159 l 360 165 q 355 165 359 165 q 346 164 351 165 q 305 162 330 162 q 266 164 281 162 q 212 178 236 169 q 199 182 202 182 l 199 182 q 201 170 199 179 q 207 151 203 161 q 214 132 210 140 q 262 92 232 92 q 275 94 268 92 z "},"Õ":{"ha":614,"x_min":35,"x_max":647,"o":"m 245 49 q 231 53 237 51 q 218 60 224 56 q 151 198 164 96 q 150 208 151 205 q 149 212 150 211 q 146 214 148 214 q 132 226 142 218 q 115 241 123 234 q 36 425 51 302 q 35 460 35 438 l 35 475 q 37 526 35 507 q 97 719 50 624 q 188 847 134 795 q 320 922 252 911 q 345 924 332 924 l 352 924 q 383 921 370 924 q 477 866 436 909 q 517 810 501 842 q 529 782 524 794 q 538 754 534 770 q 548 700 545 728 q 552 633 551 672 l 552 616 q 551 567 552 589 q 543 505 549 538 q 475 276 526 395 q 470 266 472 271 q 467 258 468 261 l 466 256 q 472 260 467 256 q 487 271 478 264 q 503 283 495 277 q 524 302 510 290 q 552 330 538 315 q 600 374 586 365 q 612 383 608 380 q 619 387 616 386 q 625 388 622 388 q 641 381 635 388 q 647 367 647 374 q 646 363 647 365 q 640 350 645 355 q 624 336 635 344 q 610 323 621 334 q 585 300 599 313 q 513 234 545 258 q 447 193 481 210 l 428 184 l 414 164 q 289 52 351 70 q 270 48 278 49 q 257 47 261 47 q 245 49 251 47 m 357 969 q 314 1002 330 977 q 311 1005 313 1004 l 309 1009 l 308 1010 l 307 1010 q 306 1010 307 1010 q 302 1006 304 1008 q 298 1002 300 1004 q 295 998 296 1000 q 292 994 294 996 q 288 989 290 991 q 277 986 283 986 q 265 989 270 986 q 256 1006 256 996 q 260 1019 256 1012 q 270 1031 263 1024 q 283 1043 277 1039 q 310 1053 297 1053 q 329 1048 321 1053 q 346 1029 337 1042 q 358 1016 353 1019 q 367 1012 363 1012 q 370 1013 369 1012 q 376 1021 373 1014 q 381 1036 379 1027 q 402 1058 385 1058 l 405 1058 q 420 1050 414 1057 q 425 1034 425 1043 l 425 1032 q 417 1006 424 1020 q 404 983 411 992 q 372 968 390 969 q 363 969 368 968 q 357 969 359 969 m 328 208 q 360 212 344 209 q 388 218 377 214 l 397 221 l 406 237 q 467 385 439 298 q 498 504 488 448 q 507 620 507 559 q 499 720 507 679 q 475 793 492 762 q 379 876 440 857 q 359 879 369 879 q 347 880 349 880 q 325 878 334 880 q 214 809 269 867 q 134 694 167 762 q 80 507 89 598 q 79 478 79 494 l 79 461 q 83 417 80 435 q 139 281 96 326 l 149 271 l 150 284 q 167 406 153 338 q 190 501 178 458 q 211 556 203 544 q 230 565 219 566 q 247 555 240 565 q 252 542 252 548 q 244 528 252 534 q 239 522 241 526 q 235 510 237 518 q 229 487 233 502 q 205 372 214 431 q 195 267 196 313 l 194 237 l 205 231 q 305 206 250 206 q 328 208 317 206 m 275 94 q 292 102 282 96 q 311 113 302 107 q 332 132 319 119 q 353 155 345 145 q 358 163 356 159 l 360 165 l 356 165 q 346 164 352 165 q 306 162 330 162 q 267 164 281 162 q 212 178 236 169 q 200 182 202 182 l 199 182 l 199 180 q 201 170 199 177 q 207 151 203 161 q 214 132 211 140 q 262 92 232 92 q 275 94 268 92 z "},"Ö":{"ha":614,"x_min":34,"x_max":646,"o":"m 245 49 q 231 53 237 51 q 217 60 224 56 q 151 198 164 96 q 150 208 151 205 q 149 212 149 211 q 146 214 148 214 q 132 226 141 218 q 115 241 123 234 q 36 425 51 302 q 34 475 34 443 q 37 526 34 507 q 97 719 50 624 q 187 847 134 795 q 319 922 252 911 q 345 924 332 924 l 352 924 q 382 921 370 924 q 477 866 435 909 q 516 810 501 842 q 529 782 524 794 q 538 754 533 770 q 548 700 545 728 q 551 633 551 672 l 551 616 q 550 567 551 589 q 543 505 549 538 q 474 276 525 395 q 468 262 471 267 l 465 256 q 471 260 466 256 q 486 271 477 264 q 503 283 495 277 q 524 302 510 290 q 552 330 538 315 q 600 374 586 365 q 612 383 607 380 q 619 387 616 386 q 625 388 622 388 q 641 381 635 388 q 646 368 646 374 q 646 363 646 366 q 639 350 644 355 q 624 336 634 344 q 609 323 621 334 q 585 300 598 313 q 513 234 545 258 q 446 193 481 210 l 428 184 l 414 164 q 288 52 351 70 q 269 48 277 49 q 257 47 261 47 q 245 49 250 47 m 288 975 q 276 987 277 981 q 274 997 274 994 q 279 1013 274 1004 q 300 1025 288 1025 l 302 1025 q 321 1008 315 1023 q 322 1000 322 1004 q 319 989 322 995 q 306 975 315 980 q 297 973 302 973 q 288 975 293 973 m 375 969 q 359 983 361 974 q 357 994 357 991 q 365 1015 357 1005 q 382 1023 372 1023 l 385 1023 q 403 1010 396 1021 q 406 1001 406 1006 q 406 994 406 996 q 406 986 406 989 q 394 972 401 977 q 380 968 387 968 q 375 969 378 968 m 328 208 q 360 212 343 209 q 387 218 376 214 l 397 221 l 406 237 q 467 385 439 298 q 497 504 488 448 q 507 620 507 559 q 499 720 507 679 q 475 793 492 762 q 379 876 440 857 q 359 879 368 879 q 347 880 349 880 q 325 878 334 880 q 213 809 269 867 q 134 694 167 762 q 80 507 89 598 q 79 474 79 492 l 79 461 q 82 417 80 435 q 139 281 96 326 l 149 271 l 149 284 q 166 406 153 338 q 190 501 177 458 q 211 556 202 544 q 229 565 218 566 q 247 555 240 565 q 251 542 251 549 q 244 528 251 534 q 239 522 241 526 q 235 510 237 518 q 229 487 233 502 q 204 372 214 431 q 194 267 195 313 l 193 237 l 205 231 q 304 206 250 206 q 328 208 316 206 m 275 94 q 292 102 282 96 q 311 113 302 107 q 332 132 319 119 q 353 155 345 145 q 358 163 356 159 l 360 165 q 356 165 359 165 q 346 164 352 165 q 305 162 330 162 q 266 164 281 162 q 212 178 236 169 q 199 182 202 182 l 199 182 q 201 170 199 179 q 207 151 203 161 q 214 132 210 140 q 262 92 232 92 q 275 94 268 92 z "},"×":{"ha":363,"x_min":69,"x_max":295,"o":"m 75 393 q 74 401 74 398 q 76 410 74 406 q 91 425 81 422 q 105 436 94 427 q 140 467 117 446 l 155 480 l 149 484 q 130 499 138 493 q 116 511 122 506 q 106 518 111 515 q 100 524 102 522 q 95 527 97 526 q 93 529 94 528 q 92 529 92 529 l 91 529 q 90 528 91 528 q 87 529 90 528 q 83 530 85 529 q 72 538 75 532 q 69 549 69 544 q 70 554 69 551 q 81 566 73 562 q 95 570 88 570 q 100 570 98 570 q 112 564 104 568 q 135 548 119 559 q 180 514 151 536 l 184 510 l 219 545 q 246 571 235 560 q 261 585 258 583 q 275 591 269 591 q 289 585 283 591 q 295 574 294 580 q 292 557 295 568 q 285 544 289 548 q 275 539 281 540 q 272 538 273 539 q 267 534 270 537 q 256 524 263 530 q 242 509 250 517 q 230 496 235 501 l 218 483 l 247 454 q 270 430 262 438 q 277 420 277 422 q 280 409 279 415 q 278 397 280 403 q 258 385 271 385 l 256 385 q 236 399 243 385 q 233 404 235 401 q 226 412 231 407 q 211 428 220 418 l 188 452 l 174 438 q 145 411 162 426 q 119 388 128 395 q 96 378 106 378 q 82 384 89 378 q 75 393 77 389 z "},"Ø":{"ha":353,"x_min":-13,"x_max":387,"o":"m 138 256 q 100 264 118 258 q 75 199 87 230 q 70 186 73 192 q 66 178 67 180 q 57 172 62 173 q 49 170 52 170 q 43 171 45 170 q 27 193 27 176 l 27 196 q 61 287 30 209 q 44 303 52 294 q 30 321 36 313 q 14 350 22 332 q 0 383 5 368 q -13 460 -13 420 q 4 557 -13 507 q 92 687 34 644 q 134 704 116 704 q 152 699 144 704 l 157 695 l 170 701 q 193 710 184 707 q 214 715 203 713 q 243 719 231 718 q 267 717 256 719 q 271 723 269 720 l 281 738 q 303 780 303 776 q 309 793 303 786 q 322 802 315 800 q 328 802 325 802 q 336 800 332 802 q 345 791 342 798 q 348 781 348 787 q 347 777 348 779 q 338 758 346 770 q 328 738 335 750 q 315 713 321 725 l 309 703 q 347 675 330 693 q 385 595 375 646 q 387 559 387 580 q 385 523 387 539 q 288 317 361 403 q 207 260 250 275 q 165 254 188 254 q 138 256 153 254 m 79 331 l 85 346 q 160 518 125 444 q 242 673 195 593 l 239 673 q 235 673 237 673 q 212 669 222 671 q 189 661 203 667 q 174 654 182 658 q 161 650 166 651 q 150 645 156 648 q 141 642 144 643 q 127 637 134 637 q 113 644 119 637 l 109 648 l 98 637 q 35 497 51 587 q 33 467 33 484 l 33 458 q 36 421 33 435 q 54 370 41 396 q 79 331 65 346 m 287 664 q 220 535 248 593 q 162 412 191 477 q 117 307 142 365 q 164 298 142 298 q 184 300 174 298 q 257 349 221 309 q 318 453 294 392 q 342 559 342 513 q 311 648 342 615 q 287 664 300 658 z "},"Ù":{"ha":260,"x_min":-13,"x_max":291,"o":"m 189 290 q 146 330 165 298 q 137 351 142 338 q 128 377 132 364 l 127 382 q 125 389 126 387 q 124 393 124 392 l 122 389 q 117 381 120 386 q 45 321 81 321 q 38 322 41 321 q 11 336 23 324 q -9 373 -3 349 q -13 409 -13 387 l -13 416 q -7 471 -12 443 q 2 500 -3 491 q 15 513 7 510 q 24 516 20 516 q 33 515 28 517 q 44 505 43 511 q 45 498 45 500 q 40 484 45 491 q 37 478 38 481 q 34 468 35 474 q 30 431 30 445 q 29 414 29 418 q 31 387 29 397 q 45 366 37 366 l 46 366 q 56 374 50 368 q 68 389 63 381 q 115 479 90 420 q 120 491 117 486 q 123 498 122 496 q 136 506 131 506 q 142 507 142 507 q 159 499 153 507 q 163 493 161 496 q 164 482 164 489 q 164 463 165 475 l 164 451 q 165 429 164 439 q 170 399 165 414 q 195 339 179 357 l 201 332 l 204 336 q 212 348 208 339 q 220 363 217 356 q 226 381 223 370 q 235 414 229 392 q 251 465 245 458 q 268 473 258 473 l 271 473 q 288 461 282 473 q 291 452 291 456 q 288 441 291 447 q 284 428 288 439 q 278 403 281 417 q 267 361 271 374 q 257 336 263 348 q 204 288 233 288 l 203 288 q 195 289 199 288 q 189 290 191 289 m 71 542 q 26 587 60 547 q 13 603 18 596 q 5 610 7 610 q 2 614 4 612 q -1 618 1 616 q -3 628 -3 623 q 5 642 -3 636 q 18 647 11 647 q 30 644 23 647 q 38 635 32 642 q 53 619 45 628 q 76 593 67 602 q 92 577 84 585 q 104 557 104 567 q 99 546 104 551 q 83 539 92 539 q 71 542 78 539 z "},"Ú":{"ha":259,"x_min":-13,"x_max":291,"o":"m 189 290 q 146 330 165 298 q 136 351 141 338 q 128 377 132 364 q 125 388 126 384 q 124 393 124 392 q 121 389 123 393 q 117 381 119 386 q 45 321 81 321 q 37 322 41 321 q 23 327 29 323 q 10 336 17 330 q -9 373 -3 349 q -13 409 -13 387 l -13 416 q -7 471 -12 443 q 2 500 -3 491 q 14 513 7 510 q 24 516 20 516 q 33 515 28 517 q 44 505 43 511 q 45 498 45 500 q 39 484 45 491 q 36 478 37 481 q 34 468 35 474 q 30 431 30 445 q 29 414 29 418 q 31 387 29 397 q 45 366 36 366 l 46 366 q 56 374 49 368 q 68 389 62 381 q 115 479 90 420 q 120 491 117 486 q 123 498 122 496 q 136 506 130 506 q 142 507 142 507 q 159 499 152 507 q 163 493 161 496 q 164 484 164 489 q 165 474 165 479 q 164 463 165 469 l 164 429 q 169 399 165 414 q 195 339 179 357 l 201 332 l 204 336 q 212 348 208 339 q 220 363 217 356 q 226 381 223 370 q 234 414 229 392 q 250 465 244 458 q 268 473 258 473 l 271 473 q 288 461 282 473 q 291 452 291 456 q 288 441 291 447 q 284 428 287 439 q 278 403 281 417 q 267 361 271 374 q 256 336 262 348 q 204 288 233 288 l 203 288 q 195 289 199 288 q 189 290 191 289 m 85 545 q 82 553 83 549 q 81 560 81 557 l 81 564 q 92 579 82 570 q 123 605 101 589 q 135 614 129 610 l 146 622 q 150 626 147 623 q 154 629 152 628 q 164 636 157 633 q 177 640 172 640 q 181 640 178 640 q 185 638 184 639 q 197 621 197 632 q 195 612 197 617 q 195 611 195 612 q 193 608 194 609 q 190 604 192 606 q 182 597 187 602 q 167 587 176 593 l 161 583 q 142 567 152 575 q 125 554 132 559 q 115 545 120 549 q 108 541 110 541 q 99 539 103 539 q 85 545 92 539 z "},"Û":{"ha":259,"x_min":-13,"x_max":291,"o":"m 189 290 q 146 330 164 298 q 136 351 141 338 q 128 377 132 364 q 125 388 126 384 q 123 393 124 392 l 121 389 q 116 381 119 386 q 45 321 80 321 q 37 322 41 321 q 10 336 22 324 q -10 373 -3 349 q -13 408 -13 387 l -13 416 q -7 471 -12 443 q 1 500 -3 491 q 14 513 6 510 q 24 516 20 516 q 33 515 28 517 q 43 505 42 511 q 45 498 45 500 q 39 484 45 491 q 36 478 37 481 q 34 468 35 474 q 29 430 30 445 q 28 409 28 415 q 31 387 28 396 q 45 366 36 366 l 46 366 q 56 374 49 368 q 68 389 62 381 q 114 479 90 420 q 119 491 117 486 q 123 498 122 496 q 136 506 130 506 q 142 507 142 507 q 158 499 152 507 q 163 493 161 496 q 164 482 164 489 q 163 463 164 475 l 163 451 q 164 429 163 439 q 169 399 165 414 q 195 339 178 357 l 201 332 l 203 336 q 212 348 207 339 q 220 363 216 356 q 225 381 222 370 q 234 414 229 392 q 250 465 244 458 q 267 473 258 473 l 270 473 q 288 461 282 473 q 291 452 291 456 q 288 441 291 447 q 284 428 287 439 q 277 403 281 417 q 267 361 271 374 q 256 336 262 348 q 204 288 233 288 l 203 288 q 195 289 199 288 q 189 290 191 289 m 18 541 q 10 548 12 545 q 7 559 7 552 q 10 570 7 566 q 22 580 13 574 q 81 640 51 602 q 95 655 90 651 q 108 659 101 659 q 133 636 125 659 q 137 625 134 632 q 143 612 140 618 q 151 597 148 603 q 159 587 154 592 q 170 568 170 576 q 169 564 170 566 q 165 556 168 560 q 157 550 161 552 q 150 548 152 548 q 147 548 149 548 q 140 549 144 548 q 124 560 131 552 q 109 584 117 568 l 101 597 l 86 583 q 55 554 71 567 q 34 540 40 542 q 28 539 31 539 l 25 539 q 18 541 22 539 z "},"Ü":{"ha":260,"x_min":-13,"x_max":291,"o":"m 189 290 q 146 330 165 298 q 137 351 142 338 q 128 377 132 364 q 125 388 127 384 q 124 393 124 392 q 121 389 123 393 q 117 381 119 386 q 45 321 81 321 q 37 322 41 321 q 11 336 22 324 q -9 373 -3 349 q -13 409 -13 387 l -13 416 q -7 471 -12 443 q 2 500 -3 491 q 15 513 7 510 q 24 516 20 516 q 33 515 28 517 q 44 506 43 511 q 45 499 45 500 q 39 484 45 492 q 36 478 37 481 q 34 468 35 474 q 30 431 30 445 q 29 414 29 418 q 31 387 29 397 q 45 366 36 366 l 46 366 q 56 374 49 368 q 68 389 62 381 q 115 479 90 420 q 120 491 117 486 q 123 498 122 496 q 136 506 130 506 q 142 507 142 507 q 159 499 152 507 q 163 493 161 496 q 164 484 164 489 q 165 474 165 479 q 164 463 165 469 l 164 451 q 165 429 164 439 q 169 399 165 414 q 195 339 179 357 l 201 332 l 204 336 q 212 348 208 339 q 220 363 217 356 q 226 381 223 370 q 234 414 229 392 q 250 465 244 458 q 268 473 258 473 l 271 473 q 288 461 282 473 q 291 452 291 456 q 288 441 291 447 q 284 428 288 439 q 278 403 281 417 q 267 361 271 374 q 256 336 262 348 q 204 288 233 288 l 203 288 q 195 289 199 288 q 189 290 191 289 m 29 546 q 17 558 18 551 q 15 566 15 564 q 20 583 15 575 q 41 595 29 595 l 43 595 q 62 579 57 593 q 63 571 63 575 q 60 559 63 565 q 47 546 56 550 q 38 544 43 544 q 29 546 34 544 m 116 540 q 100 553 102 545 q 98 565 98 562 q 106 585 98 575 q 123 593 113 593 l 125 593 q 144 581 137 592 q 147 571 146 576 q 147 565 147 567 q 146 557 147 560 q 136 543 142 547 q 123 539 129 539 q 116 540 119 539 z "}}}
